<svg width="80" height="80" viewBox="0 0 80 80" fill="none" xmlns="http://www.w3.org/2000/svg">
<path d="M13.133 56.9533C9.67178 56.9553 6.8593 54.1389 6.85866 50.6785L6.85742 31.4664C6.85618 28.0089 9.66802 25.1933 13.1249 25.1926C14.8055 25.1914 16.3793 25.8433 17.5655 27.0283C18.7518 28.2133 19.4043 29.7895 19.4055 31.4651L19.4037 50.6777C19.408 51.5013 19.2483 52.3177 18.9337 53.0789C18.6192 53.8401 18.1562 54.5309 17.5718 55.1113C16.9909 55.6973 16.2993 56.1617 15.5373 56.4777C14.7753 56.7941 13.958 56.9557 13.133 56.9533ZM13.128 26.8783C10.5949 26.877 8.54178 28.9351 8.54118 31.4664L8.5443 50.6765C8.54414 51.8937 9.0273 53.0613 9.88766 53.9225C10.748 54.7837 11.9151 55.2681 13.1324 55.2689C13.7352 55.2689 14.3321 55.1501 14.889 54.9193C15.4459 54.6885 15.9518 54.3505 16.3778 53.9237C16.8038 53.4973 17.1415 52.9913 17.3717 52.4341C17.6019 51.8769 17.72 51.2797 17.7193 50.6769V31.4639C17.718 30.2471 17.2336 29.0807 16.3727 28.2208C15.5118 27.361 14.3448 26.8781 13.128 26.8783Z" fill="white"/>
<path d="M62.3392 27.8299L60.6532 27.8293L19.3287 27.8349L17.6419 27.8355L17.6406 26.1486C17.6369 19.2236 21.4094 12.783 27.5887 8.97799L25.1863 4.59239C24.8925 4.07863 24.8187 3.42801 24.99 2.83301C25.0768 2.53625 25.2217 2.25972 25.4164 2.01948C25.611 1.77925 25.8515 1.5801 26.1237 1.43363C26.4604 1.24828 26.8388 1.15211 27.2231 1.15426C28.0744 1.15426 28.8537 1.61613 29.265 2.36238L31.7794 6.94299C34.4019 5.98323 37.1737 5.49551 39.9663 5.50239C42.8452 5.50115 45.6056 5.98799 48.2188 6.94675L50.7292 2.35863C50.9292 1.99259 51.2244 1.68723 51.5832 1.47473C51.942 1.26223 52.3516 1.15043 52.7688 1.15113C53.1528 1.14992 53.5308 1.24398 53.8692 1.42488C54.142 1.5713 54.3828 1.7709 54.5772 2.0119C54.7712 2.2529 54.9156 2.5304 55.0008 2.82801C55.0864 3.12148 55.1132 3.4291 55.0792 3.73297C55.0448 4.03683 54.9508 4.33087 54.802 4.59799L52.4008 8.98115C58.57 12.7943 62.338 19.2299 62.3376 26.143L62.3392 27.8299ZM50.1232 9.62739L53.3252 3.78051C53.3708 3.70706 53.4012 3.62506 53.414 3.53952C53.4268 3.45399 53.4224 3.3667 53.4004 3.28299C53.3788 3.19928 53.34 3.12091 53.2868 3.05265C53.2336 2.98439 53.1672 2.92767 53.0912 2.88597C53.0156 2.84426 52.932 2.81844 52.846 2.81007C52.76 2.8017 52.6728 2.81097 52.5904 2.83731C52.508 2.86364 52.432 2.90649 52.3664 2.96324C52.3012 3.01999 52.2484 3.08945 52.2108 3.16738L48.9756 9.07363C46.2544 7.86487 43.2076 7.18551 39.9869 7.18863C36.7731 7.18551 33.7319 7.86239 31.0187 9.06675L27.7806 3.17363C27.7411 3.09998 27.6873 3.03492 27.6225 2.98224C27.5576 2.92955 27.4829 2.89029 27.4027 2.86674C27.3225 2.84319 27.2384 2.83581 27.1553 2.84504C27.0722 2.85427 26.9918 2.87993 26.9187 2.92051C26.6081 3.08676 26.4937 3.47738 26.6669 3.78238L29.87 9.62487C23.5763 12.8712 19.3237 19.0524 19.3275 26.1493L60.6512 26.1443C60.6532 19.0499 56.408 12.8812 50.1232 9.62739ZM30.5881 18.663C30.1285 18.6628 29.6879 18.48 29.3631 18.1548C29.0383 17.8297 28.856 17.3888 28.8563 16.9293C28.8565 16.4697 29.0393 16.029 29.3645 15.7042C29.6896 15.3795 30.1304 15.1972 30.59 15.1974C31.0496 15.1982 31.4902 15.3811 31.8153 15.7061C32.1403 16.031 32.3234 16.4715 32.3244 16.9312C32.3237 17.391 32.1404 17.8318 31.8149 18.1566C31.4893 18.4813 31.048 18.6635 30.5881 18.663ZM49.4052 18.6593C49.1776 18.6597 48.952 18.6152 48.7416 18.5283C48.5312 18.4414 48.3404 18.3139 48.1792 18.153C48.0184 17.9921 47.8908 17.801 47.8036 17.5907C47.7168 17.3804 47.672 17.155 47.6724 16.9274C47.674 16.468 47.8572 16.0278 48.1816 15.7026C48.5064 15.3774 48.9464 15.1936 49.4056 15.1912C49.8644 15.1949 50.3032 15.3794 50.6268 15.7045C50.9508 16.0296 51.1332 16.4692 51.1352 16.928C51.1352 17.1553 51.0904 17.3804 51.0036 17.5904C50.9168 17.8004 50.7892 17.9912 50.6284 18.1519C50.468 18.3127 50.2772 18.4402 50.0672 18.5273C49.8572 18.6144 49.6324 18.6592 49.4052 18.6593ZM32.32 78.85C28.8619 78.8492 26.0475 76.0368 26.0469 72.576L26.0456 64.0968L24.3969 64.0988C23.5321 64.1016 22.6753 63.9328 21.8762 63.6024C21.0772 63.2715 20.3517 62.7856 19.7419 62.1724C19.1278 61.5628 18.6412 60.8368 18.3104 60.0372C17.9796 59.2376 17.8112 58.3804 17.815 57.5148L17.8087 27.748V26.0599H19.4956L60.51 26.0536L62.1976 26.0524V27.7393L62.202 57.5099C62.2024 61.1404 59.2488 64.0947 55.6192 64.0943L53.9608 64.0956L53.9624 72.572C53.9624 76.0303 51.1488 78.846 47.692 78.846C46.8676 78.85 46.0508 78.6896 45.2892 78.3744C44.5276 78.0596 43.8364 77.5956 43.2556 77.0104C42.67 76.4304 42.2056 75.7392 41.8896 74.978C41.5732 74.2168 41.4116 73.3999 41.4136 72.5756V64.0956H38.5944V72.5736C38.5931 76.0332 35.78 78.8503 32.32 78.85Z" fill="white"/>
<path d="M19.5036 57.5144C19.5022 58.1576 19.6278 58.7952 19.8732 59.3896C20.1187 59.9844 20.4791 60.5248 20.9338 60.9796C21.3885 61.4348 21.9286 61.7956 22.523 62.0416C23.1175 62.2872 23.7547 62.4136 24.398 62.4124H27.7311L27.7349 72.5776C27.7342 75.1088 29.7905 77.1656 32.3192 77.1664C32.9219 77.166 33.5187 77.0468 34.0753 76.816C34.6321 76.5848 35.1378 76.2464 35.5637 75.82C35.9895 75.3936 36.3273 74.8876 36.5575 74.3304C36.7877 73.7736 36.906 73.1764 36.9055 72.574L36.9061 62.412L43.0992 62.41L43.0988 72.5744C43.1012 75.1064 45.16 77.1656 47.688 77.1608C50.2228 77.1624 52.278 75.1032 52.2772 72.5708L52.2744 62.4088L55.62 62.4084C58.3192 62.4088 60.5148 60.2156 60.5148 57.51L60.5092 27.7382L19.4961 27.7457L19.5036 57.5144ZM66.8728 56.9456C63.4128 56.9464 60.5988 54.1344 60.5992 50.6732L60.5944 31.4619C60.5956 28.0013 63.4056 25.1863 66.8636 25.1863C70.326 25.1857 73.1424 28 73.1416 31.46L73.1436 50.67C73.1444 54.1288 70.3324 56.9464 66.8728 56.9456ZM66.8668 26.8732C64.3336 26.8707 62.2812 28.9275 62.2812 31.4619L62.2828 50.6724C62.2828 51.2752 62.4012 51.872 62.6316 52.4288C62.862 52.9856 63.2 53.4916 63.6264 53.9176C64.0524 54.3436 64.5584 54.6816 65.1156 54.912C65.6724 55.1424 66.2692 55.2604 66.8716 55.26C67.4744 55.26 68.0708 55.1412 68.6276 54.9108C69.184 54.68 69.69 54.342 70.116 53.9156C70.5416 53.4896 70.8796 52.9836 71.1096 52.4268C71.34 51.87 71.4584 51.2732 71.458 50.6708L71.4528 31.4607C71.4536 30.8582 71.3352 30.2616 71.1048 29.7049C70.8744 29.1482 70.5368 28.6424 70.1108 28.2163C69.6848 27.7903 69.1792 27.4524 68.6224 27.2219C68.0656 26.9914 67.4692 26.8729 66.8668 26.8732Z" fill="white"/>
<path d="M13.1279 26.8785C10.5948 26.8772 8.54162 28.9354 8.54102 31.4666L8.54414 50.6764C8.54374 51.2792 8.66214 51.8764 8.89258 52.4332C9.12306 52.99 9.46102 53.4964 9.88718 53.9224C10.3134 54.3488 10.8194 54.6868 11.3763 54.9172C11.9332 55.148 12.5301 55.2664 13.1329 55.266C13.7355 55.2668 14.3324 55.1484 14.8893 54.918C15.4462 54.6876 15.9522 54.3496 16.3782 53.9232C16.8043 53.4972 17.142 52.9908 17.3721 52.434C17.6022 51.8768 17.7201 51.28 17.7191 50.6772V31.4641C17.7178 30.2474 17.2335 29.0809 16.3726 28.221C15.5117 27.3612 14.3447 26.8783 13.1279 26.8785ZM50.1228 9.62724L53.3248 3.78035C53.4064 3.63202 53.4256 3.45741 53.3788 3.29479C53.332 3.13217 53.2224 2.99482 53.074 2.91285C52.9256 2.8326 52.7516 2.8143 52.59 2.86196C52.428 2.90962 52.2916 3.01936 52.2104 3.16722L48.976 9.07536C46.2548 7.86408 43.2092 7.18536 39.9866 7.18848C36.7729 7.18536 33.7285 7.86224 31.0185 9.0666L27.7804 3.17347C27.7409 3.09991 27.6871 3.03493 27.6223 2.98228C27.5575 2.92963 27.4829 2.89037 27.4027 2.86677C27.3227 2.84317 27.2387 2.8357 27.1556 2.84479C27.0726 2.85388 26.9922 2.87935 26.9191 2.91972C26.8453 2.95917 26.7801 3.01294 26.7274 3.07788C26.6746 3.14283 26.6353 3.21764 26.6118 3.29796C26.5883 3.37827 26.581 3.46246 26.5904 3.54562C26.5999 3.62876 26.6258 3.7092 26.6666 3.78222L29.8698 9.62536C23.576 12.871 19.3235 19.0522 19.3273 26.1491L60.6512 26.1441C60.6528 19.0497 56.408 12.881 50.1228 9.62724ZM30.5879 18.6628C30.1283 18.6626 29.6877 18.4798 29.3629 18.1546C29.0381 17.8295 28.8558 17.3887 28.856 16.9291C28.8563 16.4695 29.0391 16.0289 29.3642 15.7041C29.6893 15.3793 30.1302 15.197 30.5898 15.1972C31.0494 15.198 31.4899 15.381 31.815 15.7059C32.1401 16.0308 32.3231 16.4714 32.3241 16.931C32.3235 17.3908 32.1402 17.8316 31.8146 18.1564C31.489 18.4812 31.0478 18.6634 30.5879 18.6628ZM49.4048 18.6591C49.1772 18.6593 48.952 18.6146 48.7416 18.5276C48.5316 18.4406 48.3404 18.3131 48.1796 18.1522C48.0188 17.9914 47.8912 17.8004 47.804 17.5902C47.7168 17.38 47.6724 17.1547 47.6724 16.9272C47.6748 16.468 47.858 16.0283 48.1824 15.7033C48.5068 15.3783 48.9464 15.1942 49.4056 15.191C49.864 15.1948 50.3032 15.3792 50.6268 15.7043C50.9504 16.0294 51.1328 16.469 51.1348 16.9278C51.1352 17.1552 51.0904 17.3803 51.0036 17.5904C50.9168 17.8004 50.7892 17.9914 50.6288 18.1521C50.468 18.3129 50.2772 18.4405 50.0672 18.5274C49.8572 18.6144 49.632 18.6592 49.4048 18.6591ZM19.496 27.7454L19.5029 57.5172C19.5021 58.1604 19.6283 58.7972 19.874 59.3912C20.1197 59.9856 20.4803 60.5252 20.935 60.98C21.3897 61.4344 21.9296 61.7952 22.5238 62.0408C23.1181 62.2864 23.7549 62.4124 24.3979 62.4116L27.731 62.4128L27.7348 72.578C27.7341 75.1092 29.7916 77.1668 32.3191 77.1668C34.8541 77.1668 36.9079 75.1072 36.9085 72.5748L36.906 62.4124L43.0992 62.4104L43.1016 72.5748C43.1016 75.104 45.1596 77.166 47.688 77.1608C50.2228 77.1628 52.278 75.1036 52.2772 72.5708L52.274 62.4092L55.6192 62.4064C56.2624 62.4068 56.8992 62.28 57.4932 62.034C58.0872 61.788 58.6272 61.4276 59.082 60.9728C59.5368 60.518 59.8976 59.9784 60.1436 59.3844C60.39 58.79 60.5164 58.1536 60.5168 57.5104L60.5112 27.7385L19.496 27.7454ZM71.4548 31.4597C71.4548 30.8572 71.3364 30.2606 71.1056 29.704C70.8752 29.1474 70.5372 28.6416 70.1112 28.2157C69.6848 27.7897 69.1792 27.4519 68.6224 27.2215C68.0656 26.9911 67.4692 26.8726 66.8668 26.8728C64.3336 26.8704 62.2812 28.9272 62.2812 31.4616L62.2848 50.6728C62.2844 51.2752 62.4028 51.872 62.6332 52.4288C62.8636 52.9852 63.2012 53.4912 63.6272 53.9172C64.0532 54.3432 64.5592 54.6812 65.116 54.9116C65.6724 55.1416 66.2692 55.26 66.8716 55.2596C67.4744 55.26 68.0708 55.1412 68.6276 54.9104C69.1844 54.68 69.69 54.3416 70.116 53.9156C70.542 53.4892 70.8796 52.9832 71.11 52.4264C71.34 51.8696 71.4584 51.2728 71.458 50.6704L71.4548 31.4597Z" fill="#A4C439"/>
</svg>
