<svg width="80" height="80" viewBox="0 0 80 80" fill="none" xmlns="http://www.w3.org/2000/svg">
<path d="M61.9596 75.9976C57.6988 80.128 53.0468 79.476 48.5688 77.5192C43.8296 75.5196 39.482 75.4324 34.4822 77.5192C28.2215 80.2148 24.9173 79.4324 21.1783 75.9976C-0.0383563 54.1288 3.09197 20.8257 27.1781 19.6084C33.0474 19.9127 37.1342 22.8256 40.5688 23.0865C45.6992 22.043 50.612 19.0432 56.09 19.4344C62.6552 19.9562 67.6116 22.5648 70.872 27.2602C57.3076 35.3904 60.5248 53.2592 72.9592 58.2592C70.4808 64.7808 67.2636 71.2588 61.916 76.0412L61.9596 75.9976ZM40.134 19.3475C39.482 9.65219 47.3512 1.65246 56.3944 0.869873C57.6552 12.0869 46.2208 20.4344 40.134 19.3475Z" fill="white"/>
</svg>
