<svg width="80" height="80" viewBox="0 0 80 80" fill="none" xmlns="http://www.w3.org/2000/svg">
<path fill-rule="evenodd" clip-rule="evenodd" d="M72.6356 30.5195C69.3884 30.5195 67.554 31.1465 66.5008 32.6157C65.4004 34.1502 65.1792 36.5725 65.1792 39.9841C65.1792 46.6812 66.2152 49.4808 72.6356 49.4808C73.4068 49.4808 76.0428 49.466 77.5816 49.2784C78.1804 49.1792 78.4484 48.7204 78.4484 48.3104V47.5708C78.4484 46.9952 78.0136 46.5608 77.4364 46.5608H72.6352C69.0128 46.5608 68.3596 45.7068 68.2668 40.8524V39.2809C68.2976 34.3132 68.9508 33.4397 72.6356 33.4397C76.0332 33.4397 76.6848 34.2149 76.7976 38.5883H71.3988V41.5408H78.4996C79.8984 41.5408 79.8984 40.5628 79.8984 40.2416V39.2989C79.7968 32.4887 78.1676 30.5195 72.6356 30.5195ZM63.2856 30.7799L63.2084 30.7595C62.5472 30.6205 60.74 30.5195 59.844 30.5195C56.6732 30.5195 54.9976 31.8471 54.9976 34.3587V48.3424C54.9976 48.918 55.4004 49.32 55.9776 49.32H57.1052C57.6824 49.32 58.0852 48.918 58.0852 48.3424V34.6154C58.0852 33.9956 58.242 33.4397 60.134 33.4397L62.9356 33.4373C63.21 33.47 63.4716 33.3942 63.6732 33.2234C63.8932 33.038 64.0144 32.7673 64.0144 32.462V31.7545C64.0144 31.2903 63.7484 30.935 63.2856 30.7799ZM49.7444 30.7448H48.6164C48.0396 30.7448 47.6364 31.1467 47.6364 31.7225V46.5608H42.946C40.0444 46.5608 38.8674 46.3764 38.8674 41.752V31.7225C38.8674 31.147 38.4643 30.7448 37.8873 30.7448H36.7914C36.2144 30.7448 35.7793 31.165 35.7793 31.7225V41.752C35.7793 48.3244 38.163 49.4808 43.1712 49.4808C44.9732 49.4808 47.4408 49.4808 49.7936 49.1496L49.8484 49.1384C50.4296 48.9932 50.7244 48.6608 50.7244 48.1496V31.7225C50.7244 31.147 50.3212 30.7448 49.7444 30.7448Z" fill="#FBFBFB"/>
<path fill-rule="evenodd" clip-rule="evenodd" d="M32.3013 31.2039C32.1565 30.896 31.846 30.7124 31.4709 30.7124H30.0211C29.6 30.7124 29.2852 30.882 29.1194 31.1873L26.9707 34.3268L28.8518 36.8992L32.1359 32.1882C32.4964 31.7503 32.3716 31.3538 32.3013 31.2039Z" fill="#74BB11"/>
<path fill-rule="evenodd" clip-rule="evenodd" d="M20.9728 31.1515L20.9709 31.1487C20.6434 30.7122 20.2076 30.7122 20.0642 30.7122H18.6462C18.2829 30.7122 17.9854 30.8791 17.83 31.1698C17.6702 31.4675 17.704 31.8251 17.9252 32.1565L23.1784 39.4387L17.1377 47.864C16.9267 48.1808 16.8971 48.5328 17.0565 48.8304C17.2128 49.1212 17.5105 49.2876 17.8732 49.2876H19.3227C19.6955 49.2876 20.0233 49.094 20.1872 48.7892L26.9486 39.4723L20.9728 31.1515Z" fill="#009CD9"/>
<path fill-rule="evenodd" clip-rule="evenodd" d="M33.0214 47.9377L28.807 42.1541L26.9531 44.7097L30.2861 49.1581L30.3728 49.1957C30.505 49.2553 30.6482 49.2865 30.7932 49.2877H32.2107C32.5532 49.2877 32.8438 49.1357 33.0084 48.8697C33.1771 48.5977 33.1818 48.2581 33.0214 47.9377Z" fill="#EB2084"/>
<path fill-rule="evenodd" clip-rule="evenodd" d="M11.5624 41.4119V46.3235C10.127 46.5439 7.93928 46.5927 7.19368 46.5927C3.89529 46.5927 3.53385 45.6915 3.53385 43.7775C3.53385 41.9863 4.20416 41.4115 6.29152 41.4115L11.5624 41.4119ZM7.0326 30.519C6.01344 30.519 4.6236 30.5456 2.89436 30.7535L2.8162 30.7708C2.31242 30.9141 2.05733 31.245 2.05733 31.7542V32.4614C2.05733 33.0644 2.43273 33.4392 3.03718 33.4392H7.03284C10.25 33.4392 11.5624 34.3108 11.5624 36.4474V38.5238H6.29152C2.17196 38.5238 0.414062 40.0951 0.414062 43.7771C0.414062 47.8815 2.23355 49.4807 6.90376 49.4807C8.79548 49.4807 12.2776 49.3335 13.5647 48.9411C14.65 48.6399 14.65 47.8107 14.65 47.5383V36.2548C14.65 32.3954 12.158 30.519 7.0326 30.519Z" fill="#FBFBFB"/>
</svg>
