<svg width="60" height="80" viewBox="0 0 60 80" fill="none" xmlns="http://www.w3.org/2000/svg">
<g clip-path="url(#clip0_263_1124)">
<path d="M59.724 21.334H0.333984V80H59.724V21.334Z" fill="#2149F3"/>
<path d="M59.724 71.9995H0.333984V79.9991H59.724V71.9995Z" fill="#000311"/>
<path d="M48.9272 20.2954V34.0762C48.9272 35.8751 47.5208 37.3334 45.786 37.3334C44.0512 37.3334 42.6448 35.8751 42.6448 34.0762V20.2954C42.6448 12.6844 36.6948 6.51456 29.3552 6.51456C22.0155 6.51456 16.0656 12.6844 16.0656 20.2954V34.0762C16.0656 35.8751 14.6592 37.3334 12.9244 37.3334C11.1896 37.3334 9.7832 35.8751 9.7832 34.0762V20.2954C9.7832 9.08656 18.5458 0 29.3552 0C40.1644 0 48.9272 9.08656 48.9272 20.2954Z" fill="#000311"/>
</g>
<defs>
<clipPath id="clip0_263_1124">
<rect width="60" height="80" fill="white"/>
</clipPath>
</defs>
</svg>
