<svg width="76" height="60" viewBox="0 0 76 60" fill="none" xmlns="http://www.w3.org/2000/svg">
<path d="M16.1436 0C11.846 0 8.66577 3.76156 8.80817 7.84089C8.94498 11.7599 8.76727 16.8359 7.48949 20.9752C6.20789 25.1267 4.04011 27.7563 0.499512 28.0941V31.9059C4.04011 32.2437 6.20789 34.8735 7.48949 39.0251C8.76727 43.1644 8.94498 48.2399 8.80817 52.1591C8.66577 56.2379 11.8459 60 16.1442 60H60.1804C64.4782 60 67.6576 56.2386 67.5151 52.1591C67.3787 48.2403 67.556 43.1644 68.8338 39.0251C70.1163 34.8737 72.2782 32.2435 75.8188 31.9059V28.0941C72.2782 27.7563 70.1163 25.1267 68.8341 20.9752C67.556 16.8365 67.3787 11.7601 67.5151 7.84089C67.6576 3.76215 64.4782 0 60.1804 0H16.1436ZM51.5636 36.9338C51.5636 42.551 47.374 45.9575 40.4211 45.9575H28.5848C28.2463 45.9573 27.9216 45.8228 27.6822 45.5834C27.443 45.344 27.3085 45.0194 27.3085 44.6808V15.3192C27.3084 15.1516 27.3414 14.9856 27.4056 14.8306C27.4697 14.6757 27.5637 14.5349 27.6822 14.4164C27.8009 14.2978 27.9416 14.2037 28.0965 14.1396C28.2514 14.0753 28.4174 14.0423 28.5851 14.0423H40.3535C46.1509 14.0423 49.9558 17.1831 49.9558 22.0047C49.9558 25.389 47.3961 28.4189 44.1352 28.9494V29.1262C48.5747 29.6132 51.5636 32.6873 51.5636 36.9338ZM39.13 18.0893H32.3817V27.6219H38.0659C42.4598 27.6219 44.8829 25.8525 44.8829 22.6897C44.8829 19.726 42.799 18.0893 39.13 18.0893ZM32.3819 31.4043V41.9093H39.379C43.9535 41.9093 46.3773 40.0737 46.3773 36.6237C46.3773 33.1732 43.8861 31.4038 39.0847 31.4038L32.3819 31.4043Z" fill="#7E13F8"/>
</svg>
