<svg width="81" height="80" viewBox="0 0 81 80" fill="none" xmlns="http://www.w3.org/2000/svg">
<path d="M28.3813 79.774C23.2616 77.512 19.7829 72.6388 19.3264 67.058C19.4743 64.2288 20.2897 61.4752 21.7056 59.0216C23.1216 56.568 25.0981 54.4844 27.4735 52.9408C26.6831 54.8684 26.875 57.0628 27.9722 58.826C28.5822 59.6796 29.4274 60.3372 30.4047 60.7184C31.3821 61.0996 32.4492 61.188 33.476 60.9728C36.4735 60.13 38.2292 57.018 37.3864 54.018C37.0867 52.9656 36.4912 52.0212 35.6707 51.2972C34.0028 49.9404 32.7133 48.1756 31.9269 46.1744C31.1405 44.1732 30.8839 42.0028 31.1818 39.8734C31.7657 37.571 33.0365 35.5009 34.8254 33.9382C33.4785 37.5294 37.2768 41.0728 39.8254 42.816C44.3484 45.5304 48.7056 48.5124 52.8728 51.7464C57.4288 55.3376 59.9128 60.9584 59.524 66.7092C58.4988 72.8288 54.1696 77.8812 48.2692 79.7764C60.0724 77.1508 72.242 67.774 72.474 54.4748C72.242 43.8336 65.8904 34.2848 56.182 29.9357H55.7508C55.9668 30.4576 56.0688 31.0196 56.05 31.584C56.0824 31.219 56.0824 30.8518 56.05 30.4868C56.1024 30.9175 56.1024 31.3529 56.05 31.7836C55.3116 34.8086 52.2592 36.6714 49.2268 35.9332C48.0152 35.6339 46.9328 34.9534 46.1544 33.9706C42.264 28.9833 46.1544 23.3074 46.8052 17.8208C47.0028 14.376 46.3284 10.937 44.844 7.82208C43.36 4.70712 41.114 2.0168 38.3145 0C41.16 4.74328 37.3692 10.9726 34.6135 14.5164C31.853 18.06 27.8629 20.701 24.6109 23.7932C21.1071 27.0526 17.8953 30.6362 15.0125 34.4666C8.7803 42.0804 6.33398 52.1228 8.36134 61.7488C11.1421 71.0256 18.8527 77.9956 28.3616 79.8036H28.414L28.3813 79.774Z" fill="#DD4814"/>
</svg>
