<svg width="43" height="60" viewBox="0 0 43 60" fill="none" xmlns="http://www.w3.org/2000/svg">
<path d="M21.4663 60.0001L4.10679 55.1809L0.238281 11.7915H42.7462L38.8737 55.1742L21.4663 60.0001Z" fill="#264DE4"/>
<path d="M35.5563 52.4117L38.8654 15.3391H21.4902V56.3113L35.5563 52.4117Z" fill="#2965F1"/>
<path d="M9.11084 31.4316L9.58774 36.7532H21.4963V31.4316H9.11084ZM8.15234 20.6608L8.63614 25.9823H21.4963V20.6608H8.15234ZM21.4963 45.2523L21.4729 45.2584L15.5464 43.6581L15.1675 39.414H9.82544L10.5709 47.7696L21.4718 50.7956L21.4963 50.7889V45.2523Z" fill="#EBEBEB"/>
<path d="M10.248 0H16.6931V2.69534H12.9433V5.39068H16.6934V8.08586H10.248V0ZM17.9823 0H24.4275V2.34376H20.6776V2.81248H24.4275V8.20316H17.9824V5.74193H21.7324V5.27321H17.9821L17.9823 0ZM25.7167 0H32.162V2.34376H28.4121V2.81248H32.162V8.20316H25.7167V5.74193H29.4666V5.27321H25.7169L25.7167 0Z" fill="#FBFBFB"/>
<path d="M33.8445 31.4317L34.8051 20.6609H21.4747V25.9824H28.9732L28.489 31.4317H21.4747V36.7533H28.0276L27.4098 43.6549L21.4746 45.2569V50.7932L32.3841 47.7697L32.464 46.8706L33.7147 32.8607L33.8445 31.4317Z" fill="#FBFBFB"/>
</svg>
