<svg width="30" height="30" viewBox="0 0 30 30" fill="none" xmlns="http://www.w3.org/2000/svg">
<g clip-path="url(#clip0_2401_29648)">
<path d="M10.24 29.2803C12.8675 29.2803 15 27.1477 15 24.5202V19.7603H10.24C7.61246 19.7603 5.47998 21.8927 5.47998 24.5202C5.47998 27.1477 7.61246 29.2803 10.24 29.2803Z" fill="#0ACF83"/>
<path d="M5.47998 15.0002C5.47998 12.3727 7.61246 10.2402 10.24 10.2402H15V19.7603H10.24C7.61246 19.7603 5.47998 17.6277 5.47998 15.0002Z" fill="#A259FF"/>
<path d="M5.47998 5.48021C5.47998 2.85269 7.61246 0.720215 10.24 0.720215H15V10.2402H10.24C7.61246 10.2402 5.47998 8.10773 5.47998 5.48021Z" fill="#F24E1E"/>
<path d="M15 0.720215H19.76C22.3875 0.720215 24.52 2.85269 24.52 5.48021C24.52 8.10773 22.3875 10.2402 19.76 10.2402H15V0.720215Z" fill="#FF7262"/>
<path d="M24.52 15.0002C24.52 17.6277 22.3875 19.7603 19.76 19.7603C17.1324 19.7603 15 17.6277 15 15.0002C15 12.3727 17.1324 10.2402 19.76 10.2402C22.3875 10.2402 24.52 12.3727 24.52 15.0002Z" fill="#1ABCFE"/>
</g>
<defs>
<clipPath id="clip0_2401_29648">
<rect width="28.56" height="28.56" fill="white" transform="translate(0.720215 0.720215)"/>
</clipPath>
</defs>
</svg>
