<svg width="80" height="80" viewBox="0 0 80 80" fill="none" xmlns="http://www.w3.org/2000/svg">
<g clip-path="url(#clip0_263_1118)">
<path d="M26.6673 80.0001C34.0273 80.0001 40.0007 74.0265 40.0007 66.6665V53.3333H26.6673C19.3073 53.3333 13.334 59.3065 13.334 66.6665C13.334 74.0265 19.3073 80.0001 26.6673 80.0001Z" fill="#0ACF83"/>
<path d="M13.334 39.9999C13.334 32.6401 19.3073 26.6667 26.6673 26.6667H40.0007V53.3335H26.6673C19.3073 53.3335 13.334 47.3599 13.334 39.9999Z" fill="#A259FF"/>
<path d="M13.334 13.3333C13.334 5.97332 19.3073 0 26.6673 0H40.0007V26.6667H26.6673C19.3073 26.6667 13.334 20.6933 13.334 13.3333Z" fill="#F24E1E"/>
<path d="M40 0H53.3332C60.6932 0 66.6668 5.97332 66.6668 13.3333C66.6668 20.6933 60.6932 26.6667 53.3332 26.6667H40V0Z" fill="#FF7262"/>
<path d="M66.6668 39.9999C66.6668 47.3599 60.6932 53.3335 53.3332 53.3335C45.9732 53.3335 40 47.3599 40 39.9999C40 32.6401 45.9732 26.6667 53.3332 26.6667C60.6932 26.6667 66.6668 32.6401 66.6668 39.9999Z" fill="#1ABCFE"/>
</g>
<defs>
<clipPath id="clip0_263_1118">
<rect width="80" height="80" fill="white"/>
</clipPath>
</defs>
</svg>
