<svg width="81" height="80" viewBox="0 0 81 80" fill="none" xmlns="http://www.w3.org/2000/svg">
<mask id="mask0_263_1166" style="mask-type:luminance" maskUnits="userSpaceOnUse" x="0" y="0" width="81" height="80">
<path d="M80.2246 0H0.224609V80H80.2246V0Z" fill="white"/>
</mask>
<g mask="url(#mask0_263_1166)">
<path d="M10.9609 63.8343L11.4475 63.1571L34.4567 19.7351L34.5053 19.2753L24.3626 0.326739C23.5124 -1.2605 21.1199 -0.85913 20.8413 0.917734L10.9609 63.8343Z" fill="#FFC24A"/>
<path d="M11.248 63.3183L11.6158 62.6047L34.3842 19.6375L24.2665 0.611919C23.4257 -0.958681 21.2903 -0.558225 21.0144 1.19995L11.248 63.3183Z" fill="#FFA712"/>
<g filter="url(#filter0_i_263_1166)">
<path d="M11.248 63.3183L11.6158 62.6047L34.3842 19.6375L24.2665 0.611919C23.4257 -0.958681 21.2903 -0.558225 21.0144 1.19995L11.248 63.3183Z" fill="black"/>
</g>
<path d="M41.8992 33.6074L49.4512 25.9151L41.8968 11.5721C41.1796 10.2143 39.1774 10.2103 38.4679 11.5721L34.4316 19.2272V19.8791L41.8992 33.6074Z" fill="#F4BD62"/>
<path d="M41.7656 33.2885L49.1076 25.81L41.7656 11.9052C41.0684 10.5853 39.3745 10.447 38.6847 11.7708L34.6273 19.5449L34.5059 19.9424L41.7656 33.2885Z" fill="#FFA50E"/>
<g filter="url(#filter1_i_263_1166)">
<path d="M41.7656 33.2885L49.1076 25.81L41.7656 11.9052C41.0684 10.5853 39.3745 10.447 38.6847 11.7708L34.6273 19.5449L34.5059 19.9424L41.7656 33.2885Z" fill="black"/>
</g>
<path d="M10.9609 63.8344L11.1814 63.6136L11.9826 63.29L41.4252 34.1162L41.7984 33.1063L34.4535 19.1863L10.9609 63.8344Z" fill="#F6820C"/>
<path d="M42.8428 78.5468L69.4892 63.7668L61.88 17.1581C61.642 15.6999 59.8432 15.1235 58.7936 16.1689L10.9609 63.8336L37.4545 78.5456C38.2779 79.0028 39.2054 79.2428 40.1484 79.2432C41.0916 79.2432 42.0192 79.0036 42.8428 78.5468Z" fill="#FDE068"/>
<path d="M69.2496 63.6432L61.698 17.3886C61.462 15.9412 59.966 15.3425 58.9244 16.3802L11.2559 63.7436L37.4585 78.3092C38.2757 78.7632 39.1961 79.0016 40.132 79.0016C41.068 79.002 41.9884 78.764 42.806 78.3108L69.2496 63.6432Z" fill="#FCCA3F"/>
<path d="M42.8424 78.111C42.0188 78.5678 41.0912 78.8078 40.148 78.8074C39.2051 78.8074 38.2777 78.567 37.4542 78.1098L11.1741 63.6098L10.9609 63.8338L37.4542 78.5454C38.2777 79.0026 39.2051 79.243 40.1484 79.243C41.0916 79.2434 42.0188 79.0034 42.8428 78.5466L69.4888 63.7666L69.4236 63.3674L42.8424 78.111Z" fill="#EEAB37"/>
</g>
<defs>
<filter id="filter0_i_263_1166" x="11.248" y="-0.369629" width="23.1367" height="63.688" filterUnits="userSpaceOnUse" color-interpolation-filters="sRGB">
<feFlood flood-opacity="0" result="BackgroundImageFix"/>
<feBlend mode="normal" in="SourceGraphic" in2="BackgroundImageFix" result="shape"/>
<feColorMatrix in="SourceAlpha" type="matrix" values="0 0 0 0 0 0 0 0 0 0 0 0 0 0 0 0 0 0 127 0" result="hardAlpha"/>
<feOffset/>
<feGaussianBlur stdDeviation="58.3333"/>
<feComposite in2="hardAlpha" operator="arithmetic" k2="-1" k3="1"/>
<feColorMatrix type="matrix" values="0 0 0 0 0 0 0 0 0 0 0 0 0 0 0 0 0 0 0.06 0"/>
<feBlend mode="normal" in2="shape" result="effect1_innerShadow_263_1166"/>
</filter>
<filter id="filter1_i_263_1166" x="34.5059" y="-12.4894" width="17.9349" height="45.778" filterUnits="userSpaceOnUse" color-interpolation-filters="sRGB">
<feFlood flood-opacity="0" result="BackgroundImageFix"/>
<feBlend mode="normal" in="SourceGraphic" in2="BackgroundImageFix" result="shape"/>
<feColorMatrix in="SourceAlpha" type="matrix" values="0 0 0 0 0 0 0 0 0 0 0 0 0 0 0 0 0 0 127 0" result="hardAlpha"/>
<feOffset dx="3.33333" dy="-30"/>
<feGaussianBlur stdDeviation="11.6667"/>
<feComposite in2="hardAlpha" operator="arithmetic" k2="-1" k3="1"/>
<feColorMatrix type="matrix" values="0 0 0 0 0 0 0 0 0 0 0 0 0 0 0 0 0 0 0.09 0"/>
<feBlend mode="normal" in2="shape" result="effect1_innerShadow_263_1166"/>
</filter>
</defs>
</svg>
