<svg width="43" height="60" viewBox="0 0 43 60" fill="none" xmlns="http://www.w3.org/2000/svg">
<path d="M42.4595 11.7915L38.6369 55.1742L21.4538 60L4.31825 55.1808L0.499512 11.7915H42.4595Z" fill="#E44D26"/>
<path d="M21.4839 56.3112L35.3687 52.4117L38.6351 15.3391H21.4839V56.3112Z" fill="#F16529"/>
<path d="M14.0488 25.9823H21.48V20.6608H8.30811L8.43372 22.0884L9.72489 36.7531H21.48V31.4316H14.5289L14.0488 25.9823ZM15.2328 39.414H9.95958L10.6954 47.7697L21.4558 50.7956L21.48 50.7889V45.2522L21.4569 45.2584L15.6067 43.6582L15.2328 39.414Z" fill="#EBEBEB"/>
<path d="M4.40771 -3.05176e-05H7.07716V2.67182H9.51913V-3.05176e-05H12.1888V8.09099H9.51933V5.38166H7.07726V8.09099H4.40782L4.40771 -3.05176e-05ZM15.699 2.68315H13.3493V-3.05176e-05H20.7202V2.68315H18.3691V8.09099H15.6995L15.699 2.68315ZM21.8901 -3.05176e-05H24.6735L26.3857 2.84294L28.0963 -3.05176e-05H30.8809V8.09099H28.2223V4.08064L26.3857 6.95744H26.3396L24.502 4.08064V8.09099H21.8901V-3.05176e-05ZM32.2094 -3.05176e-05H34.8797V5.41665H38.6337V8.09099H32.2093L32.2094 -3.05176e-05Z" fill="#FBFBFB"/>
<path d="M21.4586 36.7531H27.927L27.3172 43.6548L21.4585 45.2567V50.7931L32.2273 47.7697L32.3063 46.8705L33.5408 32.8606L33.6689 31.4316H21.4586V36.7531ZM21.4586 25.9693V25.9823H34.147L34.2522 24.7862L34.4917 22.0884L34.6172 20.6608H21.4586V25.9693Z" fill="#FBFBFB"/>
</svg>
