<svg width="122" height="122" viewBox="0 0 122 122" fill="none" xmlns="http://www.w3.org/2000/svg">
<g clip-path="url(#clip0_2401_22853)">
<path d="M0 61C0 27.3106 27.3106 0 61 0C94.6894 0 122 27.3106 122 61C122 94.6894 94.6894 122 61 122C27.3106 122 0 94.6894 0 61Z" fill="#1B1B1B" style="mix-blend-mode:luminosity"/>
<rect width="122" height="122" rx="61" fill="#1B1B1B"/>
<path d="M34 62.175C34.2565 47.441 44.6095 36.9515 57.283 35.2537C72.4016 33.2382 85.1189 43.4822 87.5624 57.0715C89.8828 69.9597 82.7715 82.0243 71.0465 86.8051C70.0357 87.2152 69.4822 86.9883 69.0957 85.9646L63.2687 70.8876C62.9362 70.0018 63.1623 69.4504 64.0331 69.0587C66.6707 67.8669 68.3127 65.8715 68.7531 63.0071C69.4467 58.5692 66.2218 54.4726 61.7313 54.086C57.6424 53.691 53.9534 56.5285 53.2936 60.5629C52.7215 64.1451 54.4968 67.4802 57.8449 68.9948C58.8912 69.4672 59.1021 69.9311 58.6971 70.9919L52.843 86.173C52.5612 86.9177 51.947 87.1816 51.1555 86.874C44.9774 84.4668 39.9047 79.8693 36.9178 73.9689C34.2025 68.6284 34.1772 64.4528 34 62.1666V62.175ZM36.2765 61.9665C36.3221 62.6843 36.3457 63.5148 36.4182 64.3653C37.1017 72.1652 41.8133 79.9314 50.6813 84.2298C51.034 84.3861 51.1656 84.3172 51.2973 83.986C52.9156 79.7381 54.5491 75.4936 56.1928 71.2457C56.3329 70.896 56.262 70.7296 55.9363 70.5279C52.492 68.3645 50.7775 65.2647 50.9699 61.195C51.0762 58.8567 51.9824 56.7991 53.5636 55.0828C56.8239 51.5376 61.9473 50.766 66.1408 53.1749C69.6037 55.1702 71.5359 59.0315 71.0617 62.9903C70.6651 66.2985 68.9624 68.8385 66.0784 70.5548C65.7881 70.7296 65.7004 70.8692 65.8337 71.2087C67.4858 75.465 69.1295 79.7196 70.7546 83.9759C70.8879 84.3172 71.0195 84.3861 71.3621 84.2197C75.2384 82.4244 78.4632 79.8508 80.9608 76.4198C84.7476 71.1835 86.312 65.3605 85.5644 58.9525C84.0794 46.2038 72.5653 35.6454 57.7386 37.4676C46.1891 38.878 36.4689 48.5874 36.2748 61.9649L36.2765 61.9665Z" fill="#C1CFFF" stroke="#C1CFFF"/>
</g>
<path d="M0.880952 61C0.880952 27.7972 27.7972 0.880952 61 0.880952C94.2028 0.880952 121.119 27.7972 121.119 61C121.119 94.2028 94.2028 121.119 61 121.119C27.7972 121.119 0.880952 94.2028 0.880952 61Z" stroke="url(#paint0_linear_2401_22853)" stroke-opacity="0.25" stroke-width="1.7619"/>
<defs>
<linearGradient id="paint0_linear_2401_22853" x1="61" y1="-1.38443e-06" x2="114.072" y2="133.971" gradientUnits="userSpaceOnUse">
<stop stop-color="white" stop-opacity="0.4"/>
<stop offset="0.4" stop-color="white" stop-opacity="0.01"/>
<stop offset="0.6" stop-color="white" stop-opacity="0.01"/>
<stop offset="1" stop-color="white" stop-opacity="0.1"/>
</linearGradient>
<clipPath id="clip0_2401_22853">
<path d="M0 61C0 27.3106 27.3106 0 61 0C94.6894 0 122 27.3106 122 61C122 94.6894 94.6894 122 61 122C27.3106 122 0 94.6894 0 61Z" fill="white"/>
</clipPath>
</defs>
</svg>
