<svg width="122" height="122" viewBox="0 0 122 122" fill="none" xmlns="http://www.w3.org/2000/svg">
<g clip-path="url(#clip0_2401_22970)">
<path d="M0 61C0 27.3106 27.3106 0 61 0C94.6894 0 122 27.3106 122 61C122 94.6894 94.6894 122 61 122C27.3106 122 0 94.6894 0 61Z" fill="#1B1B1B" style="mix-blend-mode:luminosity"/>
<rect width="122" height="122" rx="61" fill="#1B1B1B"/>
<g clip-path="url(#clip1_2401_22970)">
<path d="M78.457 41.307C76.7767 42.7954 74.7124 44.4009 72.7067 44.808C68.9833 45.5649 64.979 43.8229 61.9033 44.2887C61.7032 44.32 61.5102 44.3564 61.3192 44.3888C60.7938 44.2533 60.2411 44.1401 59.6572 44.0512C59.2358 43.9875 58.8123 43.9612 58.39 43.9612C57.1795 43.9642 55.967 44.1644 54.7677 44.3482C53.5673 44.5341 52.3821 44.7079 51.2636 44.7079C50.6744 44.7079 50.1056 44.6614 49.5601 44.5484C48.8193 44.4009 48.014 44.029 47.2068 43.5087C46.3974 42.9922 45.5891 42.3294 44.8231 41.6525C44.4715 41.3372 44.0725 41.0967 43.652 40.9361C43.2307 40.7765 42.7871 40.7027 42.3536 40.7037C41.6645 40.7037 41.0006 40.8816 40.3752 41.1584C39.8235 41.404 39.2961 41.7293 38.7849 42.1133C37.8886 42.7812 37.0378 43.6309 36.2497 44.5808C35.0696 46.0074 34.0278 47.6616 33.2659 49.2934C32.8851 50.1117 32.5727 50.9242 32.3525 51.7103C32.1323 52.4964 32 53.2542 32 53.9837C32 54.3677 32.0362 54.7455 32.1294 55.1133C32.2223 55.4842 32.3728 55.8479 32.6003 56.1763C32.6699 56.2773 32.7437 56.3582 32.8408 56.4309C32.8549 56.443 33.3399 56.8291 33.8663 57.3322C34.13 57.5857 34.4029 57.8678 34.6302 58.1385C34.8555 58.4012 35.0313 58.6639 35.097 58.8105C35.3949 59.442 36.1538 60.982 37.1612 62.7047C37.6663 63.5655 38.2342 64.4718 38.8434 65.3367C39.1517 65.7713 39.471 66.1987 39.7984 66.6029C38.9062 67.7082 38.9113 69.3309 39.8872 70.4293C40.9745 71.6579 42.8497 71.7701 44.0765 70.6819L44.1613 70.606C43.633 71.66 43.7612 72.9735 44.5906 73.9091C45.6769 75.1358 47.5532 75.2488 48.7809 74.1607L49.2629 73.722C48.6041 74.8042 48.692 76.2351 49.5762 77.2333C50.6654 78.4579 52.5407 78.5712 53.7684 77.4869L54.51 76.8139C53.8098 77.9053 53.8847 79.3673 54.7849 80.3838C55.8711 81.6105 57.7475 81.7246 58.9751 80.6365L60.1754 79.6059C60.2886 79.6604 60.3988 79.7099 60.5009 79.7573L61.3214 80.2363L61.3142 80.2303C61.7245 80.4747 62.1489 80.6728 62.5905 80.8112C63.031 80.9496 63.4888 81.0305 63.9546 81.0305C64.4588 81.0305 64.9731 80.9335 65.456 80.7192C65.937 80.5071 66.3796 80.1777 66.7474 79.7614C67.187 79.2661 67.479 78.6852 67.6275 78.0801C68.065 78.2387 68.5238 78.3184 68.9784 78.3184C69.5251 78.3184 70.0718 78.2053 70.5819 77.9811C71.0912 77.7568 71.5631 77.4203 71.9541 76.9788C72.4391 76.4332 72.7452 75.7834 72.8775 75.1104C73.1383 75.163 73.401 75.1922 73.6637 75.1922C74.2134 75.1922 74.7599 75.0811 75.2691 74.8549C75.7795 74.6315 76.2513 74.2941 76.6423 73.8535C77.1737 73.2553 77.4881 72.5328 77.5951 71.7932C77.7103 71.8033 77.8244 71.8074 77.9366 71.8074C78.5934 71.8074 79.2381 71.6658 79.8362 71.4133C80.4302 71.1586 80.985 70.7889 81.4306 70.2886C81.8449 69.8187 82.1581 69.2711 82.3824 68.681C82.6057 68.0889 82.7361 67.4574 82.7381 66.8097C82.7381 66.5733 82.7178 66.3349 82.6775 66.0984C84.964 63.5541 86.1745 59.3165 86.699 58.205C87.3032 56.9197 89.5857 55.0949 89.5857 55.0949C92.0471 51.5425 82.925 37.3472 78.457 41.307ZM80.1615 67.8426C80.0322 68.1881 79.8422 68.5054 79.6554 68.7135C79.4846 68.9086 79.2178 69.0976 78.9066 69.2309C78.5964 69.3623 78.2458 69.434 77.9366 69.434C77.7336 69.434 77.5465 69.4026 77.395 69.3522C77.3859 69.3481 77.3767 69.3452 77.3697 69.342L73.9828 66.0743C73.5099 65.6197 72.7592 65.6339 72.3044 66.1047C71.8488 66.5766 71.862 67.3283 72.3337 67.7831L75.0649 70.4193C75.076 70.4455 75.083 70.4709 75.0961 70.4972C75.2083 70.7204 75.267 70.971 75.267 71.2195C75.267 71.6014 75.1376 71.9713 74.8637 72.2785C74.7051 72.4604 74.5172 72.5918 74.312 72.6827C74.1089 72.7735 73.8866 72.8201 73.6634 72.8201C73.2834 72.8181 72.9137 72.6887 72.6044 72.4159L72.5358 72.3533C72.5206 72.3391 72.5125 72.3229 72.4984 72.3068L69.5297 69.2088C69.0762 68.734 68.3243 68.7177 67.8534 69.1704C67.3795 69.6231 67.3623 70.3768 67.814 70.8498L70.3329 73.4789C70.338 73.488 70.342 73.4991 70.3471 73.5071C70.5017 73.7598 70.5795 74.0508 70.5795 74.3427C70.5785 74.7257 70.4491 75.0966 70.1762 75.4047H70.1773C70.0166 75.5845 69.8287 75.7159 69.6256 75.8089C69.4216 75.8978 69.1992 75.9422 68.9778 75.9422C68.596 75.9422 68.2232 75.8129 67.9149 75.5412L67.8695 75.5038L66.9519 74.7662L65.4474 73.1698C64.9978 72.6938 64.2451 72.6716 63.7692 73.1213C63.2921 73.5699 63.2699 74.3237 63.7195 74.7997L65.1473 76.3143C65.2938 76.5629 65.3727 76.8437 65.3727 77.1286C65.3696 77.5086 65.2412 77.8804 64.9705 78.1856C64.8068 78.3704 64.6522 78.4776 64.4916 78.5494C64.3309 78.6192 64.1601 78.6565 63.954 78.6575C63.763 78.6575 63.5458 78.6241 63.3033 78.5473C63.0608 78.4705 62.7991 78.3513 62.5283 78.1917L62.5213 78.1856L62.101 77.943C63.2619 76.8477 63.3527 75.0219 62.2868 73.8184C61.2136 72.61 59.3727 72.4867 58.1471 73.5275L58.3684 73.3275C59.597 72.2413 59.7092 70.365 58.621 69.1383C57.5357 67.9116 55.6584 67.7986 54.4318 68.8857L53.7042 69.5415C54.4075 68.4533 54.3327 66.9883 53.4315 65.9717C52.3432 64.7451 50.4689 64.6309 49.2412 65.7191L48.2753 66.5981C48.728 65.5716 48.5784 64.3277 47.7833 63.4325C46.696 62.2049 44.8197 62.0927 43.594 63.1788L41.5501 64.9916C41.2923 64.6692 41.0346 64.3246 40.7821 63.9669C39.9455 62.7787 39.1594 61.453 38.536 60.3174C37.9135 59.1816 37.4477 58.2319 37.2446 57.7984C37.1374 57.5711 37.0102 57.363 36.8727 57.1629C36.6322 56.8173 36.3563 56.492 36.0754 56.1929C35.6572 55.7411 35.2207 55.3431 34.8872 55.0531C34.7276 54.9136 34.5921 54.7974 34.4912 54.7156C34.47 54.668 34.4498 54.6106 34.4316 54.5378C34.3973 54.3984 34.3729 54.2115 34.3729 53.9841C34.3729 53.6083 34.4386 53.1314 34.573 52.5937C34.8084 51.6561 35.2559 50.5476 35.8441 49.4433C36.7261 47.7802 37.9316 46.113 39.1603 44.9166C39.7746 44.3154 40.391 43.8354 40.9508 43.5232C41.2296 43.3687 41.4934 43.2535 41.7287 43.1827C41.9641 43.1099 42.1733 43.0777 42.3531 43.0777C42.5259 43.0787 42.6714 43.1048 42.8138 43.1564C42.9533 43.213 43.0948 43.2919 43.2484 43.4281C44.0617 44.1507 44.9539 44.8852 45.925 45.5077C46.8929 46.1271 47.9417 46.6424 49.0864 46.8768C49.8211 47.0263 50.5486 47.0808 51.263 47.0808C52.6179 47.0798 53.9224 46.8808 55.1299 46.6948C55.4339 46.6464 55.7309 46.6018 56.0221 46.5574C55.1157 47.1818 54.2386 47.9225 53.306 48.7925C50.6446 51.275 48.3499 54.3073 47.0768 55.6855C45.8047 57.0618 48.1711 59.4504 51.938 58.3551C55.7027 57.2618 57.3255 54.4528 57.3255 54.4528L62.0533 52.7563L66.7456 53.8304L78.0876 64.0417L80.0478 65.9372L80.0862 65.9696C80.1649 66.0424 80.2255 66.1272 80.2781 66.2646C80.3286 66.402 80.363 66.5879 80.363 66.8103C80.3646 67.1222 80.2939 67.497 80.1615 67.8426Z" fill="#C1CFFF"/>
</g>
</g>
<path d="M0.880952 61C0.880952 27.7972 27.7972 0.880952 61 0.880952C94.2028 0.880952 121.119 27.7972 121.119 61C121.119 94.2028 94.2028 121.119 61 121.119C27.7972 121.119 0.880952 94.2028 0.880952 61Z" stroke="url(#paint0_linear_2401_22970)" stroke-opacity="0.25" stroke-width="1.7619"/>
<defs>
<linearGradient id="paint0_linear_2401_22970" x1="61" y1="-1.38443e-06" x2="114.072" y2="133.971" gradientUnits="userSpaceOnUse">
<stop stop-color="white" stop-opacity="0.4"/>
<stop offset="0.4" stop-color="white" stop-opacity="0.01"/>
<stop offset="0.6" stop-color="white" stop-opacity="0.01"/>
<stop offset="1" stop-color="white" stop-opacity="0.1"/>
</linearGradient>
<clipPath id="clip0_2401_22970">
<path d="M0 61C0 27.3106 27.3106 0 61 0C94.6894 0 122 27.3106 122 61C122 94.6894 94.6894 122 61 122C27.3106 122 0 94.6894 0 61Z" fill="white"/>
</clipPath>
<clipPath id="clip1_2401_22970">
<rect width="58" height="58" fill="white" transform="translate(32 32)"/>
</clipPath>
</defs>
</svg>
