<svg width="122" height="122" viewBox="0 0 122 122" fill="none" xmlns="http://www.w3.org/2000/svg">
<g clip-path="url(#clip0_86_21)">
<path d="M0 61C0 27.3106 27.3106 0 61 0V0C94.6894 0 122 27.3106 122 61V61C122 94.6894 94.6894 122 61 122V122C27.3106 122 0 94.6894 0 61V61Z" fill="#1B1B1B" style="mix-blend-mode:luminosity"/>
<rect width="122" height="122" rx="61" fill="#1B1B1B"/>
<path d="M39.25 69.7C39.25 62.1812 39.25 58.4218 41.1611 56.0859C43.0723 53.75 46.1482 53.75 52.3 53.75H69.7C75.8518 53.75 78.9277 53.75 80.8388 56.0859C82.75 58.4218 82.75 62.1812 82.75 69.7C82.75 77.2188 82.75 80.9782 80.8388 83.3141C78.9277 85.65 75.8518 85.65 69.7 85.65H52.3C46.1482 85.65 43.0723 85.65 41.1611 83.3141C39.25 80.9782 39.25 77.2188 39.25 69.7Z" stroke="#C1CFFF" stroke-width="4"/>
<path d="M61 65.35V74.05" stroke="#C1CFFF" stroke-width="4" stroke-linecap="round"/>
<path d="M47.9492 53.7501V49.4001C47.9492 42.1928 53.7919 36.3501 60.9992 36.3501C68.2065 36.3501 74.0492 42.1928 74.0492 49.4001V53.7501" stroke="#C1CFFF" stroke-width="4" stroke-linecap="round"/>
</g>
<path d="M61 121.119C27.7972 121.119 0.880952 94.2028 0.880952 61C0.880952 27.7972 27.7972 0.880952 61 0.880952C94.2028 0.880952 121.119 27.7972 121.119 61C121.119 94.2028 94.2028 121.119 61 121.119Z" stroke="url(#paint0_linear_86_21)" stroke-opacity="0.25" stroke-width="1.7619"/>
<defs>
<linearGradient id="paint0_linear_86_21" x1="61" y1="-1.38443e-06" x2="114.072" y2="133.971" gradientUnits="userSpaceOnUse">
<stop stop-color="white" stop-opacity="0.4"/>
<stop offset="0.4" stop-color="white" stop-opacity="0.01"/>
<stop offset="0.6" stop-color="white" stop-opacity="0.01"/>
<stop offset="1" stop-color="white" stop-opacity="0.1"/>
</linearGradient>
<clipPath id="clip0_86_21">
<path d="M0 61C0 27.3106 27.3106 0 61 0V0C94.6894 0 122 27.3106 122 61V61C122 94.6894 94.6894 122 61 122V122C27.3106 122 0 94.6894 0 61V61Z" fill="white"/>
</clipPath>
</defs>
</svg>
