<svg width="122" height="122" viewBox="0 0 122 122" fill="none" xmlns="http://www.w3.org/2000/svg">
<g clip-path="url(#clip0_2401_23210)">
<path d="M0 61C0 27.3106 27.3106 0 61 0C94.6894 0 122 27.3106 122 61C122 94.6894 94.6894 122 61 122C27.3106 122 0 94.6894 0 61Z" fill="#1B1B1B" style="mix-blend-mode:luminosity"/>
<rect width="122" height="122" rx="61" fill="#1B1B1B"/>
<path fill-rule="evenodd" clip-rule="evenodd" d="M87.2305 61C88.9397 59.3251 90 56.9909 90 54.4091C90 49.313 85.8688 45.1818 80.7727 45.1818C79.3575 45.1818 78.0167 45.5004 76.8182 46.0698V41.2273C76.8182 36.1312 72.687 32 67.5909 32C65.0091 32 62.6749 33.0604 61 34.7695C59.3251 33.0604 56.9909 32 54.4091 32C49.313 32 45.1818 36.1312 45.1818 41.2273C45.1818 42.6425 45.5004 43.9832 46.0698 45.1818H41.2273C36.1312 45.1818 32 49.313 32 54.4091C32 56.9909 33.0604 59.3251 34.7695 61C33.0604 62.6749 32 65.0091 32 67.5909C32 72.687 36.1312 76.8182 41.2273 76.8182C42.6425 76.8182 43.9832 76.4997 45.1818 75.9303V80.7727C45.1818 85.8688 49.313 90 54.4091 90C56.9909 90 59.3251 88.9397 61 87.2305C62.6749 88.9397 65.0091 90 67.5909 90C72.687 90 76.8182 85.8688 76.8182 80.7727C76.8182 79.3575 76.4997 78.0167 75.9303 76.8182H80.7727C85.8688 76.8182 90 72.687 90 67.5909C90 65.0091 88.9397 62.6749 87.2305 61ZM54.4091 37.2727C56.5931 37.2727 58.3636 39.0432 58.3636 41.2273V45.1818H54.4091C52.225 45.1818 50.4545 43.4113 50.4545 41.2273C50.4545 39.0432 52.225 37.2727 54.4091 37.2727ZM63.6364 41.2273C63.6364 39.0432 65.4069 37.2727 67.5909 37.2727C69.7749 37.2727 71.5455 39.0432 71.5455 41.2273V58.3636H63.6364V41.2273ZM58.3636 58.3636V50.4545H41.2273C39.0432 50.4545 37.2727 52.225 37.2727 54.4091C37.2727 56.5931 39.0432 58.3636 41.2273 58.3636H58.3636ZM76.8182 58.3636H80.7727C82.9567 58.3636 84.7273 56.5931 84.7273 54.4091C84.7273 52.225 82.9567 50.4545 80.7727 50.4545C78.5888 50.4545 76.8182 52.225 76.8182 54.4091V58.3636ZM80.7727 63.6364H63.6364V71.5455H80.7727C82.9567 71.5455 84.7273 69.7749 84.7273 67.5909C84.7273 65.4069 82.9567 63.6364 80.7727 63.6364ZM67.5909 76.8182H63.6364V80.7727C63.6364 82.9567 65.4069 84.7273 67.5909 84.7273C69.7749 84.7273 71.5455 82.9567 71.5455 80.7727C71.5455 78.5888 69.7749 76.8182 67.5909 76.8182ZM58.3636 63.6364H50.4545V80.7727C50.4545 82.9567 52.225 84.7273 54.4091 84.7273C56.5931 84.7273 58.3636 82.9567 58.3636 80.7727V63.6364ZM41.2273 63.6364H45.1818V67.5909C45.1818 69.7749 43.4113 71.5455 41.2273 71.5455C39.0432 71.5455 37.2727 69.7749 37.2727 67.5909C37.2727 65.4069 39.0432 63.6364 41.2273 63.6364Z" fill="#C1CFFF"/>
</g>
<path d="M0.880952 61C0.880952 27.7972 27.7972 0.880952 61 0.880952C94.2028 0.880952 121.119 27.7972 121.119 61C121.119 94.2028 94.2028 121.119 61 121.119C27.7972 121.119 0.880952 94.2028 0.880952 61Z" stroke="url(#paint0_linear_2401_23210)" stroke-opacity="0.25" stroke-width="1.7619"/>
<defs>
<linearGradient id="paint0_linear_2401_23210" x1="61" y1="-1.38443e-06" x2="114.072" y2="133.971" gradientUnits="userSpaceOnUse">
<stop stop-color="white" stop-opacity="0.4"/>
<stop offset="0.4" stop-color="white" stop-opacity="0.01"/>
<stop offset="0.6" stop-color="white" stop-opacity="0.01"/>
<stop offset="1" stop-color="white" stop-opacity="0.1"/>
</linearGradient>
<clipPath id="clip0_2401_23210">
<path d="M0 61C0 27.3106 27.3106 0 61 0C94.6894 0 122 27.3106 122 61C122 94.6894 94.6894 122 61 122C27.3106 122 0 94.6894 0 61Z" fill="white"/>
</clipPath>
</defs>
</svg>
