<svg width="122" height="122" viewBox="0 0 122 122" fill="none" xmlns="http://www.w3.org/2000/svg">
<g clip-path="url(#clip0_2401_23180)">
<path d="M0 61C0 27.3106 27.3106 0 61 0C94.6894 0 122 27.3106 122 61C122 94.6894 94.6894 122 61 122C27.3106 122 0 94.6894 0 61Z" fill="#1B1B1B" style="mix-blend-mode:luminosity"/>
<rect width="122" height="122" rx="61" fill="#1B1B1B"/>
<path opacity="0.2" d="M74.3861 60.9821C74.3861 63.6268 73.6018 66.2121 72.1325 68.411C70.6632 70.61 68.5748 72.3239 66.1315 73.336C63.6881 74.348 60.9995 74.6129 58.4056 74.0969C55.8118 73.5809 53.4291 72.3074 51.5591 70.4373C49.689 68.5673 48.4155 66.1847 47.8995 63.5908C47.3836 60.9969 47.6484 58.3083 48.6604 55.8649C49.6725 53.4216 51.3864 51.3332 53.5854 49.8639C55.7844 48.3946 58.3696 47.6104 61.0143 47.6104C64.5607 47.6104 67.9619 49.0192 70.4696 51.5268C72.9773 54.0345 74.3861 57.4357 74.3861 60.9821Z" fill="#C1CFFF"/>
<path d="M87.1632 48.4905C90.2557 54.9585 90.8428 62.3428 88.8111 69.2183C86.7794 76.0937 82.2729 81.9728 76.1614 85.721C70.0499 89.4692 62.7666 90.8207 55.7172 89.5147C48.6678 88.2087 42.3521 84.3378 37.9889 78.649C33.6258 72.9602 31.5245 65.8569 32.0906 58.7099C32.6568 51.563 35.8502 44.8791 41.0546 39.9482C46.259 35.0173 53.1054 32.189 60.2725 32.0091C67.4396 31.8293 74.4192 34.3106 79.8644 38.9743L86.1798 32.6561C86.598 32.2379 87.1651 32.003 87.7565 32.003C88.3479 32.003 88.9151 32.2379 89.3333 32.6561C89.7515 33.0743 89.9864 33.6415 89.9864 34.2329C89.9864 34.8243 89.7515 35.3914 89.3333 35.8096L62.5898 62.5531C62.1716 62.9713 61.6044 63.2062 61.0131 63.2062C60.4217 63.2062 59.8545 62.9713 59.4363 62.5531C59.0181 62.1349 58.7832 61.5677 58.7832 60.9763C58.7832 60.3849 59.0181 59.8178 59.4363 59.3996L67.1585 51.6774C65.0657 50.2933 62.567 49.656 60.0669 49.8687C57.5669 50.0814 55.2117 51.1317 53.3828 52.8494C51.5539 54.5672 50.3583 56.8519 49.9895 59.3338C49.6207 61.8156 50.1003 64.3493 51.3506 66.5247C52.601 68.7 54.5489 70.3897 56.8791 71.3203C59.2093 72.2508 61.7853 72.3676 64.1902 71.6519C66.595 70.9362 68.6879 69.4298 70.1301 67.3765C71.5723 65.3233 72.2793 62.8434 72.1367 60.3384C72.1202 60.0457 72.1615 59.7527 72.2583 59.476C72.3551 59.1993 72.5055 58.9444 72.7008 58.7258C72.8961 58.5072 73.1325 58.3292 73.3966 58.202C73.6607 58.0748 73.9473 58.0009 74.2399 57.9844C74.831 57.9512 75.4111 58.1541 75.8525 58.5485C76.0711 58.7438 76.2491 58.9803 76.3763 59.2444C76.5035 59.5085 76.5774 59.795 76.5939 60.0877C76.7971 63.6334 75.7844 67.1422 73.7231 70.0344C71.6619 72.9265 68.6755 75.0288 65.2576 75.9937C61.8397 76.9586 58.1949 76.7284 54.9255 75.3412C51.6562 73.954 48.958 71.4927 47.277 68.3643C45.5959 65.2358 45.0327 61.6274 45.6803 58.1355C46.3279 54.6435 48.1476 51.4771 50.8387 49.1594C53.5297 46.8418 56.931 45.5117 60.4804 45.3891C64.0298 45.2665 67.5147 46.3586 70.3593 48.4849L76.697 42.1473C72.0525 38.2912 66.1472 36.287 60.1151 36.5196C54.083 36.7523 48.3495 39.2054 44.0159 43.4077C39.6822 47.6101 37.054 53.2654 36.6359 59.2875C36.2179 65.3096 38.0395 71.2738 41.7509 76.0346C45.4624 80.7955 50.8019 84.0172 56.744 85.0811C62.6861 86.145 68.8117 84.976 73.9444 81.7986C79.0771 78.6212 82.855 73.6596 84.5523 67.8665C86.2497 62.0735 85.7469 55.8576 83.1405 50.4127C82.8856 49.8792 82.853 49.2664 83.05 48.7089C83.247 48.1515 83.6573 47.6951 84.1907 47.4402C84.7242 47.1853 85.337 47.1528 85.8945 47.3498C86.4519 47.5467 86.9083 47.957 87.1632 48.4905Z" fill="#C1CFFF"/>
</g>
<path d="M0.880952 61C0.880952 27.7972 27.7972 0.880952 61 0.880952C94.2028 0.880952 121.119 27.7972 121.119 61C121.119 94.2028 94.2028 121.119 61 121.119C27.7972 121.119 0.880952 94.2028 0.880952 61Z" stroke="url(#paint0_linear_2401_23180)" stroke-opacity="0.25" stroke-width="1.7619"/>
<defs>
<linearGradient id="paint0_linear_2401_23180" x1="61" y1="-1.38443e-06" x2="114.072" y2="133.971" gradientUnits="userSpaceOnUse">
<stop stop-color="white" stop-opacity="0.4"/>
<stop offset="0.4" stop-color="white" stop-opacity="0.01"/>
<stop offset="0.6" stop-color="white" stop-opacity="0.01"/>
<stop offset="1" stop-color="white" stop-opacity="0.1"/>
</linearGradient>
<clipPath id="clip0_2401_23180">
<path d="M0 61C0 27.3106 27.3106 0 61 0C94.6894 0 122 27.3106 122 61C122 94.6894 94.6894 122 61 122C27.3106 122 0 94.6894 0 61Z" fill="white"/>
</clipPath>
</defs>
</svg>
