<svg width="72" height="72" viewBox="0 0 72 72" fill="none" xmlns="http://www.w3.org/2000/svg">
<path d="M66.5216 32.8695C66.5216 31.2145 66.0748 29.5986 65.2407 28.1739C67.3694 24.5391 66.8148 19.8816 63.771 16.8377C63.1596 16.2263 62.4777 15.7123 61.7453 15.2976C61.7989 14.8964 61.826 14.4925 61.826 14.0871C61.826 8.90873 57.613 4.69575 52.4346 4.69575C52.0194 4.69575 51.6057 4.72388 51.1949 4.77998C49.5599 1.88269 46.4661 0 43.0434 0C40.2405 0 37.7222 1.23595 35.9999 3.18937C34.2777 1.23595 31.7594 0 28.9565 0C25.5338 0 22.44 1.88269 20.805 4.77984C15.2264 4.01822 10.1739 8.39124 10.1739 14.087C10.1739 14.4924 10.2012 14.8963 10.2546 15.2975C9.52222 15.712 8.84033 16.2263 8.2289 16.8376C5.18577 19.8806 4.62974 24.5378 6.75922 28.1738C5.92504 29.5985 5.47827 31.2144 5.47827 32.8694C5.47827 36.2921 7.36096 39.3858 10.2581 41.0209C10.2571 41.028 10.2566 41.0352 10.2556 41.0422C9.51913 46.698 13.9373 51.652 19.5652 51.652C19.9805 51.652 20.3942 51.6239 20.805 51.5678C21.6321 53.0336 22.8331 54.2389 24.2608 55.073V60.2608C24.2608 66.7339 29.527 72 35.9999 72C42.4729 72 47.739 66.7339 47.739 60.2609V55.0731C49.1667 54.2392 50.3676 53.0336 51.1949 51.568C51.6058 51.624 52.0194 51.6523 52.4346 51.6523C58.1325 51.6523 62.5014 46.6003 61.7418 41.0212C64.6391 39.386 66.5216 36.2922 66.5216 32.8695ZM24.4506 48.176C24.1735 47.152 23.2438 46.4413 22.1841 46.4413C21.263 46.4413 20.9638 46.9565 19.5652 46.9565C13.3621 46.9565 13.3557 37.5652 19.5652 37.5652C20.8618 37.5652 21.9131 36.514 21.9131 35.2173C21.9131 33.9207 20.8619 32.8694 19.5652 32.8694C16.5081 32.8694 13.7882 34.3385 12.0722 36.6069C10.9072 35.7428 10.1739 34.3706 10.1739 32.8694C10.1739 31.4106 10.8397 30.3652 11.3983 29.7453C12.203 28.8522 12.203 27.4956 11.3983 26.6025C8.6024 23.4983 10.9387 18.7824 14.8695 18.7824C16.1237 18.7824 17.303 19.271 18.1898 20.1577C19.1065 21.0746 20.5932 21.0746 21.5101 20.1577C22.427 19.2409 22.427 17.7543 21.5101 16.8375C19.7364 15.0636 17.378 14.0867 14.8695 14.0867C14.8695 11.4975 16.9759 9.39108 19.5651 9.39108C20.1504 9.39108 20.7371 9.50751 21.3093 9.7373C22.6127 10.2606 24.0834 9.52847 24.4506 8.17172C25.0043 6.12492 26.8572 4.69533 28.9565 4.69533C31.5456 4.69533 33.6521 6.80175 33.6521 9.39094V23.7142C28.3003 24.8048 24.2607 29.548 24.2607 35.2171C24.2607 36.5137 25.3119 37.565 26.6086 37.565C27.9053 37.565 28.9565 36.5138 28.9565 35.2171C28.9565 32.1563 30.9194 29.5467 33.6521 28.5775V46.9564C33.6521 49.5456 31.5456 51.652 28.9565 51.652C26.8572 51.6521 25.0043 50.2227 24.4506 48.176ZM35.9999 67.3044C32.9391 67.3044 30.3295 65.3414 29.3603 62.6088H42.6394C41.6704 65.3414 39.0608 67.3044 35.9999 67.3044ZM43.0434 57.913H28.9565V56.3479C31.7594 56.3479 34.2777 55.1119 35.9999 53.1584C37.7222 55.1119 40.2405 56.3479 43.0434 56.3479V57.913ZM60.6016 29.7454C61.1601 30.3654 61.826 31.4108 61.826 32.8695C61.826 34.3707 61.0926 35.7429 59.9277 36.6071C58.2118 34.3387 55.4918 32.8695 52.4346 32.8695C51.1381 32.8695 50.0868 33.9207 50.0868 35.2174C50.0868 36.514 51.1379 37.5653 52.4346 37.5653C58.6147 37.5653 58.6116 46.9567 52.4346 46.9567C51.8494 46.9567 51.2627 46.8402 50.6905 46.6104C49.387 46.0873 47.9165 46.8191 47.5492 48.176C46.9954 50.2228 45.1425 51.6524 43.0433 51.6524C40.4541 51.6524 38.3477 49.546 38.3477 46.9568V28.5777C41.0804 29.5469 43.0433 32.1566 43.0433 35.2173C43.0433 36.5138 44.0945 37.5652 45.3912 37.5652C46.6879 37.5652 47.739 36.514 47.739 35.2173C47.739 29.5483 43.6996 24.8051 38.3477 23.7143V9.39136C38.3477 6.80217 40.4541 4.69575 43.0433 4.69575C45.1425 4.69575 46.9954 6.1252 47.5492 8.172C47.9161 9.52777 49.386 10.2614 50.6905 9.73758C51.2625 9.50794 51.8494 9.3915 52.4346 9.3915C55.0238 9.3915 57.1303 11.4979 57.1303 14.0871C54.6218 14.0871 52.2634 15.0639 50.4897 16.8379C49.5728 17.7547 49.5728 19.2413 50.4897 20.1582C51.4064 21.075 52.8931 21.075 53.81 20.1582C54.697 19.2714 55.876 18.7829 57.1303 18.7829C61.0793 18.7829 63.3893 23.5077 60.6014 26.6027C59.7969 27.4957 59.7969 28.8522 60.6016 29.7454Z" fill="#C1CFFF"/>
</svg>
