<svg width="122" height="122" viewBox="0 0 122 122" fill="none" xmlns="http://www.w3.org/2000/svg">
<g clip-path="url(#clip0_2401_23342)">
<path d="M0 61C0 27.3106 27.3106 0 61 0C94.6894 0 122 27.3106 122 61C122 94.6894 94.6894 122 61 122C27.3106 122 0 94.6894 0 61Z" fill="#1B1B1B" style="mix-blend-mode:luminosity"/>
<rect width="122" height="122" rx="61" fill="#1B1B1B"/>
<path d="M77.6758 54.0945L84.8352 52.9707" stroke="#C1CFFF" stroke-width="3"/>
<path d="M75.4375 47.5058L79.9144 44.8687" stroke="#C1CFFF" stroke-width="3"/>
<path d="M70.8691 42.6303L73.8779 36.0872" stroke="#C1CFFF" stroke-width="3"/>
<path d="M62.3136 41.6879L62.2773 36.4951" stroke="#C1CFFF" stroke-width="3"/>
<path d="M54.0134 42.9565L51.5938 36.0872" stroke="#C1CFFF" stroke-width="3"/>
<path d="M48.3026 47.4333L43.7441 44.9502" stroke="#C1CFFF" stroke-width="3"/>
<path d="M46.3008 53.7228L39.2773 52.5356" stroke="#C1CFFF" stroke-width="3"/>
<path d="M55.7611 73.2071C55.7611 68.5308 52.8702 64.6068 51.3114 61.7068C50.4454 60.0965 49.9909 58.2971 49.9883 56.4687C49.9883 50.3152 55.6161 45.3218 61.7695 45.3218" stroke="#C1CFFF" stroke-width="3"/>
<path d="M67.778 73.2071C67.778 68.5308 70.6689 64.6068 72.2277 61.7068C73.0937 60.0965 73.5482 58.2971 73.5508 56.4687C73.5508 50.3152 67.923 45.3218 61.7695 45.3218" stroke="#C1CFFF" stroke-width="3"/>
<path d="M68.6481 72.9534H55.3353C54.2742 72.9534 53.4141 73.8135 53.4141 74.8746V74.8837C53.4141 75.9448 54.2742 76.8049 55.3353 76.8049H68.6481C69.7092 76.8049 70.5694 75.9448 70.5694 74.8837V74.8746C70.5694 73.8135 69.7092 72.9534 68.6481 72.9534Z" stroke="#C1CFFF" stroke-width="3"/>
<path d="M67.5984 76.7959H56.388C55.327 76.7959 54.4668 77.6561 54.4668 78.7171V78.7262C54.4668 79.7873 55.327 80.6475 56.388 80.6475H67.5984C68.6594 80.6475 69.5196 79.7873 69.5196 78.7262V78.7171C69.5196 77.6561 68.6594 76.7959 67.5984 76.7959Z" stroke="#C1CFFF" stroke-width="3"/>
<path d="M64.9156 80.6475V81.4087C64.9474 81.8113 64.8955 82.216 64.7632 82.5976C64.631 82.9791 64.4212 83.3291 64.1472 83.6257C63.8731 83.9222 63.5406 84.1588 63.1707 84.3207C62.8007 84.4825 62.4013 84.5661 61.9975 84.5661C61.5937 84.5661 61.1943 84.4825 60.8243 84.3207C60.4544 84.1588 60.1219 83.9222 59.8478 83.6257C59.5738 83.3291 59.364 82.9791 59.2318 82.5976C59.0995 82.216 59.0476 81.8113 59.0794 81.4087V80.6475" stroke="#C1CFFF" stroke-width="3"/>
<path d="M54.2656 55.789C54.3109 54.8969 54.5315 54.0224 54.915 53.2155C55.2985 52.4087 55.8373 51.6854 56.5005 51.087C57.1638 50.4885 57.9385 50.0267 58.7804 49.7279C59.6222 49.4291 60.5148 49.2992 61.4069 49.3456" stroke="#C1CFFF" stroke-width="3"/>
</g>
<path d="M0.880952 61C0.880952 27.7972 27.7972 0.880952 61 0.880952C94.2028 0.880952 121.119 27.7972 121.119 61C121.119 94.2028 94.2028 121.119 61 121.119C27.7972 121.119 0.880952 94.2028 0.880952 61Z" stroke="url(#paint0_linear_2401_23342)" stroke-opacity="0.25" stroke-width="1.7619"/>
<defs>
<linearGradient id="paint0_linear_2401_23342" x1="61" y1="-1.38443e-06" x2="114.072" y2="133.971" gradientUnits="userSpaceOnUse">
<stop stop-color="white" stop-opacity="0.4"/>
<stop offset="0.4" stop-color="white" stop-opacity="0.01"/>
<stop offset="0.6" stop-color="white" stop-opacity="0.01"/>
<stop offset="1" stop-color="white" stop-opacity="0.1"/>
</linearGradient>
<clipPath id="clip0_2401_23342">
<path d="M0 61C0 27.3106 27.3106 0 61 0C94.6894 0 122 27.3106 122 61C122 94.6894 94.6894 122 61 122C27.3106 122 0 94.6894 0 61Z" fill="white"/>
</clipPath>
</defs>
</svg>
