<svg width="80" height="80" viewBox="0 0 80 80" fill="none" xmlns="http://www.w3.org/2000/svg">
<g clip-path="url(#clip0_263_1111)">
<mask id="mask0_263_1111" style="mask-type:luminance" maskUnits="userSpaceOnUse" x="0" y="0" width="80" height="80">
<path d="M80 0H0V80H80V0Z" fill="white"/>
</mask>
<g mask="url(#mask0_263_1111)">
<path d="M61.25 0H18.75C8.39468 0 0 8.39468 0 18.75V61.25C0 71.6052 8.39468 80 18.75 80H61.25C71.6052 80 80 71.6052 80 61.25V18.75C80 8.39468 71.6052 0 61.25 0Z" fill="#330000"/>
<path d="M38.6662 47.604H26.2662L23.7328 55.4376C23.6662 55.7376 23.3996 55.9376 23.0996 55.904H16.8328C16.4662 55.904 16.3662 55.704 16.4662 55.304L27.1996 24.4041C27.2996 24.0709 27.3996 23.7041 27.5328 23.3041C27.6662 22.6041 27.7328 21.8709 27.7328 21.1375C27.6996 20.9709 27.8328 20.8041 27.9996 20.7709H36.6328C36.8996 20.7709 37.0328 20.8709 37.0662 21.0375L49.2328 55.3708C49.3328 55.7376 49.2328 55.904 48.8996 55.904H41.9328C41.6996 55.9376 41.466 55.7708 41.3996 55.5376L38.6662 47.604ZM28.1996 40.8376H36.6662C36.4662 40.1376 36.1996 39.3041 35.8996 38.4376C35.5996 37.5375 35.2996 36.5709 34.9996 35.5709C34.6662 34.5375 34.3662 33.5375 34.0328 32.5041C33.6996 31.4709 33.3996 30.5041 33.1328 29.5375C32.8662 28.6044 32.6328 27.7375 32.3996 26.9375H32.3328C32.0328 28.3709 31.6662 29.8044 31.1996 31.2376C30.6996 32.8376 30.1996 34.5041 29.6662 36.1709C29.2357 37.7442 28.7465 39.3008 28.1996 40.8376ZM56.666 26.6041C55.566 26.6375 54.4996 26.2041 53.6996 25.4375C52.9332 24.6041 52.5332 23.5041 52.566 22.3709C52.5332 21.2375 52.966 20.1709 53.766 19.4041C54.566 18.6375 55.6332 18.2375 56.7332 18.2375C58.0332 18.2375 59.0332 18.6375 59.766 19.4041C60.5048 20.2123 60.8996 21.2765 60.866 22.3709C60.8996 23.5041 60.4996 24.6041 59.6996 25.4375C58.9332 26.2375 57.7996 26.6709 56.666 26.6041ZM52.9332 55.5376V29.8709C52.9332 29.5375 53.066 29.4041 53.366 29.4041H59.966C60.266 29.4041 60.3996 29.5709 60.3996 29.8709V55.5376C60.3996 55.904 60.266 56.0708 59.966 56.0708H53.4332C53.0996 56.0708 52.9332 55.8708 52.9332 55.5376Z" fill="#FF9A00"/>
</g>
</g>
<defs>
<clipPath id="clip0_263_1111">
<rect width="80" height="80" fill="white"/>
</clipPath>
</defs>
</svg>
