<svg width="42" height="42" viewBox="0 0 42 42" fill="none" xmlns="http://www.w3.org/2000/svg">
<path d="M15.75 38.5039H26.25C35 38.5039 38.5 35.0039 38.5 26.2539V15.7539C38.5 7.00391 35 3.50391 26.25 3.50391H15.75C7 3.50391 3.5 7.00391 3.5 15.7539V26.2539C3.5 35.0039 7 38.5039 15.75 38.5039Z" stroke="#FBFBFB" stroke-width="3" stroke-linecap="round" stroke-linejoin="round"/>
<path d="M21 27.1289C24.3827 27.1289 27.125 24.3867 27.125 21.0039C27.125 17.6212 24.3827 14.8789 21 14.8789C17.6173 14.8789 14.875 17.6212 14.875 21.0039C14.875 24.3867 17.6173 27.1289 21 27.1289Z" stroke="#FBFBFB" stroke-width="3" stroke-linecap="round" stroke-linejoin="round"/>
<path d="M30.8633 12.2539H30.8836" stroke="#FBFBFB" stroke-width="3" stroke-linecap="round" stroke-linejoin="round"/>
</svg>
