<svg width="80" height="80" viewBox="0 0 80 80" fill="none" xmlns="http://www.w3.org/2000/svg">
<g clip-path="url(#clip0_263_1084)">
<mask id="mask0_263_1084" style="mask-type:luminance" maskUnits="userSpaceOnUse" x="0" y="0" width="80" height="80">
<path d="M80 0H0V80H80V0Z" fill="white"/>
</mask>
<g mask="url(#mask0_263_1084)">
<path d="M39.935 0C17.8789 0 0 17.882 0 39.9346C0 61.9872 17.8789 79.87 39.935 79.87C61.9908 79.87 79.8704 61.9904 79.8704 39.9346C79.8704 17.8789 61.9908 0 39.935 0ZM39.935 73.2152C21.5547 73.2152 6.65496 58.3152 6.65496 39.9346C6.65496 21.5547 21.5547 6.65496 39.935 6.65496C58.3148 6.65496 73.214 21.564 73.214 39.9346C73.2148 58.3052 58.3052 73.214 39.935 73.214" fill="#35A7C1"/>
<path d="M49.6396 39.9351C49.6396 30.5179 45.9444 21.9705 39.9351 15.6426C33.9249 21.9643 30.2172 30.5281 30.2172 39.9351C30.2172 44.2392 31.0159 48.3656 32.4358 52.1896C30.3787 55.1904 28.8598 59.3936 28.1934 64.2276C30.3157 61.7156 32.9239 59.8752 35.816 58.9672C37.0265 60.8308 38.3896 62.6056 39.9427 64.2276C41.4776 62.6112 42.8576 60.8496 44.0676 58.9672C46.9604 59.8548 49.5696 61.7184 51.6996 64.2476C51.0328 59.4136 49.5144 55.21 47.4572 52.2096C48.8576 48.3656 49.6524 44.2392 49.6524 39.9351M39.9351 40.0236C37.5151 40.0236 35.5534 38.0621 35.5534 35.6425C35.5534 33.2233 37.5151 31.2621 39.9351 31.2621C42.3548 31.2621 44.328 33.2145 44.328 35.6549C44.316 38.0271 42.3752 40.0236 39.9347 40.0236" fill="#35A7C1"/>
</g>
</g>
<defs>
<clipPath id="clip0_263_1084">
<rect width="80" height="80" fill="white"/>
</clipPath>
</defs>
</svg>
