<svg width="29" height="30" viewBox="0 0 29 30" fill="none" xmlns="http://www.w3.org/2000/svg">
<g clip-path="url(#clip0_2401_29662)">
<mask id="mask0_2401_29662" style="mask-type:luminance" maskUnits="userSpaceOnUse" x="0" y="0" width="29" height="30">
<path d="M28.812 0.954102H0.720215V29.0459H28.812V0.954102Z" fill="white"/>
</mask>
<g mask="url(#mask0_2401_29662)">
<path d="M22.228 0.954102H7.30423C3.66798 0.954102 0.720215 3.90187 0.720215 7.53812V22.4619C0.720215 26.0981 3.66798 29.0459 7.30423 29.0459H22.228C25.8643 29.0459 28.812 26.0981 28.812 22.4619V7.53812C28.812 3.90187 25.8643 0.954102 22.228 0.954102Z" fill="#F0DB4F"/>
<path d="M8.10561 24.4298L10.2553 23.1288C10.6701 23.8641 11.0473 24.4863 11.9523 24.4863C12.8197 24.4863 13.3666 24.1471 13.3666 22.8272V13.8512H16.0066V22.8645C16.0066 25.5987 14.4039 26.8433 12.0654 26.8433C9.95363 26.8433 8.72794 25.7498 8.10561 24.4298ZM17.4405 24.1469L19.59 22.9025C20.1559 23.8265 20.8913 24.5053 22.1923 24.5053C23.2862 24.5053 23.9837 23.9584 23.9837 23.2041C23.9837 22.299 23.2672 21.9784 22.0603 21.4506L21.4005 21.1676C19.4959 20.3568 18.2324 19.3385 18.2324 17.1888C18.2324 15.2088 19.741 13.7002 22.0982 13.7002C23.7764 13.7002 24.9833 14.2848 25.8506 15.8122L23.7952 17.1322C23.3426 16.3214 22.8525 16.0009 22.0982 16.0009C21.325 16.0009 20.8347 16.4912 20.8347 17.1322C20.8347 17.9242 21.325 18.2448 22.4564 18.7352L23.1163 19.018C25.3602 19.9798 26.6237 20.9601 26.6237 23.1663C26.6237 25.5425 24.7569 26.8436 22.2489 26.8436C19.7976 26.8436 18.2136 25.6744 17.4405 24.1469Z" fill="#323330"/>
</g>
</g>
<defs>
<clipPath id="clip0_2401_29662">
<rect width="28.0918" height="28.56" fill="white" transform="translate(0.720215 0.720215)"/>
</clipPath>
</defs>
</svg>
