<svg width="61" height="60" viewBox="0 0 61 60" fill="none" xmlns="http://www.w3.org/2000/svg">
<mask id="mask0_2401_23400" style="mask-type:luminance" maskUnits="userSpaceOnUse" x="0" y="0" width="61" height="60">
<path d="M60.4995 0H0.499512V60H60.4995V0Z" fill="white"/>
</mask>
<g mask="url(#mask0_2401_23400)">
<path d="M46.437 0H14.562C6.79551 0 0.499512 6.296 0.499512 14.0625V45.9375C0.499512 53.704 6.79551 60 14.562 60H46.437C54.2035 60 60.4995 53.704 60.4995 45.9375V14.0625C60.4995 6.296 54.2035 0 46.437 0Z" fill="#F0DB4F"/>
<path d="M16.2732 50.1403L20.8646 47.3616C21.7505 48.9321 22.5563 50.261 24.4892 50.261C26.3419 50.261 27.51 49.5364 27.51 46.7173V27.5459H33.1487V46.797C33.1487 52.6369 29.7254 55.2952 24.7308 55.2952C20.2203 55.2952 17.6024 52.9596 16.2732 50.1403ZM36.2113 49.5361L40.8022 46.8781C42.0108 48.8517 43.5816 50.3016 46.3605 50.3016C48.6968 50.3016 50.1866 49.1335 50.1866 47.5224C50.1866 45.5892 48.6562 44.9044 46.0784 43.7771L44.6692 43.1726C40.6012 41.441 37.9025 39.266 37.9025 34.6746C37.9025 30.4456 41.1248 27.2234 46.1594 27.2234C49.7439 27.2234 52.3214 28.4721 54.174 31.7344L49.784 34.5537C48.8172 32.8219 47.7705 32.1373 46.1594 32.1373C44.508 32.1373 43.4608 33.1845 43.4608 34.5537C43.4608 36.2452 44.5079 36.93 46.9244 37.9775L48.3339 38.5814C53.1265 40.6357 55.8251 42.7296 55.8251 47.4417C55.8251 52.5169 51.838 55.2957 46.4813 55.2957C41.2456 55.2957 37.8624 52.7986 36.2113 49.5361Z" fill="#323330"/>
</g>
</svg>
