<svg width="82" height="80" viewBox="0 0 82 80" fill="none" xmlns="http://www.w3.org/2000/svg">
<path d="M79.7107 18.1903C79.7395 18.2965 79.7543 18.4061 79.7543 18.5162V35.6332C79.7543 36.0805 79.5155 36.4935 79.1271 36.7159L64.7611 44.988V61.3824C64.7611 61.6016 64.7035 61.8172 64.5939 62.0072C64.4843 62.1972 64.3267 62.3552 64.1371 62.4652L34.1479 79.7292C34.0792 79.7676 34.0044 79.7924 33.9294 79.8196C33.9012 79.8284 33.8749 79.846 33.8453 79.8536C33.6356 79.9088 33.4152 79.9088 33.2056 79.8536C33.1711 79.8444 33.1399 79.8256 33.1072 79.8132C33.0386 79.788 32.9668 79.7664 32.9015 79.7292L2.91829 62.4648C2.72776 62.3556 2.56944 62.198 2.45931 62.008C2.34918 61.8176 2.29113 61.602 2.29102 61.3824V10.0313C2.29102 9.91869 2.30675 9.80945 2.33459 9.70354C2.34397 9.66753 2.36576 9.63486 2.37846 9.59886C2.40176 9.53349 2.42386 9.4663 2.45805 9.40549C2.48135 9.36493 2.51554 9.33226 2.54368 9.29473C2.57969 9.24481 2.61237 9.19338 2.65443 9.1495C2.69044 9.11378 2.73734 9.08717 2.77789 9.05597C2.82328 9.01845 2.86352 8.97794 2.91496 8.94826H2.91647L17.9087 0.316539C18.0985 0.207283 18.3137 0.14978 18.5328 0.14978C18.7518 0.14978 18.967 0.207283 19.1569 0.316539L34.1491 8.94826H34.1521C34.202 8.97974 34.2444 9.01845 34.2895 9.05449C34.33 9.08565 34.3754 9.11378 34.4111 9.1483C34.455 9.19337 34.4862 9.2451 34.5234 9.29473C34.55 9.33226 34.586 9.36493 34.6078 9.40549C34.6435 9.46781 34.6638 9.53349 34.6889 9.59914C34.7013 9.63486 34.7231 9.66753 34.7325 9.70505C34.7612 9.81125 34.776 9.92109 34.7764 10.0313V42.104L47.2691 34.9106V18.5147C47.2691 18.4058 47.2847 18.2947 47.3131 18.1903C47.3239 18.1528 47.3443 18.1201 47.3567 18.0844C47.3815 18.0187 47.4035 17.9513 47.4375 17.8908C47.4611 17.8502 47.4951 17.8175 47.5219 17.78C47.5595 17.7301 47.5903 17.6787 47.6339 17.6348C47.6703 17.5991 47.7155 17.5724 47.7559 17.5413C47.8027 17.5037 47.8435 17.4632 47.8935 17.4335H47.8947L62.8887 8.80182C63.0783 8.69242 63.2935 8.63481 63.5127 8.63481C63.7319 8.63481 63.9471 8.69242 64.1367 8.80182L79.1291 17.4335C79.1819 17.4647 79.2223 17.5037 79.2695 17.5395C79.3083 17.5709 79.3535 17.5991 79.3895 17.6333C79.4331 17.6787 79.4643 17.7301 79.5015 17.78C79.5299 17.8175 79.5643 17.8502 79.5863 17.8908C79.6219 17.9513 79.6423 18.0187 79.6671 18.0844C79.6811 18.1201 79.7015 18.1528 79.7107 18.1903ZM77.2555 34.9109V20.677L72.0087 23.6972L64.7607 27.8705V42.1044L77.2567 34.9109H77.2555ZM62.2631 60.66V46.416L55.1335 50.488L34.7748 62.1076V76.4848L62.2631 60.66ZM4.79012 12.1917V60.66L32.2754 76.4836V62.1092L17.9168 53.9828L17.9123 53.9796L17.9062 53.9768C17.8578 53.9484 17.817 53.908 17.7719 53.8736C17.7326 53.8424 17.6875 53.8176 17.6533 53.7828L17.6503 53.7784C17.6097 53.7396 17.5816 53.6912 17.5474 53.6476C17.5159 53.6052 17.4787 53.5692 17.4536 53.5256L17.4521 53.5208C17.4239 53.4744 17.4067 53.418 17.3864 53.3652C17.3661 53.3184 17.3398 53.2744 17.3271 53.2248V53.2232C17.3117 53.164 17.3086 53.1012 17.3023 53.0404C17.2962 52.994 17.2835 52.9468 17.2835 52.9V19.3856L10.0368 15.2104L4.79012 12.1936V12.1917ZM18.5344 2.84076L6.04284 10.0313L18.5314 17.2214L31.0212 10.0294L18.5314 2.84076H18.5344ZM25.0305 47.7144L32.2769 43.5428V12.1917L27.0309 15.2122L19.7823 19.3853V50.736L25.0305 47.7144ZM63.5127 11.326L51.0227 18.5162L63.5127 25.7067L76.0007 18.5147L63.5127 11.326ZM62.2627 27.8705L55.0147 23.6972L49.7687 20.677V34.9109L57.0151 39.0828L62.2631 42.1044L62.2627 27.8705ZM33.5236 59.9472L51.8435 49.4884L61.0011 44.262L48.5203 37.0763L34.1506 45.3492L21.0538 52.8892L33.5236 59.9472Z" fill="#FF2D20"/>
</svg>
