<svg width="42" height="42" viewBox="0 0 42 42" fill="none" xmlns="http://www.w3.org/2000/svg">
<g clip-path="url(#clip0_2401_22710)">
<path d="M21 0.00390625C9.40078 0.00390625 0 9.40469 0 21.0039C0 32.6031 9.40078 42.0039 21 42.0039C32.5992 42.0039 42 32.6031 42 21.0039C42 9.40469 32.5992 0.00390625 21 0.00390625ZM34.1086 34.1043C32.4023 35.8105 30.4254 37.1477 28.2188 38.0746C25.9383 39.0426 23.5102 39.5266 21 39.5266C18.498 39.5266 16.0699 39.0344 13.7812 38.0746C11.5746 37.1395 9.58945 35.8023 7.89141 34.1043C6.18516 32.398 4.84805 30.4211 3.92109 28.2145C2.95313 25.934 2.46094 23.5059 2.46094 21.0039C2.46094 18.502 2.95312 16.0738 3.91289 13.7852C4.84805 11.5785 6.18516 9.59336 7.8832 7.89531C9.59766 6.18906 11.5746 4.85195 13.7812 3.9168C16.0699 2.95703 18.498 2.46484 21 2.46484C23.502 2.46484 25.9301 2.95703 28.2188 3.9168C30.4254 4.85195 32.4105 6.18906 34.1086 7.88711C35.8148 9.59336 37.152 11.5703 38.0789 13.777C39.0469 16.0574 39.5309 18.4855 39.5309 20.9957C39.5309 23.4977 39.0387 25.9258 38.0789 28.2145C37.1437 30.4211 35.8066 32.4062 34.1086 34.1043Z" fill="#FBFBFB"/>
<path d="M15.1266 16.689H11.0332V29.7894H15.1266V16.689Z" fill="#FBFBFB"/>
<path d="M12.9941 10.5039C11.4848 10.5039 10.4922 11.4801 10.4922 12.7762C10.4922 14.0477 11.452 15.0484 12.9367 15.0484H12.9695C14.5117 15.0484 15.4715 14.0395 15.4633 12.7762C15.4305 11.4801 14.5035 10.5039 12.9941 10.5039Z" fill="#FBFBFB"/>
<path d="M26.3082 16.5659C23.9621 16.5659 22.4938 17.8456 22.223 18.7479V16.689H17.6211C17.6785 17.78 17.6211 29.7894 17.6211 29.7894H22.223V22.7101C22.223 22.3081 22.2066 21.9144 22.3215 21.6355C22.6332 20.848 23.3141 20.0276 24.5363 20.0276C26.1359 20.0276 26.8578 21.2417 26.8578 23.0136V29.7894H31.5008V22.505C31.5008 18.4526 29.2203 16.5659 26.3082 16.5659Z" fill="#FBFBFB"/>
</g>
<defs>
<clipPath id="clip0_2401_22710">
<rect width="42" height="42" fill="white" transform="translate(0 0.00390625)"/>
</clipPath>
</defs>
</svg>
