<svg width="26" height="26" viewBox="0 0 26 26" fill="none" xmlns="http://www.w3.org/2000/svg">
<path d="M2.10962 23.9977C2.10962 24.9394 2.10962 25.4083 2.40004 25.6987C2.69046 25.9891 3.16342 25.9891 4.10106 25.9891H6.56133C7.50311 25.9891 7.97193 25.9891 8.26235 25.6987C8.55277 25.4083 8.55277 24.9353 8.55277 23.9977V6.05806C8.55277 5.68051 8.55277 5.49381 8.66894 5.37765C8.7851 5.26148 8.97595 5.26148 9.34935 5.26148H21.8415C22.7833 5.26148 23.2521 5.26148 23.5425 4.97106C23.833 4.68064 23.833 4.20767 23.833 3.27003V2.02953C23.833 1.08774 23.833 0.618924 23.5425 0.328505C23.2521 0.0380859 22.7792 0.0380859 21.8415 0.0380859H4.09691C3.15513 0.0380859 2.68631 0.0380859 2.39589 0.328505C2.10547 0.618924 2.10547 1.09189 2.10547 2.02953L2.10962 23.9977Z" fill="#FBFBFB"/>
<path d="M12.0327 11.2277C12.0327 10.8377 12.0327 10.6386 12.153 10.5183C12.2733 10.3979 12.4725 10.3979 12.8625 10.3979H18.3638C19.1978 10.3979 19.6168 10.3979 19.7247 10.651C19.8325 10.9041 19.5421 11.2028 18.9613 11.8044L13.4641 17.5132C12.8583 18.1438 12.5555 18.4592 12.2941 18.3513C12.0327 18.2476 12.0327 17.8078 12.0327 16.9365V11.2277Z" fill="#FBFBFB"/>
</svg>
