<svg width="124" height="33" viewBox="0 0 124 33" fill="none" xmlns="http://www.w3.org/2000/svg">
<path d="M31.2002 2.95524C31.2002 1.79412 31.2002 1.21611 31.5531 0.858056C31.9061 0.5 32.4809 0.5 33.6204 0.5H36.6103C37.7548 0.5 38.3246 0.5 38.6775 0.858056C39.0304 1.21611 39.0304 1.79923 39.0304 2.95524V25.0729C39.0304 25.5384 39.0304 25.7685 39.1716 25.9118C39.3128 26.055 39.5447 26.055 39.9985 26.055H55.18C56.3246 26.055 56.8943 26.055 57.2473 26.413C57.6002 26.7711 57.6002 27.3133 57.6002 28.4744V30.0448C57.6002 31.2059 57.6002 31.7839 57.2473 32.1419C56.8943 32.5 56.3195 32.5 55.18 32.5H33.6254C32.4809 32.5 31.9111 32.5 31.5582 32.1419C31.2052 31.7839 31.2052 31.2008 31.2052 30.0448V2.95524H31.2002Z" fill="#FBFBFB"/>
<path d="M62.4014 28.5401C62.4014 27.3862 62.4014 26.8118 62.7546 26.4559C63.1078 26.1001 63.683 26.1001 64.8234 26.1001H86.3793C87.5248 26.1001 88.0949 26.1001 88.4482 26.4559C88.8014 26.8118 88.8014 27.3913 88.8014 28.5401V30.0601C88.8014 31.214 88.8014 31.7884 88.4482 32.1443C88.0949 32.5001 87.5197 32.5001 86.3793 32.5001H64.8234C63.678 32.5001 63.1078 32.5001 62.7546 32.1443C62.4014 31.7884 62.4014 31.2089 62.4014 30.0601V28.5401Z" fill="#FBFBFB"/>
<path d="M62.4014 2.94003C62.4014 1.7861 62.4014 1.21168 62.7546 0.855838C63.1078 0.5 63.683 0.5 64.8234 0.5H86.3793C87.5248 0.5 88.0949 0.5 88.4482 0.855838C88.8014 1.21168 88.8014 1.79118 88.8014 2.94003V4.45997C88.8014 5.6139 88.8014 6.18832 88.4482 6.54416C88.0949 6.9 87.5197 6.9 86.3793 6.9H64.8234C63.678 6.9 63.1078 6.9 62.7546 6.54416C62.4014 6.18832 62.4014 5.60882 62.4014 4.45997V2.94003Z" fill="#FBFBFB"/>
<path d="M62.4014 15.7398C62.4014 14.5859 62.4014 14.0115 62.7546 13.6556C63.1078 13.2998 63.683 13.2998 64.8234 13.2998H86.3793C87.5248 13.2998 88.0949 13.2998 88.4482 13.6556C88.8014 14.0115 88.8014 14.591 88.8014 15.7398V17.2598C88.8014 18.4137 88.8014 18.9881 88.4482 19.344C88.0949 19.6998 87.5197 19.6998 86.3793 19.6998H64.8234C63.678 19.6998 63.1078 19.6998 62.7546 19.344C62.4014 18.9881 62.4014 18.4086 62.4014 17.2598V15.7398Z" fill="#FBFBFB"/>
<path d="M0.00504136 30.0444C0.00504136 31.2057 0.00504136 31.7838 0.357915 32.1419C0.710789 32.5 1.28547 32.5 2.42475 32.5H5.41409C6.55841 32.5 7.12805 32.5 7.48092 32.1419C7.8338 31.7838 7.8338 31.2006 7.8338 30.0444V7.92318C7.8338 7.45763 7.8338 7.22742 7.97495 7.08417C8.1161 6.94093 8.34798 6.94093 8.80168 6.94093H23.9803C25.1246 6.94093 25.6943 6.94093 26.0471 6.58281C26.4 6.2247 26.4 5.64149 26.4 4.48529V2.95564C26.4 1.79432 26.4 1.21623 26.0471 0.858113C25.6943 0.5 25.1196 0.5 23.9803 0.5H2.41971C1.27539 0.5 0.705748 0.5 0.352874 0.858113C0 1.21623 0 1.79944 0 2.95564L0.00504136 30.0444Z" fill="#FBFBFB"/>
<path d="M12 14.2988C12 13.8292 12 13.5895 12.1497 13.4447C12.2995 13.2998 12.5473 13.2998 13.0326 13.2998H19.8789C20.9167 13.2998 21.4381 13.2998 21.5724 13.6045C21.7066 13.9092 21.3452 14.2688 20.6224 14.993L13.7813 21.8658C13.0275 22.625 12.6506 23.0046 12.3253 22.8747C12 22.7498 12 22.2204 12 21.1715V14.2988Z" fill="#FBFBFB"/>
<path d="M123.33 30.9304C123.834 31.6155 124.085 31.9581 123.952 32.2239C123.813 32.4949 123.386 32.4949 122.533 32.4949H117.182C116.57 32.4949 116.262 32.4949 116 32.362C115.738 32.229 115.553 31.9836 115.193 31.4928L108.598 22.5559L108.51 22.4434C108.469 22.3974 108.433 22.3719 108.397 22.3719C108.351 22.3719 108.315 22.4077 108.258 22.4741L101.597 31.4979C101.232 31.9887 101.052 32.2341 100.784 32.3671C100.522 32.5 100.214 32.5 99.6022 32.5H94.2563C93.403 32.5 92.9764 32.5 92.8376 32.229C92.6988 31.9632 92.9507 31.6206 93.4595 30.9355L103.689 17.0803C103.894 16.7991 104.002 16.661 104.002 16.4974C104.002 16.3492 103.905 16.2111 103.73 15.9657L93.4647 2.06958C92.9558 1.38449 92.7039 1.04194 92.8427 0.770969C92.9815 0.499999 93.4081 0.5 94.2614 0.5H99.6073C100.219 0.5 100.527 0.5 100.79 0.632928C101.052 0.765857 101.237 1.01126 101.602 1.50208L108.274 10.5361C108.325 10.5975 108.356 10.6281 108.402 10.6281C108.449 10.6281 108.479 10.5975 108.531 10.5361L115.203 1.50208C115.563 1.00615 115.748 0.760744 116.01 0.632928C116.272 0.5 116.581 0.5 117.192 0.5H122.543C123.397 0.5 123.823 0.499999 123.962 0.770969C124.101 1.04194 123.849 1.37937 123.34 2.06958L113.106 15.9197C112.9 16.2009 112.797 16.339 112.797 16.5026C112.797 16.661 112.9 16.8042 113.106 17.0803L123.33 30.9304Z" fill="#FBFBFB"/>
</svg>
