<svg width="80" height="80" viewBox="0 0 80 80" fill="none" xmlns="http://www.w3.org/2000/svg">
<g clip-path="url(#clip0_263_1082)">
<path d="M67.9424 45.1271C38.8417 42.8083 14.8424 49.8807 9.39324 52.5475C6.37884 53.9387 6.14696 55.6775 6.61068 56.6051C6.95852 57.3007 8.46572 57.7647 9.97292 56.9531C21.5668 50.6923 44.8704 45.7071 67.9424 47.0983C68.522 47.0983 68.986 46.6343 68.986 46.0547C68.986 45.5911 68.522 45.1271 67.9424 45.1271ZM75.1304 36.3159C73.8552 37.7071 72.116 38.7506 71.5364 38.2869C70.9568 37.8231 71.5364 36.084 71.5364 36.084C74.4348 34.229 80 29.4755 80 25.7655C80 22.4032 76.9856 21.3598 73.8552 24.4901C71.3044 27.2727 69.4496 30.7508 68.406 34.4609C66.7828 36.084 64.1164 38.1709 61.7976 38.1709C60.5224 38.1709 60.2904 37.2434 60.4064 36.084C62.3772 36.084 67.9424 34.4609 67.9424 29.8233C67.9424 29.0117 67.5944 28.3161 67.0148 27.7364C66.4352 27.1567 65.7396 26.9248 64.928 27.0408C62.3772 27.0408 59.2468 29.5914 57.624 33.3015C57.276 33.1855 56.8124 33.0696 56.4644 32.8377C56.928 31.9102 57.16 30.9827 57.508 30.0552C57.8556 28.0842 57.044 26.9248 55.5368 27.1567C54.4936 27.1567 53.334 28.0842 52.9864 30.0552C52.8704 31.0986 53.102 32.1421 53.45 32.9537C52.7544 35.1565 49.972 37.8231 49.0444 37.7071C48.1168 37.5912 49.1604 33.7652 50.0876 30.8667C50.6676 30.2871 51.0152 29.7074 51.3632 28.8958C51.5948 28.3161 51.4792 27.6205 50.8992 27.3886C49.508 26.8089 47.8848 27.5045 47.3052 28.8958C46.9576 29.5914 46.6096 30.2871 46.2616 31.0986C45.4504 32.0261 44.2908 33.3015 43.9432 33.1855C43.4792 32.8377 45.2184 30.5189 44.9864 29.1277C44.8704 28.0842 43.8272 27.2727 42.7836 27.3886C41.1604 27.6205 39.1895 30.6349 39.1895 30.6349C39.4214 30.0552 39.5373 29.4755 39.6533 28.8958C39.5373 27.7364 37.4504 27.2727 36.407 29.3595C35.7114 31.3305 35.1316 33.4174 34.8998 35.5043C34.436 36.4318 32.697 39.2143 31.3057 39.3303C30.1463 39.4462 31.5376 34.3449 31.7694 34.1131C32.3491 33.1855 33.1607 31.2146 33.0448 30.2871C33.0448 29.8233 32.9288 29.4755 32.581 29.2436C32.2332 29.0117 31.7694 28.8958 31.4216 29.0117C30.726 29.2436 30.1463 29.7074 29.7985 30.2871C29.3347 29.7074 28.5232 29.3595 27.7116 29.4755C23.074 29.9393 20.1756 38.055 20.5234 41.8811C20.7552 43.9679 21.7987 45.2431 23.5378 44.8955C25.5087 44.6635 27.1319 41.6491 27.1319 41.6491C27.1319 41.6491 27.5956 44.0839 29.7985 43.8519C31.4216 43.3883 32.8129 42.3447 33.8563 40.9535C33.8563 41.0695 33.7404 41.1855 33.7404 41.4171C33.3926 43.5039 36.7548 43.2723 36.9867 41.6491C38.0301 33.8812 40.5808 30.7508 41.2764 30.7508C41.856 30.7508 39.6533 34.3449 40.9288 35.8521C41.972 37.0115 43.7112 36.084 45.2184 34.8087C44.9864 35.7362 44.8704 36.7796 44.7544 37.7071C44.6388 39.91 45.4504 41.6491 47.5372 41.5331C50.3196 41.4171 53.218 37.939 55.1892 34.6927C55.6528 35.0405 56.2324 35.2724 56.8124 35.3884C56.5804 36.1999 56.5804 37.0115 56.5804 37.7071C56.6964 40.2579 58.4352 41.1855 60.5224 41.0695C62.8412 40.9535 65.6236 39.2143 67.4788 37.4753C67.4788 37.5912 67.4788 37.7071 67.3628 37.7071C67.2468 38.9825 67.4788 41.1855 69.2176 41.3011C71.1888 41.4171 74.6668 39.4462 76.406 37.2434C77.6812 36.5477 76.174 35.1565 75.1304 36.3159ZM76.9856 25.8814C77.2176 25.8814 77.3336 26.1133 77.3336 26.3451C77.3336 28.548 72.0004 33.0696 72.0004 33.0696C72.0004 33.0696 75.4784 25.8814 76.9856 25.8814ZM64.0004 30.403C64.2324 30.403 64.3484 30.403 64.464 30.6349C64.58 30.8667 64.58 30.9827 64.58 31.0986C64.58 32.3739 62.9568 33.3015 61.102 33.3015C62.1456 31.7943 63.1888 30.403 64.0004 30.403ZM28.0594 33.7652C27.9434 35.0405 25.6247 40.9535 24.4653 40.9535C22.9581 41.0695 25.2768 32.7218 27.7116 32.7218C28.1753 32.7218 28.1753 33.0696 28.0594 33.7652ZM8.46572 35.3884C9.97292 35.3884 7.1904 43.1563 7.5382 46.5187C7.88604 49.8807 11.5961 48.9531 11.3642 46.9823C10.9004 43.6199 13.2192 33.0696 15.422 33.0696C17.0452 33.0696 13.567 40.2579 14.2627 44.7795C14.7264 47.6779 18.6684 46.8663 18.2046 44.8955C16.9292 38.9825 21.103 33.3015 20.5234 29.1277C20.2915 27.3886 19.248 26.4611 18.2046 26.4611C14.4946 26.4611 11.4801 34.1131 11.4801 34.1131C11.4801 34.1131 11.9439 29.8233 8.81352 29.5914C4.40784 29.3595 -0.113756 40.4895 0.00218324 50.5763C0.118122 53.8227 4.06004 53.2431 3.82816 50.6923C3.59629 46.1707 6.14696 35.3884 8.46572 35.3884Z" fill="#1FB6FF"/>
</g>
<defs>
<clipPath id="clip0_263_1082">
<rect width="80" height="80" fill="white"/>
</clipPath>
</defs>
</svg>
