<svg width="72" height="72" viewBox="0 0 72 72" fill="none" xmlns="http://www.w3.org/2000/svg">
<path d="M30.375 26.625C30.375 23.5184 32.8935 21 36 21C39.1065 21 41.625 23.5184 41.625 26.625C41.625 28.6873 40.515 30.4905 38.8602 31.4697C37.434 32.3133 36 33.5931 36 35.25V39" stroke="#C1CFFF" stroke-width="5" stroke-linecap="round"/>
<path d="M36.5 48C36.5 48.2761 36.2761 48.5 36 48.5C35.7239 48.5 35.5 48.2761 35.5 48C35.5 47.7239 35.7239 47.5 36 47.5C36.2761 47.5 36.5 47.7239 36.5 48Z" fill="#C1CFFF" stroke="#C1CFFF" stroke-width="5"/>
<path d="M21 10.0135C25.4126 7.46091 30.5358 6 36 6C52.5684 6 66 19.4314 66 36C66 52.5684 52.5684 66 36 66C19.4314 66 6 52.5684 6 36C6 30.5358 7.46091 25.4126 10.0135 21" stroke="#C1CFFF" stroke-width="5" stroke-linecap="round"/>
</svg>
