<svg width="81" height="80" viewBox="0 0 81 80" fill="none" xmlns="http://www.w3.org/2000/svg">
<path fill-rule="evenodd" clip-rule="evenodd" d="M55.1367 62.5868C55.2423 62.3836 55.3435 62.204 55.4299 62.0184C55.4839 61.8996 55.5679 61.876 55.6859 61.8792C56.3939 61.8992 57.1023 61.9212 57.8111 61.928C58.4127 61.934 59.0159 61.9228 59.6183 61.916C60.2971 61.908 60.9759 61.8724 61.6539 61.8916C62.5571 61.918 63.4371 62.0948 64.2539 62.4968C65.2299 62.9772 65.9679 63.7092 66.4711 64.6736C66.7871 65.2852 66.9847 65.9508 67.0527 66.636C67.1603 67.6412 67.0899 68.6228 66.7711 69.584C66.3759 70.7756 65.6259 71.6872 64.5839 72.3704C63.7823 72.896 62.9027 73.2068 61.9603 73.384C60.9627 73.5724 59.9623 73.5116 58.9615 73.5148C57.8639 73.5192 56.7671 73.4956 55.6699 73.4828C55.4779 73.4812 55.4503 73.4448 55.5011 73.2616L55.5479 73.0928C55.6547 72.7568 55.7123 72.7416 56.0535 72.6856C56.2955 72.6472 56.5267 72.5596 56.7327 72.4272C56.8479 72.3512 56.8955 72.1524 56.9403 71.9992C56.9791 71.8656 56.9811 71.7184 56.9823 71.5772C56.9979 69.4368 57.0139 67.2968 57.0227 65.1572C57.0251 64.616 57.0115 64.0752 56.9823 63.5348C56.9611 63.1568 56.7591 62.898 56.3091 62.8084C55.9591 62.7392 55.6067 62.6856 55.2547 62.6236L55.1367 62.5868ZM65.1839 67.7696C65.1367 67.3436 65.1135 66.9136 65.0371 66.4936C64.8547 65.4856 64.4135 64.6072 63.6383 63.9192C62.3855 62.8072 60.8767 62.636 59.2955 62.7684C58.9355 62.7984 58.8579 62.9216 58.8523 63.2916C58.8435 63.8168 58.8347 64.3416 58.8339 64.8668C58.8315 66.5316 58.8315 68.1968 58.8339 69.8616C58.8347 70.3356 58.8399 70.8092 58.8535 71.2816C58.8683 71.7656 59.0439 72.1748 59.5179 72.3624C60.2647 72.658 61.0503 72.6928 61.8339 72.5724C63.0859 72.3804 63.9615 71.6512 64.5491 70.558C65.0139 69.6904 65.1455 68.7436 65.1839 67.7696ZM68.2271 73.4392C68.2123 73.1796 68.3183 72.9656 68.4499 72.7684C68.4855 72.7156 68.6079 72.718 68.6923 72.7012L69.4083 72.5592C69.6615 72.5056 69.7947 72.3356 69.8303 72.0872C69.8539 71.9236 69.8767 71.758 69.8783 71.5924C69.8955 70.2816 69.9079 68.9712 69.9155 67.6604C69.9215 66.348 69.9167 65.0356 69.9167 63.7228L69.9111 63.4724C69.8855 63.0504 69.6815 62.8316 69.2627 62.7696L68.3547 62.6316C68.2427 62.6168 68.2023 62.5628 68.2427 62.4636C68.3127 62.294 68.3799 62.1184 68.4783 61.966C68.5155 61.9096 68.6399 61.888 68.7235 61.8896C69.1571 61.896 69.5911 61.9284 70.0247 61.928L73.8003 61.9056C74.5279 61.9048 75.2303 62.0316 75.8827 62.3796C76.6011 62.7624 77.0027 63.354 77.1179 64.1604C77.2379 65.0072 76.9811 65.7212 76.3623 66.288C76.1079 66.5216 75.7783 66.674 75.4835 66.864L75.3871 66.924C75.6611 67.0248 75.9215 67.1116 76.1755 67.2156C76.9179 67.5196 77.5083 67.9956 77.8211 68.7548C78.0679 69.354 78.0679 69.9792 77.9215 70.6004C77.6939 71.5728 77.0535 72.2196 76.2203 72.7092C75.4383 73.1684 74.5923 73.436 73.6911 73.4812C72.8599 73.5228 72.0247 73.5072 71.1915 73.5168L70.7091 73.5192C69.9063 73.5008 69.1031 73.4808 68.3003 73.4592L68.2271 73.4392ZM71.6879 69.6336H71.6959C71.6959 70.0448 71.6903 70.456 71.6979 70.8672C71.7027 71.1336 71.6935 71.4072 71.7511 71.6636C71.8371 72.0468 72.0123 72.3924 72.4423 72.5024C73.0171 72.6532 73.6175 72.6796 74.2035 72.5796C74.9391 72.4516 75.5259 72.0828 75.8479 71.3824C76.0867 70.8616 76.1223 70.3096 76.0403 69.746C75.9315 69.0036 75.5371 68.4648 74.8815 68.1116C74.4515 67.8796 73.9927 67.738 73.5039 67.7192C72.9567 67.6984 72.4083 67.6972 71.8611 67.6804C71.7071 67.676 71.6859 67.754 71.6867 67.8804C71.6899 68.464 71.6879 69.0484 71.6879 69.6336ZM72.8535 66.8368C73.1527 66.8216 73.4915 66.8172 73.8283 66.7836C74.4735 66.7192 74.9279 66.3948 75.1647 65.778C75.2855 65.4648 75.2803 65.1424 75.2835 64.8168C75.2927 63.9684 74.7979 63.2736 73.9923 62.986C73.3703 62.764 72.7291 62.7604 72.0839 62.778C71.8227 62.7848 71.7059 62.8992 71.7023 63.1624L71.6635 66.5928C71.6615 66.7292 71.7203 66.788 71.8527 66.7924L72.8535 66.8368Z" fill="#94795D"/>
<path fill-rule="evenodd" clip-rule="evenodd" d="M7.19003 72.7807L7.14439 73.3707C6.71939 73.3707 6.32751 73.3675 5.93563 73.3719C5.19751 73.3795 4.45939 73.3915 3.72064 73.4019L3.64939 73.4063C3.54376 73.3939 3.35189 73.3939 3.34689 73.3627C3.31564 73.1871 3.32564 73.0027 3.33376 72.8207C3.33439 72.7999 3.40626 72.7739 3.44814 72.7639L4.02251 72.6355C4.38064 72.5427 4.50689 72.3883 4.52376 72.0183C4.54314 71.6015 4.56251 71.1839 4.56439 70.7671C4.57001 69.7407 4.56376 68.7155 4.56814 67.6895C4.56876 67.4495 4.48564 67.2707 4.26189 67.1731C3.99601 67.0551 3.72827 66.9415 3.45876 66.8319C3.33126 66.7807 3.16564 66.7527 3.18064 66.5815C3.19564 66.4071 3.35626 66.3615 3.50751 66.3271C4.13376 66.1839 4.76063 66.0443 5.38503 65.8919C5.58627 65.8427 5.77875 65.7595 6.01939 65.6755C6.03187 65.8055 6.05503 65.9295 6.05251 66.0531L6.01563 66.6415C6.01503 66.7075 6.04939 66.7963 6.09875 66.8331C6.12875 66.8563 6.22939 66.8143 6.27939 66.7755C6.81315 66.3695 7.37815 66.0187 8.02251 65.8143C9.02063 65.4975 9.87751 65.7915 10.4775 66.6519C10.6888 66.9551 10.6894 66.9551 10.9825 66.7431C11.4856 66.3775 12.0119 66.0551 12.6006 65.8427C13.8932 65.3755 15.135 65.9683 15.5844 67.2699C15.7481 67.7427 15.8106 68.2307 15.8094 68.7295L15.7975 72.0407C15.7969 72.3139 15.8875 72.4695 16.1475 72.5543C16.4394 72.6499 16.7419 72.7155 17.0706 72.8019L16.9944 73.3715C16.6206 73.3715 16.2769 73.3687 15.9332 73.3719C15.0932 73.3795 14.2532 73.3839 13.4138 73.4031C13.2675 73.4071 13.2294 73.3707 13.2219 73.2339C13.1975 72.7955 13.1938 72.7963 13.6063 72.6975L13.745 72.6619C14.1481 72.5519 14.2825 72.4283 14.2856 72.0195C14.295 70.8455 14.3194 69.6687 14.26 68.4975C14.1982 67.2827 13.2338 66.6355 12.0563 66.9471C11.6762 67.0511 11.3183 67.2235 11 67.4555C10.8906 67.5339 10.87 67.6239 10.8787 67.7607C10.9119 68.2783 10.9325 68.7963 10.9369 69.3143C10.9444 70.2215 10.9331 71.1283 10.9369 72.0355C10.9381 72.4031 11.0638 72.5439 11.4269 72.6287L11.9663 72.7531L12.0663 72.7755C12.0737 72.9483 12.0806 73.1207 12.0725 73.2931C12.0675 73.4015 11.9838 73.4107 11.89 73.4087C11.3656 73.3955 10.8406 73.3783 10.3163 73.3795C9.67815 73.3807 9.04063 73.3987 8.40315 73.4099H8.25315C8.25315 73.2271 8.24439 73.0519 8.25939 72.8775C8.26251 72.8355 8.33627 72.7771 8.38687 72.7639L9.01563 72.6307C9.28251 72.5651 9.41003 72.4283 9.42503 72.1571C9.49627 70.9007 9.54751 69.6439 9.42939 68.3883C9.40059 68.1403 9.33179 67.8987 9.22563 67.6727C8.90375 66.9615 8.17939 66.6643 7.34375 66.8783C6.94687 66.9795 6.58875 67.1615 6.25003 67.3907C6.17615 67.4363 6.11547 67.5003 6.07403 67.5763C6.03255 67.6527 6.01179 67.7383 6.01375 67.8251C6.01375 69.0783 6.01815 70.3315 6.02187 71.5839L6.02875 72.0671C6.03627 72.4039 6.17939 72.5815 6.51375 72.6539C6.72875 72.7027 6.94627 72.7355 7.19003 72.7807Z" fill="#50382B"/>
<path fill-rule="evenodd" clip-rule="evenodd" d="M44.9764 65.8025C45.0732 66.2741 45.0712 66.6977 44.7252 67.0189C44.3812 67.3385 43.9464 67.2309 43.522 67.1597C43.5612 67.3833 43.6052 67.5733 43.6264 67.7657C43.7808 69.1965 43.1652 70.2585 41.838 70.8653C41.3368 71.0941 40.8052 71.1789 40.2619 71.2225C39.9919 71.2441 39.7557 71.4501 39.7301 71.6721C39.7038 71.8969 39.8451 72.1285 40.1276 72.1957C40.4607 72.2753 40.808 72.2977 41.15 72.3369C41.884 72.4209 42.6256 72.4589 43.3508 72.5901C44.4468 72.7877 45.0588 73.7445 44.8656 74.8457C44.694 75.8257 44.1264 76.5389 43.3352 77.0857C42.002 78.0097 40.5395 78.2797 38.9819 77.8085C38.0913 77.5385 37.4632 76.9525 37.2463 76.0053C37.1376 75.5309 37.2532 75.1013 37.6101 74.7797C38.0345 74.3985 38.4963 74.0585 38.9407 73.6985L39.0844 73.5541L38.9195 73.4385C38.4663 73.2233 38.1038 72.9289 37.9632 72.4177C37.9151 72.2445 37.9651 72.1309 38.1119 72.0421C38.3619 71.8913 38.6107 71.7385 38.8576 71.5825C38.9738 71.5101 39.0888 71.4353 39.1969 71.3513C39.3445 71.2389 39.3313 71.1553 39.1551 71.0901C38.7451 70.9389 38.3807 70.7197 38.0982 70.3821C37.6263 69.8189 37.4926 69.1485 37.5313 68.4401C37.5919 67.3341 38.1926 66.6053 39.1688 66.1365C40.3295 65.5797 41.494 65.5445 42.6768 66.0521C43.1144 66.2397 43.5756 66.2797 44.0452 66.2469C44.3956 66.2221 44.702 66.0897 44.9764 65.8025ZM40.6996 73.7285C39.8282 73.7209 39.5551 73.8285 39.0438 74.3489C38.4713 74.9325 38.4745 75.7421 39.0457 76.3285C39.4795 76.7725 40.0207 76.9809 40.6224 77.0433C41.3256 77.1157 42.018 77.0865 42.6568 76.7345C43.338 76.3577 43.6768 75.6577 43.524 74.9525C43.3968 74.3709 42.968 74.1045 42.4464 73.9513C41.8524 73.7777 41.2388 73.7445 40.6996 73.7285ZM38.9882 68.1609C39.0201 68.4025 39.0332 68.6477 39.0869 68.8845C39.2263 69.4985 39.4932 70.0377 40.1038 70.3109C40.8208 70.6325 41.7364 70.4945 42.05 69.4885C42.2644 68.8185 42.2396 68.0953 41.9796 67.4421C41.8692 67.1433 41.6708 66.8853 41.4108 66.7021C40.788 66.2677 39.665 66.2101 39.2076 67.1701C39.0588 67.4821 39.0007 67.8141 38.9882 68.1609Z" fill="#4F382B"/>
<path fill-rule="evenodd" clip-rule="evenodd" d="M30.1932 65.6499C30.2163 65.7567 30.2625 65.8779 30.2638 65.9999C30.2657 66.2315 30.2407 66.4635 30.2275 66.6955V66.8967L30.4238 66.7467C30.9613 66.3043 31.5388 65.9275 32.2113 65.7243C33.4251 65.3587 34.6375 66.0231 35.0332 67.2591C35.1832 67.7291 35.2425 68.2123 35.2482 68.7035C35.2607 69.7947 35.2682 70.8859 35.2794 71.9775C35.2832 72.3691 35.3282 72.4391 35.6988 72.5523C35.9097 72.6151 36.1249 72.6631 36.3425 72.6955C36.4619 72.7143 36.5132 72.7611 36.5069 72.8779L36.5082 72.9855C36.5038 73.4375 36.4725 73.4579 36.0344 73.4567C34.9857 73.4547 33.9375 73.4611 32.8888 73.4699C32.5763 73.4723 32.5757 73.4815 32.5444 73.1731L32.5382 72.9955C32.5575 72.7291 32.5638 72.7315 32.8257 72.6931C33.0019 72.6667 33.1769 72.6259 33.3488 72.5811C33.5257 72.5355 33.6107 72.4047 33.6344 72.2299C33.6463 72.1411 33.6619 72.0523 33.6613 71.9635C33.6463 70.7711 33.6657 69.5775 33.6007 68.3867C33.5482 67.4235 32.8132 66.8499 31.8463 66.9155C31.3803 66.9479 30.9322 67.1083 30.5519 67.3799C30.2938 67.5603 30.2419 67.8211 30.2432 68.1015C30.2482 69.2167 30.2588 70.3315 30.2707 71.4475C30.2732 71.6915 30.2801 71.9359 30.3032 72.1787C30.3275 72.4435 30.4207 72.5503 30.6807 72.6079C30.9294 72.6631 31.1832 72.6947 31.4488 72.7391L31.4713 72.9443C31.4801 73.4223 31.4301 73.4579 30.9657 73.4559C29.8813 73.4515 28.7969 73.4587 27.7132 73.4703C27.5425 73.4731 27.4701 73.4191 27.4744 73.2531L27.4719 73.1815C27.4438 72.7511 27.4563 72.7347 27.8638 72.6647L28.0563 72.6259C28.4975 72.5267 28.6107 72.4091 28.6169 71.9611C28.6375 70.5415 28.6451 69.1231 28.6594 67.7035C28.6613 67.4999 28.5844 67.3415 28.3944 67.2575C28.1278 67.1407 27.8597 67.0271 27.5901 66.9175C27.4413 66.8559 27.2713 66.8175 27.2657 66.6115C27.2619 66.4667 27.4169 66.3387 27.6288 66.2955C28.0544 66.2091 28.4838 66.1375 28.9044 66.0315C29.3232 65.9275 29.7344 65.7875 30.1932 65.6499Z" fill="#4F372B"/>
<path fill-rule="evenodd" clip-rule="evenodd" d="M53.6411 69.356C53.6211 70.6816 53.2767 71.7532 52.3391 72.5576C51.1515 73.5784 49.2991 73.9252 47.7847 73.162C47.1387 72.8364 46.6635 72.3372 46.3543 71.6888C45.8799 70.692 45.7611 69.644 46.0087 68.57C46.2535 67.5084 46.8967 66.7388 47.8591 66.2408C48.8491 65.7288 49.8915 65.5288 50.9911 65.7976C52.3815 66.1372 53.3811 67.2708 53.5799 68.7144C53.6155 68.9676 53.6291 69.224 53.6411 69.356ZM52.0303 70.074L51.9767 70.0676C51.9767 69.9428 51.9835 69.8176 51.9755 69.6928C51.9299 68.914 51.7547 68.172 51.3035 67.52C50.8755 66.9028 50.2923 66.5384 49.5335 66.4852C48.6843 66.4252 47.9703 66.9 47.7199 67.7676C47.3435 69.07 47.4711 70.3396 48.1323 71.5328C48.4203 72.0528 48.8475 72.4364 49.4191 72.6384C50.5399 73.0328 51.5335 72.522 51.8255 71.3744C51.9331 70.9508 51.9643 70.5076 52.0303 70.074Z" fill="#4F382B"/>
<path fill-rule="evenodd" clip-rule="evenodd" d="M26.1113 69.4592C26.0882 70.4104 25.8638 71.2896 25.2763 72.054C24.647 72.8728 23.782 73.3104 22.7982 73.4948C21.6351 73.7124 20.5426 73.5148 19.6082 72.734C19.1645 72.3628 18.8613 71.8872 18.6613 71.346C18.3332 70.4584 18.2513 69.5492 18.4532 68.6224C18.6688 67.6304 19.2288 66.8724 20.097 66.3636C21.1007 65.7764 22.1838 65.5148 23.3407 65.7784C24.8282 66.1184 25.687 67.088 26.0045 68.5552C26.0682 68.8516 26.077 69.158 26.1113 69.4592ZM24.4826 70.0864L24.4395 70.0804V69.9016C24.4151 69.0292 24.2445 68.198 23.7238 67.4728C23.3382 66.9348 22.822 66.5972 22.1601 66.5028C21.0813 66.3492 20.3763 66.9892 20.1426 67.8584C19.8376 68.994 19.9332 70.116 20.4051 71.1928C20.6995 71.864 21.1645 72.3872 21.8788 72.6408C22.9926 73.0364 24.0013 72.5128 24.2832 71.3696C24.387 70.9516 24.4182 70.5152 24.4826 70.0864Z" fill="#4F372B"/>
<path fill-rule="evenodd" clip-rule="evenodd" d="M52.0769 20.9653C52.8437 23.1822 53.3953 25.4453 53.5769 27.7903C53.8021 30.7003 53.6993 33.5903 53.0857 36.4522L53.007 36.681C52.8146 36.6816 52.6182 36.6572 52.4302 36.6866C50.841 36.9366 49.2534 37.1953 47.6654 37.4528C46.0234 37.7191 44.3801 37.9747 42.7413 38.2585C42.1609 38.3584 41.4421 38.2391 41.2077 39.0416L41.0953 39.0797L41.1745 34.281L41.0938 22.7022L41.859 22.5709C43.1094 22.3666 44.3601 22.1585 45.6125 21.9591C47.1065 21.7222 48.6013 21.4909 50.0965 21.2597C50.7565 21.1585 51.4169 21.0641 52.0769 20.9653Z" fill="#439934"/>
<path fill-rule="evenodd" clip-rule="evenodd" d="M39.5165 53.0696C38.7096 52.376 37.8746 51.7128 37.1015 50.9828C32.9403 47.058 29.8959 42.4372 28.3965 36.8666C27.9834 35.3341 27.7084 33.7759 27.6196 32.1922C27.5571 31.0835 27.4678 29.9653 27.5465 28.8622C27.7546 25.9291 28.179 23.0241 29.039 20.1985L29.0865 20.1328C29.1703 20.2441 29.2903 20.3428 29.3328 20.4685C30.1728 22.9409 31.0059 25.4159 31.8353 27.8928C34.4409 35.6747 37.0434 43.4584 39.6534 51.2392C39.7046 51.3908 39.8365 51.5152 39.9315 51.652L39.5165 53.0696Z" fill="#45A538"/>
<path fill-rule="evenodd" clip-rule="evenodd" d="M52.0752 20.9661C51.4148 21.0642 50.754 21.1592 50.0948 21.2605C48.5996 21.4918 47.1048 21.723 45.6108 21.9599C44.3588 22.1586 43.1084 22.3668 41.8572 22.5718L41.092 22.703L41.086 22.2042C41.0604 21.7942 41.0176 21.3842 41.012 20.9742L40.9264 13.128C40.9064 11.4911 40.8764 9.85423 40.8432 8.21799C40.8264 7.20099 40.7972 6.18427 40.7552 5.16799C40.7304 4.62239 40.642 4.07923 40.6072 3.53362C40.5865 3.21987 40.614 2.90362 40.6208 2.58862C41.0108 3.34425 41.3928 4.10551 41.7932 4.85551C42.4264 6.04111 43.436 6.91487 44.3452 7.86799C47.9364 11.6374 50.486 16.0174 52.0752 20.9661Z" fill="#46A037"/>
<path fill-rule="evenodd" clip-rule="evenodd" d="M41.0956 39.0795L41.208 39.0414C41.4424 38.2389 42.1612 38.3583 42.742 38.2583C44.3808 37.9745 46.024 37.7189 47.6656 37.4526C49.254 37.1958 50.8411 36.937 52.4307 36.6864C52.6187 36.657 52.8152 36.6814 53.0076 36.6808C52.7108 37.7408 52.4768 38.8239 52.1 39.8545C51.672 41.0232 51.1544 42.1644 50.6052 43.2832C49.782 44.9516 48.764 46.5164 47.572 47.9444C46.6556 49.0456 45.6344 50.0652 44.6112 51.0708C44.0452 51.6264 43.3788 52.0796 42.7576 52.5796L42.5964 52.4696L42.0168 51.9744L41.4176 50.6596C41.008 49.126 40.7844 47.5488 40.752 45.962L40.7632 45.6944L40.8452 44.5356C40.872 44.14 40.908 43.7452 40.9252 43.3496C40.9852 41.9272 41.0388 40.5032 41.0956 39.0795Z" fill="#409433"/>
<path fill-rule="evenodd" clip-rule="evenodd" d="M41.0952 39.0795C41.0392 40.5032 40.9852 41.9276 40.9248 43.3516C40.9076 43.7476 40.872 44.1428 40.8448 44.5376L40.4797 44.6756C39.6684 42.2876 38.8566 39.9245 38.0628 37.5558C36.7497 33.6364 35.4528 29.7114 34.1416 25.7908C33.0827 22.6266 32.0165 19.465 30.9428 16.3058C30.8922 16.1583 30.7484 16.042 30.6484 15.9114L32.986 11.6133C33.0666 11.7526 33.1722 11.8833 33.2228 12.0333C34.3041 15.2333 35.3834 18.4339 36.4534 21.6376C37.846 25.8064 39.2291 29.977 40.6204 34.1464C40.676 34.3126 40.7672 34.4664 40.8548 34.6533L41.1748 34.2808L41.0952 39.0795Z" fill="#4FAA41"/>
<path fill-rule="evenodd" clip-rule="evenodd" d="M30.6484 15.9116C30.7491 16.0423 30.8928 16.1585 30.9428 16.306C32.0165 19.4651 33.0828 22.6268 34.1415 25.791C35.4528 29.7116 36.7497 33.6366 38.0628 37.556C38.8565 39.9247 39.6684 42.2871 40.4797 44.6759L40.8448 44.5379L40.7628 45.6967L40.6884 45.9635C40.5615 47.2315 40.4547 48.5023 40.2997 49.7679C40.2222 50.4023 40.0565 51.0247 39.9309 51.6523C39.8365 51.5155 39.7041 51.3911 39.6528 51.2391C37.0422 43.4583 34.4403 35.6747 31.8347 27.8929C31.0057 25.4163 30.1715 22.9415 29.3322 20.4685C29.2897 20.3429 29.1697 20.2441 29.0859 20.1329L30.6484 15.9116Z" fill="#4AA73C"/>
<path fill-rule="evenodd" clip-rule="evenodd" d="M41.1732 34.2813L40.8532 34.6538C40.7656 34.4669 40.6744 34.3132 40.6188 34.1469C39.2275 29.9775 37.8444 25.8069 36.4519 21.6382C35.3806 18.4348 34.3037 15.2334 33.2213 12.0338C33.1706 11.8838 33.065 11.7532 32.9844 11.6138L35.875 7.81128C35.9663 7.93252 36.0962 8.04068 36.1431 8.17752C36.9456 10.5275 37.7406 12.8794 38.5319 15.2332C39.2706 17.4319 39.9981 19.6332 40.7456 21.8282C40.7956 21.975 40.97 22.0788 41.0864 22.2038L41.0924 22.7025L41.1732 34.2813Z" fill="#57AE47"/>
<path fill-rule="evenodd" clip-rule="evenodd" d="M41.0864 22.2036C40.9692 22.0792 40.7956 21.9755 40.7456 21.828C39.9988 19.633 39.2706 17.4318 38.5319 15.233C37.7412 12.8792 36.945 10.5274 36.1431 8.17739C36.0963 8.04051 35.9663 7.93239 35.875 7.81111C36.815 6.89051 37.7256 5.93675 38.7038 5.05863C39.5731 4.27863 40.2719 3.44237 40.3044 2.20925L40.3731 1.96362L40.6204 2.58737C40.6144 2.90237 40.5863 3.21862 40.6068 3.53237C40.6424 4.07799 40.7304 4.62111 40.7548 5.16675C40.8004 6.18239 40.8224 7.19987 40.8432 8.21675C40.8764 9.85299 40.9064 11.4899 40.9264 13.1268L41.012 20.973C41.018 21.3836 41.0612 21.7936 41.0864 22.2036Z" fill="#60B24F"/>
<path fill-rule="evenodd" clip-rule="evenodd" d="M39.9312 51.6504C40.0569 51.0228 40.2225 50.4004 40.3 49.766C40.455 48.5012 40.5619 47.2296 40.6888 45.9616L40.7208 45.9568L40.752 45.9624C40.7844 47.5492 41.008 49.1264 41.4176 50.6596C41.3332 50.7712 41.2152 50.8692 41.17 50.994C40.8232 51.9728 40.4956 52.9596 40.1469 53.938C40.0994 54.0716 39.9656 54.176 39.8725 54.2928L39.5156 53.068L39.9312 51.6504Z" fill="#A9AA88"/>
<path fill-rule="evenodd" clip-rule="evenodd" d="M39.873 54.2943C39.9662 54.1767 40.0999 54.0731 40.1474 53.9395C40.4962 52.9611 40.8236 51.9743 41.1704 50.9955C41.2148 50.8707 41.3336 50.7723 41.418 50.6611L42.0176 51.9763C41.8992 52.1439 41.7356 52.2955 41.67 52.4823L40.5224 55.8523C40.4749 55.9883 40.3143 56.0831 40.2055 56.1975L39.873 54.2943Z" fill="#B6B598"/>
<path fill-rule="evenodd" clip-rule="evenodd" d="M40.2051 56.1963C40.3132 56.0819 40.4745 55.9867 40.522 55.8511L41.6696 52.4811C41.7344 52.2943 41.8988 52.1423 42.0168 51.9751L42.5968 52.4691C42.3168 52.7463 42.1612 53.0663 42.2552 53.4707L42.0788 54.0475C41.9988 54.1463 41.8824 54.2323 41.8432 54.3455C41.4424 55.4931 41.0608 56.6467 40.6568 57.7935C40.6056 57.9387 40.4638 58.0531 40.3645 58.1819L40.2051 56.1963Z" fill="#C2C1A7"/>
<path fill-rule="evenodd" clip-rule="evenodd" d="M40.363 58.1825C40.463 58.0537 40.6048 57.9393 40.6556 57.7945C41.0592 56.6477 41.4416 55.4937 41.8416 54.3461C41.8812 54.2333 41.9972 54.1477 42.0772 54.0481L41.8344 56.6957C41.7692 56.7705 41.6756 56.8361 41.6444 56.9233L40.8356 59.2405C40.7788 59.3989 40.67 59.5401 40.5849 59.6881C40.5093 59.5893 40.3743 59.4937 40.368 59.3913C40.3443 58.9901 40.3611 58.5857 40.363 58.1825Z" fill="#CECDB7"/>
<path fill-rule="evenodd" clip-rule="evenodd" d="M40.5859 59.6884C40.6708 59.54 40.7796 59.3988 40.8364 59.2408L41.6452 56.9232C41.6764 56.8356 41.7708 56.7708 41.8352 56.6956L41.8416 58.4332L41.2596 59.9252L40.5859 59.6884Z" fill="#DBDAC7"/>
<path fill-rule="evenodd" clip-rule="evenodd" d="M41.2598 59.9261L41.8418 58.4341L41.9618 60.1989L41.2598 59.9261Z" fill="#EBE9DC"/>
<path fill-rule="evenodd" clip-rule="evenodd" d="M42.2537 53.4717C42.1605 53.0681 42.3157 52.7481 42.5957 52.4705L42.7569 52.5805L42.2537 53.4717Z" fill="#CECDB7"/>
<path fill-rule="evenodd" clip-rule="evenodd" d="M40.7503 45.9628L40.7191 45.9572L40.6875 45.9624L40.7615 45.6968L40.7503 45.9628Z" fill="#4FAA41"/>
</svg>
