<svg width="81" height="80" viewBox="0 0 81 80" fill="none" xmlns="http://www.w3.org/2000/svg">
<g clip-path="url(#clip0_263_1192)">
<mask id="mask0_263_1192" style="mask-type:luminance" maskUnits="userSpaceOnUse" x="0" y="0" width="81" height="80">
<path d="M80.3555 0H0.355469V80H80.3555V0Z" fill="white"/>
</mask>
<g mask="url(#mask0_263_1192)">
<path d="M73.9092 61.4008C69.5512 61.2812 66.2236 61.6888 63.3768 62.8876C62.5684 63.2296 61.28 63.2368 61.148 64.25C61.5924 64.7164 61.6604 65.412 62.0148 65.9856C62.6936 67.082 63.8412 68.5564 64.8644 69.3308C65.9824 70.1732 67.1348 71.0764 68.3336 71.8064C70.4672 73.1076 72.848 73.85 74.8984 75.1512C76.11 75.92 77.3104 76.8868 78.4924 77.7536C79.076 78.1812 79.4692 78.8476 80.2256 79.1164V78.9944C79.8272 78.4868 79.7248 77.788 79.3584 77.2588L77.7472 75.6476C76.1724 73.5576 74.1728 71.722 72.0492 70.198C70.3548 68.98 66.5612 67.3368 65.8556 65.3668L65.7312 65.2424C66.9324 65.1056 68.3384 64.6712 69.4492 64.3732C71.3116 63.8752 72.9772 64.0044 74.8984 63.5064L77.5012 62.7644V62.2688C76.5292 61.2724 75.836 59.952 74.7768 59.0488C72.0012 56.6856 68.9736 54.3268 65.856 52.3596C64.1272 51.268 61.9912 50.5576 60.158 49.6324C59.5404 49.3224 58.4584 49.1588 58.0512 48.6412C57.0892 47.4156 56.5644 45.8608 55.8224 44.43C54.2672 41.4344 52.7412 38.1657 51.3616 35.0138C50.4216 32.8657 49.8092 30.7463 48.6372 28.82C43.0124 19.5719 36.958 13.9888 27.578 8.50252C25.5811 7.33568 23.1786 6.8744 20.6392 6.27128L16.5499 6.0244C15.7174 5.67752 14.853 4.6594 14.0718 4.1638C10.9649 2.19941 2.99361 -2.07059 0.691113 3.54441C-0.761387 7.08692 2.86424 10.5438 4.16049 12.3407C5.07112 13.5982 6.23548 15.0113 6.88488 16.4275C7.31488 17.36 7.388 18.2925 7.75424 19.2769C8.653 21.7038 9.4386 24.345 10.6036 26.5863C11.1918 27.7213 11.8411 28.9157 12.5861 29.9313C13.0405 30.5538 13.8236 30.83 13.9486 31.7894C13.1818 32.8613 13.138 34.5238 12.7086 35.8788C10.7724 41.9852 11.5049 49.5724 14.3199 54.0896C15.1842 55.4788 17.2205 58.452 20.018 57.312C22.4667 56.3132 21.9199 53.2252 22.6205 50.498C22.7792 49.8808 22.6818 49.4264 22.9918 49.0112V49.1356L25.223 53.5936C26.8736 56.2524 29.8005 59.0308 32.2836 60.9056C33.5705 61.8776 34.5836 63.5568 36.2486 64.1256V64.0012H36.1242C35.8017 63.498 35.2968 63.2908 34.8867 62.888C33.9174 61.9364 32.8386 60.7544 32.0374 59.6656C29.7792 56.602 27.7842 53.2468 25.968 49.7564C25.0986 48.0888 24.3442 46.2508 23.6118 44.5536C23.3286 43.8996 23.3336 42.908 22.7449 42.5712C21.9442 43.8136 20.7624 44.82 20.1424 46.2868C19.1536 48.6332 19.0242 51.4968 18.658 54.4632C18.4405 54.5412 18.5361 54.4876 18.4092 54.5876C16.683 54.17 16.078 52.3952 15.4355 50.8696C13.8142 47.0168 13.5118 40.8132 14.9399 36.375C15.3086 35.2275 16.9786 31.6144 16.3024 30.5525C15.9799 29.4957 14.9155 28.8825 14.3199 28.0744C13.5824 27.0756 12.848 25.76 12.3374 24.605C11.0092 21.6019 10.3918 18.2282 8.99236 15.1913C8.3236 13.7388 7.19548 12.2688 6.268 10.98C5.23988 9.5494 4.09049 8.4944 3.29424 6.76628C3.01111 6.15128 2.62799 5.16692 3.04549 4.53752C3.17987 4.11004 3.36799 3.93191 3.78987 3.79316C4.50736 3.23879 6.50988 3.97879 7.25676 4.2888C9.24424 5.1138 10.9017 5.90004 12.5861 7.01568C13.3917 7.55004 14.2099 8.58568 15.1861 8.8738H16.3018C18.0449 9.2744 19.998 8.99568 21.6286 9.49128C24.5092 10.3675 27.0899 11.73 29.4336 13.2094C36.5724 17.7188 42.4124 24.1344 46.406 31.7932C47.048 33.0263 47.3268 34.2007 47.8928 35.5088C49.0328 38.1457 50.4712 40.858 51.606 43.4388C52.7412 46.0096 53.8448 48.6076 55.4484 50.748C56.2912 51.8736 59.5428 52.4768 61.0224 53.102C62.06 53.5388 63.7592 53.9956 64.7404 54.5888C66.6156 55.7196 68.4316 57.0668 70.1924 58.3044C71.0684 58.9244 73.7736 60.2844 73.908 61.4024L73.9092 61.4008ZM18.5311 14.2007C17.623 14.1838 16.9811 14.2982 16.3024 14.4475V14.5719H16.4242C16.8586 15.4607 17.623 16.0344 18.1599 16.8007L19.3974 19.4032L19.5218 19.2813C20.2886 18.7394 20.6399 17.875 20.6349 16.5544C20.3274 16.2294 20.2836 15.8269 20.0149 15.4388C19.6636 14.9238 18.9774 14.6332 18.5305 14.2013L18.5311 14.2007Z" fill="#00618A"/>
</g>
</g>
<defs>
<clipPath id="clip0_263_1192">
<rect width="80.4" height="80" fill="white" transform="translate(0.199219)"/>
</clipPath>
</defs>
</svg>
