<svg width="92" height="80" viewBox="0 0 92 80" fill="none" xmlns="http://www.w3.org/2000/svg">
<g clip-path="url(#clip0_263_1309)">
<path d="M75.1438 25.9296C74.1758 25.6013 73.1993 25.2972 72.2153 25.0175C72.3805 24.3501 72.533 23.6908 72.668 23.0432C74.885 12.4074 73.4355 3.83895 68.4854 1.01782C63.7391 -1.6867 55.9767 1.13338 48.1377 7.87605C47.365 8.54179 46.6096 9.22668 45.872 9.93007C45.3782 9.46235 44.8757 9.00367 44.3648 8.55431C36.1488 1.34482 27.9137 -1.69372 22.9687 1.13549C18.2267 3.84844 16.8226 11.9033 18.8185 21.9831C19.017 22.9814 19.2412 23.9746 19.4908 24.9616C18.3252 25.2889 17.2003 25.6374 16.1239 26.0083C6.49131 29.3275 0.339844 34.5289 0.339844 39.9243C0.339844 45.4967 6.94373 51.0856 16.9764 54.4748C17.7899 54.7487 18.61 55.0024 19.4361 55.2353C19.1678 56.2984 18.9296 57.3689 18.7218 58.4452C16.819 68.3496 18.3049 76.2146 23.0341 78.9101C27.9186 81.6941 36.1168 78.8329 44.0993 71.9365C44.7466 71.3755 45.3796 70.7991 45.9978 70.2071C46.7965 70.9689 47.6167 71.7082 48.4572 72.4249C56.1899 79.0009 63.8266 81.656 68.5508 78.9529C73.4308 76.1609 75.0172 67.7125 72.9579 57.4334C72.7955 56.6282 72.6139 55.8268 72.4125 55.0301C72.988 54.8616 73.5532 54.688 74.1038 54.5078C84.5339 51.0927 91.3203 45.5711 91.3203 39.9243C91.3203 34.5093 84.9701 29.2727 75.1438 25.9296ZM72.8817 50.8616C72.3842 51.0245 71.8737 51.1812 71.3537 51.3341C70.2021 47.7318 68.6482 43.901 66.7466 39.9429C68.5612 36.0793 70.0553 32.2975 71.1744 28.7184C72.1052 28.9847 73.0082 29.2653 73.8788 29.5614C82.2981 32.4261 87.4337 36.6609 87.4337 39.9243C87.4337 43.4001 81.8873 47.9125 72.8817 50.8616ZM69.1452 58.1793C70.0558 62.7242 70.1852 66.8339 69.5824 70.0466C69.0407 72.9336 67.9508 74.8579 66.6035 75.6287C63.7362 77.2692 57.605 75.1369 50.9922 69.5129C50.2106 68.8471 49.4473 68.1595 48.7043 67.4513C51.268 64.6805 53.8304 61.4593 56.3306 57.8814C60.7292 57.496 64.8845 56.8649 68.6525 56.0042C68.8341 56.7252 68.9984 57.4508 69.1452 58.1793ZM31.357 75.3454C28.5558 76.3228 26.3247 76.3511 24.976 75.5826C22.1062 73.9468 20.9131 67.632 22.5405 59.1614C22.7339 58.1605 22.9554 57.1652 23.2047 56.1765C26.9314 56.9911 31.0564 57.5769 35.465 57.9304C37.9826 61.4311 40.6186 64.6489 43.2751 67.4664C42.7106 68.0066 42.1326 68.5322 41.5419 69.0442C38.0118 72.0936 34.4746 74.2574 31.357 75.3454ZM18.2339 50.8405C13.7975 49.3416 10.1338 47.3939 7.62256 45.2687C5.3658 43.359 4.22677 41.4627 4.22677 39.9243C4.22677 36.6501 9.16566 32.4738 17.4033 29.6355C18.403 29.2913 19.4493 28.9664 20.535 28.6616C21.6737 32.3214 23.167 36.1481 24.9692 40.0177C23.1436 43.9445 21.6289 47.8325 20.4792 51.5355C19.7251 51.3219 18.9764 51.0904 18.2339 50.8405ZM22.6329 21.2452C20.9231 12.6093 22.0586 6.09496 24.9163 4.45994C27.9599 2.71851 34.6903 5.20141 41.7842 11.4267C42.2468 11.8336 42.7019 12.2487 43.1493 12.6719C40.5059 15.4772 37.8941 18.671 35.3989 22.151C31.12 22.543 27.0241 23.1724 23.2584 24.0157C23.0264 23.0976 22.8178 22.1736 22.6329 21.2452ZM61.8779 30.8231C60.9885 29.3046 60.0657 27.8053 59.1108 26.3262C62.0139 26.689 64.7951 27.1705 67.4068 27.7592C66.6228 30.2432 65.6454 32.8399 64.4953 35.5022C63.6544 33.9254 62.7819 32.3654 61.8779 30.8231ZM45.8738 15.4175C47.6661 17.337 49.4619 19.4799 51.2275 21.805C47.6454 21.6378 44.057 21.6371 40.4747 21.8029C42.2424 19.4992 44.0531 17.3591 45.8738 15.4175ZM29.767 30.849C28.8744 32.379 28.018 33.9293 27.1986 35.4987C26.067 32.8458 25.0986 30.2372 24.3078 27.7181C26.9036 27.1442 29.6718 26.6749 32.5562 26.3188C31.5907 27.807 30.6607 29.3177 29.767 30.849ZM32.6389 53.8028C29.659 53.4744 26.8492 53.0292 24.2542 52.4706C25.0574 49.9068 26.0471 47.2428 27.2032 44.5328C28.0259 46.1034 28.8858 47.6546 29.7823 49.1854C30.7042 50.7591 31.6588 52.3002 32.6389 53.8028ZM45.9811 64.7021C44.1387 62.7379 42.3013 60.5647 40.507 58.2278C42.2491 58.2951 44.025 58.3294 45.83 58.3294C47.6845 58.3294 49.5174 58.2885 51.3221 58.2089C49.5504 60.5882 47.7617 62.7647 45.9811 64.7021ZM64.532 44.3944C65.748 47.1341 66.773 49.784 67.5866 52.3045C64.949 52.8993 62.101 53.3784 59.1 53.7341C60.0614 52.2278 60.9927 50.7021 61.893 49.1591C62.8083 47.5906 63.6883 46.0018 64.532 44.3944ZM58.5264 47.24C57.1485 49.6061 55.6925 51.9271 54.1617 54.1995C51.389 54.3939 48.6101 54.4899 45.83 54.4885C42.9986 54.4885 40.2447 54.4014 37.5928 54.2315C36.022 51.9642 34.5386 49.6391 33.1458 47.2607C31.7594 44.8953 30.4649 42.4786 29.2642 40.016C30.4618 37.5527 31.7528 35.1348 33.1344 32.7675L33.134 32.7679C34.5151 30.3999 35.9866 28.0846 37.5455 25.8271C40.2511 25.6248 43.0256 25.5194 45.8297 25.5194C48.6464 25.5194 51.4252 25.6258 54.1297 25.8295C55.6732 28.0837 57.1353 30.391 58.5137 32.7471C59.9 35.1092 61.2078 37.5153 62.4355 39.9615C61.2205 42.4327 59.9165 44.8604 58.5264 47.24ZM66.5443 4.34543C69.5904 6.08193 70.7753 13.0846 68.8614 22.2676C68.7391 22.8535 68.6017 23.4503 68.4525 24.0554C64.6774 23.1942 60.5786 22.5539 56.2873 22.156C53.7875 18.6376 51.197 15.4389 48.597 12.6697C49.2784 12.0205 49.9758 11.388 50.6892 10.7731C57.4064 4.99628 63.684 2.71535 66.5443 4.34543ZM45.83 31.895C50.317 31.895 53.9541 35.4899 53.9541 39.9243C53.9541 44.3586 50.317 47.9534 45.83 47.9534C41.3432 47.9534 37.7058 44.3586 37.7058 39.9243C37.7058 35.4899 41.3432 31.895 45.83 31.895Z" fill="#00D8FF"/>
</g>
<defs>
<clipPath id="clip0_263_1309">
<rect width="91.7647" height="80" fill="white"/>
</clipPath>
</defs>
</svg>
