<svg width="72" height="80" viewBox="0 0 72 80" fill="none" xmlns="http://www.w3.org/2000/svg">
<g clip-path="url(#clip0_263_1230)">
<path d="M35.6824 79.7604C34.5865 79.7604 33.5636 79.468 32.6138 78.9568L22.8962 73.1844C21.435 72.3808 22.1656 72.0888 22.6039 71.9424C24.5766 71.2848 24.9419 71.1388 26.9876 69.9696C27.207 69.8236 27.4993 69.8964 27.7182 70.0428L35.171 74.4996C35.4632 74.6456 35.8285 74.6456 36.0477 74.4996L65.2003 57.622C65.4927 57.476 65.6387 57.1836 65.6387 56.8184V23.1356C65.6387 22.7703 65.4927 22.4781 65.2003 22.332L36.0477 5.52712C35.7554 5.381 35.3902 5.381 35.171 5.52712L6.01828 22.3322C5.72604 22.4784 5.57992 22.8436 5.57992 23.1359V56.8184C5.57992 57.1108 5.72604 57.476 6.01828 57.622L13.9825 62.2248C18.2933 64.4168 20.9963 61.8596 20.9963 59.3024V26.058C20.9963 25.6197 21.3619 25.1813 21.8733 25.1813H25.5997C26.0381 25.1813 26.4764 25.5466 26.4764 26.058V59.302C26.4764 65.0744 23.3345 68.4352 17.8547 68.4352C16.1743 68.4352 14.8592 68.4352 11.1331 66.6084L3.46114 62.2248C1.56155 61.1288 0.392578 59.0828 0.392578 56.8912V23.209C0.392578 21.0171 1.56155 18.9714 3.46114 17.8752L32.6138 0.997608C34.4404 -0.0252444 36.9244 -0.0252444 38.751 0.997608L67.9035 17.8752C69.8031 18.9712 70.9723 21.0168 70.9723 23.209V56.8916C70.9723 59.0832 69.8031 61.1288 67.9035 62.2248L38.751 79.1032C37.8012 79.5416 36.7052 79.7604 35.6824 79.7604ZM44.6691 56.5992C31.883 56.5992 29.2528 50.7544 29.2528 45.786C29.2528 45.3476 29.618 44.9092 30.1295 44.9092H33.9286C34.367 44.9092 34.7326 45.2016 34.7326 45.6396C35.3171 49.512 36.9975 51.412 44.7423 51.412C50.8795 51.412 53.5103 50.0236 53.5103 46.736C53.5103 44.836 52.7795 43.448 43.2079 42.498C35.244 41.6944 30.2756 39.9407 30.2756 33.5844C30.2756 27.666 35.2438 24.159 43.5731 24.159C52.9255 24.159 57.5283 27.3737 58.1131 34.3878C58.1131 34.607 58.0399 34.8262 57.8939 35.0454C57.7475 35.1915 57.5283 35.3376 57.3091 35.3376H53.5103C53.1447 35.3376 52.7795 35.0454 52.7063 34.6801C51.8295 30.6617 49.5647 29.3466 43.5731 29.3466C36.8516 29.3466 36.0477 31.6846 36.0477 33.438C36.0477 35.5571 36.9975 36.2144 46.0575 37.3833C55.0443 38.5523 59.2819 40.2328 59.2819 46.5164C59.2087 52.946 53.9483 56.5992 44.6691 56.5992Z" fill="#539E43"/>
</g>
<defs>
<clipPath id="clip0_263_1230">
<rect width="71.2" height="80" fill="white" transform="translate(0.0878906)"/>
</clipPath>
</defs>
</svg>
