<svg width="81" height="60" viewBox="0 0 81 60" fill="none" xmlns="http://www.w3.org/2000/svg">
<path d="M46.2441 16.4209L43.4823 21.222L34.0301 4.79981L5.01047 55.1988H24.6893C24.6841 55.824 24.8038 56.4444 25.0416 57.0242C25.2795 57.604 25.6308 58.1317 26.0754 58.5778C26.5201 59.0235 27.0494 59.3784 27.6332 59.6224C28.217 59.8667 28.8437 59.9948 29.4778 60H5.01047C4.16777 59.9936 3.3418 59.7668 2.61692 59.343C1.89205 58.9188 1.29423 58.3127 0.884485 57.5865C0.464772 56.8563 0.244141 56.0313 0.244141 55.1921C0.244141 54.3532 0.464772 53.5283 0.884485 52.7981L29.8844 2.39926C30.2966 1.67173 30.8981 1.06584 31.6269 0.644092C32.3556 0.222342 33.1852 0 34.0301 0C34.875 0 35.7046 0.222342 36.4334 0.644092C37.1621 1.06584 37.7636 1.67173 38.1758 2.39926L46.2441 16.4209Z" fill="#00C58E"/>
<path d="M66.6076 52.7285L48.5014 20.8475L45.7443 16L42.9932 20.8475L24.8808 52.7285C24.4634 53.4682 24.2441 54.3031 24.2441 55.1525C24.2441 56.0014 24.4634 56.8363 24.8808 57.576C25.2928 58.3097 25.8922 58.9204 26.6178 59.3463C27.3434 59.7722 28.169 59.9976 29.0104 60H62.4782C63.3205 59.9964 64.1471 59.769 64.8728 59.3407C65.5986 58.9124 66.1973 58.2988 66.6076 57.5632C67.0251 56.8235 67.2441 55.9886 67.2441 55.1392C67.2441 54.2902 67.0251 53.4553 66.6076 52.7156V52.7285ZM29.0104 55.1525L45.7443 25.6885L62.4782 55.1525H29.0104Z" fill="#2F495E"/>
<path d="M79.6113 57.6028C79.2056 58.3275 78.6152 58.9315 77.9002 59.3527C77.1856 59.7739 76.3719 59.9972 75.5428 60H62.7568C63.3798 59.9948 63.9956 59.8665 64.569 59.6229C65.1424 59.3793 65.6622 59.0245 66.0988 58.5795C66.5354 58.134 66.88 57.6068 67.1132 57.0282C67.3463 56.4493 67.4633 55.8298 67.457 55.206H75.5297L52.634 14.8121L48.9652 21.273L46.2441 16.479L48.5587 12.3957C48.964 11.6692 49.5552 11.0643 50.2718 10.6432C50.9879 10.222 51.8032 10 52.634 10C53.4643 10 54.28 10.222 54.9961 10.6432C55.7123 11.0643 56.3035 11.6692 56.7088 12.3957L79.6113 52.8219C80.026 53.5522 80.2441 54.3783 80.2441 55.2187C80.2441 56.0591 80.026 56.8852 79.6113 57.6159V57.6028Z" fill="#108775"/>
</svg>
