<svg width="81" height="80" viewBox="0 0 81 80" fill="none" xmlns="http://www.w3.org/2000/svg">
<g clip-path="url(#clip0_263_1232)">
<mask id="mask0_263_1232" style="mask-type:luminance" maskUnits="userSpaceOnUse" x="0" y="0" width="81" height="80">
<path d="M80.4453 0H0.445312V80H80.4453V0Z" fill="white"/>
</mask>
<g mask="url(#mask0_263_1232)">
<path d="M0.445312 40.0004C0.445312 51.6208 18.3541 61.042 40.4455 61.042C62.5367 61.042 80.4455 51.6208 80.4455 40.0004C80.4455 28.3796 62.5359 18.9584 40.4455 18.9584C18.3541 18.9584 0.445312 28.3796 0.445312 40.0004Z" fill="url(#paint0_radial_263_1232)"/>
<path d="M40.4455 59.4796C61.6735 59.4796 78.8827 50.7576 78.8827 40.0004C78.8827 29.2415 61.6735 20.5209 40.4455 20.5209C19.2172 20.5209 2.00781 29.2415 2.00781 40.0004C2.00781 50.7576 19.2172 59.4796 40.4455 59.4796Z" fill="#777BB3"/>
<path d="M22.1767 42.4156C23.9223 42.4156 25.2248 42.0936 26.0491 41.4592C26.8654 40.8304 27.4285 39.7425 27.7241 38.2249C27.9991 36.8062 27.8941 35.8162 27.4117 35.2812C26.9191 34.7349 25.8535 34.4581 24.2448 34.4581H21.4548L19.9091 42.4156H22.1767ZM13.0523 52.2176C12.9883 52.2172 12.9251 52.2032 12.8672 52.1756C12.8094 52.1484 12.7583 52.1084 12.7177 52.0588C12.6771 52.0096 12.6479 51.9516 12.6323 51.8896C12.6166 51.8276 12.6149 51.7628 12.6273 51.7L16.7254 30.6137C16.7448 30.5151 16.7977 30.4263 16.8752 30.3624C16.9527 30.2985 17.0499 30.2633 17.1504 30.2631H25.9841C28.7604 30.2631 30.8267 31.0168 32.126 32.5037C33.431 33.9975 33.8348 36.0875 33.3241 38.7131C33.116 39.7825 32.7585 40.7756 32.2617 41.6656C31.7444 42.5812 31.0845 43.408 30.3067 44.1156C29.3498 45.0104 28.2667 45.6604 27.0898 46.0424C25.9323 46.42 24.4448 46.6112 22.671 46.6112H19.0935L18.0723 51.8664C18.053 51.9652 17.9999 52.0544 17.9222 52.1184C17.8444 52.1824 17.7468 52.2176 17.646 52.2176H13.0523Z" fill="black"/>
<path d="M21.8137 34.8912H24.2456C26.1875 34.8912 26.8619 35.3175 27.0912 35.5719C27.4706 35.9931 27.5431 36.8825 27.2981 38.1419C27.0237 39.5525 26.515 40.5532 25.7856 41.1144C25.0394 41.6892 23.8244 41.9808 22.1775 41.9808H20.4362L21.8137 34.8912ZM25.985 29.8288H17.1519C16.9504 29.8288 16.7553 29.8988 16.5998 30.0268C16.4442 30.1548 16.338 30.333 16.2994 30.5306L12.2012 51.6176C12.177 51.7432 12.1809 51.8724 12.2125 51.9964C12.2441 52.1204 12.3026 52.236 12.384 52.3344C12.4654 52.4332 12.5676 52.5128 12.6832 52.5672C12.7989 52.622 12.9252 52.6504 13.0531 52.6508H17.6469C17.8483 52.6504 18.0434 52.5804 18.1988 52.452C18.3542 52.324 18.4602 52.146 18.4987 51.948L19.4519 47.0444H22.6712C24.4912 47.0444 26.0237 46.8456 27.2256 46.4544C28.4612 46.0532 29.5981 45.3724 30.6044 44.4312C31.4146 43.6932 32.1021 42.8312 32.6412 41.8768C33.1606 40.9476 33.5344 39.91 33.7506 38.795C34.2881 36.0306 33.8512 33.8175 32.4531 32.2175C31.0681 30.6319 28.8919 29.8281 25.985 29.8281V29.8288ZM19.3831 42.848H22.1775C24.0294 42.848 25.4087 42.5 26.315 41.8012C27.2219 41.1036 27.8325 39.9388 28.1512 38.3069C28.4544 36.7394 28.3162 35.6338 27.7356 34.9894C27.1537 34.3456 25.9912 34.0231 24.2456 34.0231H21.0981L19.3831 42.848ZM25.9856 30.695C28.6431 30.695 30.5812 31.3931 31.8 32.7875C33.0187 34.1825 33.385 36.1294 32.9 38.6288C32.6987 39.6588 32.3606 40.6 31.8844 41.4524C31.4069 42.3064 30.7844 43.0864 30.015 43.7944C29.0975 44.6524 28.0794 45.2644 26.9575 45.6288C25.8362 45.9936 24.4075 46.1756 22.6719 46.1756H18.7369L17.6475 51.782H13.0537L17.1525 30.695H25.9856Z" fill="white"/>
<path d="M43.8567 46.6108C43.7927 46.6108 43.7295 46.5964 43.6715 46.5692C43.6135 46.542 43.5623 46.5024 43.5215 46.4528C43.4807 46.4036 43.4515 46.3456 43.4355 46.2836C43.4199 46.2216 43.4183 46.1568 43.4303 46.0936L45.2427 36.7638C45.4159 35.8763 45.3735 35.24 45.1243 34.97C44.9711 34.8057 44.5123 34.53 43.1555 34.53H39.8704L37.5916 46.26C37.572 46.3588 37.5188 46.4476 37.4409 46.5116C37.363 46.5752 37.2654 46.61 37.1647 46.61H32.6085C32.5445 46.61 32.4812 46.596 32.4233 46.5688C32.3654 46.5416 32.3142 46.5016 32.2734 46.4524C32.2326 46.4032 32.2033 46.3452 32.1874 46.2832C32.1715 46.2212 32.1696 46.1568 32.1816 46.0936L36.2804 25.0069C36.2998 24.9081 36.3529 24.8191 36.4306 24.7552C36.5084 24.6912 36.606 24.6563 36.7066 24.6563H41.2627C41.3267 24.6562 41.3903 24.6703 41.4479 24.6976C41.5059 24.7248 41.5571 24.7645 41.5979 24.8139C41.6387 24.8632 41.6679 24.9209 41.6839 24.9829C41.6999 25.0449 41.7019 25.1097 41.6899 25.1725L40.7011 30.2625H44.2343C46.9259 30.2625 48.7511 30.7363 49.8143 31.7131C50.8971 32.7088 51.2359 34.3007 50.8191 36.4463L48.9123 46.26C48.8927 46.3588 48.8395 46.4476 48.7619 46.5112C48.6839 46.5752 48.5867 46.61 48.4859 46.61L43.8567 46.6108Z" fill="black"/>
<path d="M41.2635 24.2213H36.7067C36.5052 24.2214 36.3099 24.2915 36.1544 24.4196C35.9989 24.5478 35.8927 24.726 35.8542 24.9238L31.7561 46.01C31.7317 46.1356 31.7355 46.2652 31.7671 46.3892C31.7986 46.5132 31.8572 46.6288 31.9386 46.7276C32.0199 46.8264 32.1222 46.906 32.2379 46.9604C32.3536 47.0152 32.4799 47.0436 32.6079 47.0436H37.1648C37.3663 47.0436 37.5616 46.9736 37.7171 46.8456C37.8726 46.7172 37.9787 46.5392 38.0173 46.3412L40.2279 34.9632H43.1543C44.5091 34.9632 44.7943 35.2526 44.8047 35.2657C44.8875 35.3532 44.9955 35.7626 44.8167 36.6807L43.0043 46.01C42.9799 46.1356 42.9835 46.2652 43.0151 46.3892C43.0467 46.5136 43.1055 46.6288 43.1867 46.7276C43.2683 46.8264 43.3707 46.906 43.4863 46.9608C43.6023 47.0152 43.7287 47.0436 43.8567 47.0436H48.4867C48.6883 47.0436 48.8831 46.9736 49.0387 46.8452C49.1939 46.7172 49.2999 46.5388 49.3387 46.3412L51.2455 36.5288C51.6923 34.2251 51.3099 32.4976 50.1079 31.3932C48.9603 30.3394 47.0391 29.8276 44.2343 29.8276H41.2279L42.1159 25.2557C42.1403 25.13 42.1367 25.0004 42.1051 24.8762C42.0739 24.752 42.0151 24.6364 41.9335 24.5376C41.8523 24.4387 41.7499 24.3591 41.6339 24.3044C41.5183 24.2498 41.3915 24.2214 41.2635 24.2213ZM41.2635 25.0901L40.1742 30.6951H44.2343C46.7887 30.6951 48.5511 31.1413 49.5199 32.0326C50.4903 32.9238 50.7803 34.367 50.3935 36.3638L48.4859 46.1756H43.8567L45.6699 36.8457C45.8759 35.7844 45.7999 35.0607 45.4415 34.6744C45.0835 34.2888 44.3211 34.0957 43.1555 34.0957H39.5123L37.1648 46.1752H32.6073L36.7061 25.0882H41.2635V25.0901Z" fill="white"/>
<path d="M58.0315 42.4156C59.7771 42.4156 61.0803 42.0936 61.9055 41.4592C62.7203 40.8304 63.2839 39.7425 63.5799 38.2249C63.8547 36.8062 63.7503 35.8162 63.2671 35.2812C62.7747 34.7349 61.7091 34.4581 60.1003 34.4581H57.3111L55.7639 42.4156H58.0315ZM48.9091 52.2176C48.8451 52.2176 48.7815 52.2036 48.7235 52.176C48.6655 52.1488 48.6143 52.1088 48.5735 52.0596C48.5327 52.01 48.5035 51.952 48.4879 51.89C48.4723 51.8276 48.4703 51.7628 48.4827 51.7L52.5811 30.6137C52.6003 30.5149 52.6535 30.4259 52.7311 30.362C52.8091 30.298 52.9067 30.2631 53.0071 30.2631H61.8403C64.6167 30.2631 66.6827 31.0168 67.9815 32.5037C69.2871 33.9975 69.6903 36.0875 69.1795 38.7131C68.9847 39.7473 68.6263 40.744 68.1179 41.6656C67.6003 42.5808 66.9403 43.408 66.1627 44.1156C65.2067 45.0104 64.1223 45.6604 62.9459 46.0424C61.7883 46.42 60.3011 46.6112 58.5267 46.6112H54.9499L53.9291 51.8664C53.9099 51.9652 53.8567 52.0544 53.7787 52.1184C53.7007 52.1824 53.6031 52.2176 53.5023 52.2176H48.9091Z" fill="black"/>
<path d="M57.6671 34.8912H60.0991C62.0411 34.8912 62.7155 35.3175 62.9443 35.5719C63.3255 35.9931 63.3967 36.8825 63.1523 38.1419C62.8771 39.5525 62.3687 40.5532 61.6391 41.1144C60.8923 41.6892 59.6771 41.9808 58.0311 41.9808H56.2899L57.6671 34.8912ZM61.8387 29.8288H53.0055C52.8039 29.8289 52.6091 29.899 52.4535 30.027C52.2983 30.155 52.1923 30.333 52.1535 30.5306L48.0547 51.6176C48.0307 51.7432 48.0343 51.8728 48.0659 51.9968C48.0975 52.1208 48.1563 52.236 48.2379 52.3348C48.3191 52.4336 48.4215 52.5128 48.5371 52.5676C48.6531 52.622 48.7795 52.6504 48.9071 52.6508H53.5011C53.7023 52.6504 53.8975 52.5804 54.0531 52.452C54.2083 52.324 54.3143 52.146 54.3531 51.948L55.3059 47.0444H58.5247C60.3443 47.0444 61.8771 46.8456 63.0787 46.4544C64.3147 46.0532 65.4515 45.3724 66.4587 44.4308C67.2683 43.6928 67.9559 42.8308 68.4947 41.8768C69.0147 40.9476 69.3871 39.91 69.6043 38.795C70.1415 36.0306 69.7055 33.8175 68.3067 32.2175C66.9215 30.6319 64.7459 29.8281 61.8379 29.8281L61.8387 29.8288ZM55.2367 42.848H58.0303C59.8831 42.848 61.2615 42.5 62.1691 41.8012C63.0755 41.1036 63.6867 39.9388 64.0043 38.3069C64.3087 36.7394 64.1703 35.6338 63.5887 34.9894C63.0071 34.3456 61.8443 34.0231 60.0991 34.0231H56.9523L55.2367 42.848ZM61.8387 30.695C64.4955 30.695 66.4347 31.3931 67.6531 32.7875C68.8715 34.1825 69.2387 36.1294 68.7523 38.6288C68.5523 39.6588 68.2135 40.6 67.7371 41.4524C67.2603 42.3064 66.6371 43.0864 65.8671 43.7944C64.9503 44.6524 63.9315 45.2644 62.8099 45.6288C61.6891 45.9936 60.2611 46.1756 58.5247 46.1756H54.5903L53.4999 51.782H48.9059L53.0047 30.695H61.8387Z" fill="white"/>
</g>
</g>
<defs>
<radialGradient id="paint0_radial_263_1232" cx="0" cy="0" r="1" gradientUnits="userSpaceOnUse" gradientTransform="translate(24.4615 26.3559) scale(52.526 52.526)">
<stop stop-color="#AEB2D5"/>
<stop offset="0.3" stop-color="#AEB2D5"/>
<stop offset="0.75" stop-color="#484C89"/>
<stop offset="1" stop-color="#484C89"/>
</radialGradient>
<clipPath id="clip0_263_1232">
<rect width="80.4" height="80" fill="white" transform="translate(0.289062)"/>
</clipPath>
</defs>
</svg>
