<svg width="82" height="80" viewBox="0 0 82 80" fill="none" xmlns="http://www.w3.org/2000/svg">
<path d="M79.5256 47.9051C79.0612 46.4963 77.8452 45.5151 76.2728 45.2799C75.5312 45.1687 74.682 45.2163 73.6772 45.4239C71.9256 45.7859 70.626 45.9239 69.6776 45.9503C73.2572 39.8943 76.168 32.9883 77.8436 26.4873C80.5536 15.9755 79.1056 11.1867 77.4136 9.0207C72.9356 3.28736 66.4024 0.207364 58.5208 0.113122C54.316 0.0616064 50.6252 0.893426 48.6996 1.49161C46.9068 1.17464 44.9792 0.997666 42.9568 0.964938C39.1653 0.904334 35.8154 1.73251 32.953 3.43463C31.3683 2.89767 28.825 2.1407 25.8878 1.65767C18.98 0.521302 13.4124 1.40676 9.34008 4.2895C4.40882 7.77978 2.12283 13.844 2.54561 22.3137C2.67989 25.0028 4.1811 33.1846 6.5448 40.9439C7.90328 45.4039 9.35188 49.1075 10.8504 51.9531C12.9754 55.9879 15.2494 58.3639 17.8021 59.2175C19.2328 59.6951 21.8324 60.0295 24.5666 57.7475C24.9132 58.1683 25.3756 58.5863 25.9892 58.9743C26.7685 59.4667 27.7214 59.8691 28.6731 60.1075C32.1029 60.9667 35.3155 60.7519 38.0563 59.5475C38.0732 60.0363 38.0862 60.5027 38.0971 60.9059C38.1153 61.5595 38.1334 62.2003 38.1573 62.7999C38.3197 66.8527 38.5949 70.0039 39.4102 72.2087C39.455 72.3299 39.5152 72.5147 39.5787 72.7107C39.9854 73.9587 40.6656 76.0475 42.396 77.6839C44.188 79.3787 46.3552 79.8983 48.3404 79.8983C49.336 79.8983 50.286 79.7675 51.1188 79.5887C54.0888 78.9507 57.4616 77.9791 59.9016 74.4979C62.2084 71.2071 63.3296 66.2503 63.5328 58.4403C63.5592 58.2195 63.5832 58.0087 63.6064 57.8075L63.6548 57.3951L64.1984 57.4427L64.3384 57.4523C67.3632 57.5903 71.0616 56.9475 73.3332 55.8903C75.128 55.0559 80.8796 52.0131 79.5256 47.9051Z" fill="black"/>
<path d="M74.3532 48.7036C65.3592 50.5628 64.7408 47.5116 64.7408 47.5116C74.2368 33.3924 78.2064 15.4703 74.7812 11.084C65.4352 -0.881207 49.2572 4.7776 48.9872 4.92424L48.9004 4.94C47.1232 4.57032 45.1348 4.35032 42.8996 4.31364C38.8304 4.24696 35.7433 5.38272 33.4008 7.16272C33.4008 7.16272 4.54087 -4.7506 5.88331 22.1458C6.16879 27.8676 14.068 65.4404 23.4896 54.0916C26.9332 49.9416 30.2607 46.4328 30.2607 46.4328C31.9132 47.5328 33.8916 48.0944 35.9656 47.8928L36.1268 47.7556C36.0766 48.2708 36.0996 48.7748 36.1912 49.3716C33.764 52.0888 34.4774 52.5656 29.6254 53.5668C24.7156 54.5804 27.5998 56.3856 29.4829 56.8576C31.7659 57.4292 37.0473 58.2396 40.6159 53.234L40.4737 53.8052C41.4244 54.5684 42.0924 58.7696 41.9804 62.5784C41.8684 66.3868 41.7936 69.0016 42.5428 71.0444C43.2924 73.0868 44.0392 77.682 50.418 76.3128C55.7476 75.168 58.5096 72.2024 58.8936 67.2552C59.1664 63.738 59.7836 64.258 59.8224 61.1136L60.3172 59.6252C60.888 54.8576 60.408 53.3192 63.6912 54.0348L64.4896 54.1052C66.906 54.2152 70.0696 53.7156 71.926 52.8508C75.9232 50.992 78.2944 47.888 74.3524 48.7036H74.3532Z" fill="#336791"/>
<path d="M35.0897 24.706C34.2792 24.593 33.5453 24.6976 33.1739 24.9794C32.9652 25.1379 32.9005 25.3215 32.883 25.4479C32.8364 25.7827 33.0705 26.153 33.2144 26.3439C33.6215 26.8845 34.216 27.256 34.8045 27.3379C34.8898 27.35 34.9748 27.3554 35.0592 27.3554C36.0405 27.3554 36.933 26.5897 37.0116 26.0245C37.1099 25.3166 36.0844 24.8445 35.0897 24.706ZM61.9396 24.7285C61.8624 24.1736 60.8772 24.0154 59.942 24.1458C59.008 24.276 58.1028 24.6985 58.1784 25.2545C58.2388 25.687 59.018 26.4251 59.9404 26.4251C60.0184 26.4251 60.0972 26.42 60.1764 26.4088C60.792 26.3233 61.244 25.9315 61.4584 25.7058C61.7852 25.3615 61.9744 24.9779 61.9396 24.7285Z" fill="white"/>
<path d="M77.3484 48.4931C77.0052 47.4539 75.9016 47.1199 74.0676 47.4991C68.6224 48.6251 66.6724 47.8451 66.0324 47.3727C70.2648 40.9123 73.7464 33.1025 75.6248 25.8161C76.5144 22.3646 77.006 19.1592 77.046 16.5464C77.0908 13.6789 76.6032 11.5716 75.598 10.2843C71.5448 5.09495 65.5964 2.3113 58.3956 2.23494C53.4452 2.17918 49.2628 3.44857 48.452 3.80554C46.7448 3.38009 44.8832 3.11888 42.8568 3.08554C39.1406 3.02524 35.9283 3.91676 33.2688 5.73403C32.1136 5.30311 29.1281 4.27615 25.477 3.68675C19.1649 2.66857 14.1489 3.44009 10.5695 5.98099C6.29845 9.01311 4.32667 14.4331 4.70863 22.0901C4.83717 24.6661 6.30209 32.591 8.61377 40.1803C11.6567 50.1695 14.9646 55.8243 18.4448 56.9875C18.8522 57.1235 19.3218 57.2187 19.8399 57.2187C21.1094 57.2187 22.666 56.6455 24.2855 54.6947C26.2607 52.3203 28.304 50.0036 30.4128 47.7476C31.7809 48.4832 33.2839 48.8939 34.8211 48.9351C34.8241 48.9755 34.8281 49.0159 34.8317 49.0559C34.5671 49.3719 34.308 49.6927 34.0545 50.0179C32.9894 51.3727 32.7677 51.6548 29.3392 52.3624C28.3639 52.5639 25.7737 53.0988 25.7355 54.9184C25.6944 56.9059 28.7975 57.7411 29.1511 57.8296C30.3831 58.1387 31.5701 58.2911 32.7021 58.2911C35.455 58.2911 37.8777 57.3843 39.8138 55.6299C39.7542 62.7167 40.049 69.6999 40.8984 71.8275C41.594 73.5691 43.2928 77.8259 48.6596 77.8255C49.4472 77.8255 50.3136 77.7336 51.2672 77.5287C56.8684 76.326 59.3008 73.8451 60.2416 68.3763C60.7452 65.4535 61.6092 58.4748 62.0156 54.7311C62.8732 54.9991 63.9772 55.1219 65.1712 55.1215C67.6604 55.1215 70.5332 54.5915 72.3348 53.7535C74.3584 52.812 78.0104 50.5011 77.3484 48.4931ZM64.0096 23.1961C63.9912 24.3013 63.8396 25.3046 63.6788 26.3519C63.5052 27.4783 63.3264 28.6428 63.2812 30.0564C63.2368 31.4322 63.4084 32.8625 63.574 34.2458C63.9092 37.0398 64.2528 39.9161 62.922 42.7543C62.7008 42.3619 62.504 41.9559 62.3324 41.5395C62.1668 41.1376 61.8076 40.4923 61.31 39.5989C59.3748 36.1213 54.8432 27.9777 57.1628 24.6546C57.854 23.6656 59.6076 22.6486 64.0096 23.1961ZM58.674 4.47283C65.1256 4.61555 70.2292 7.03403 73.8428 11.6607C76.614 15.2095 73.5624 31.3571 64.7276 45.2875C64.6388 45.1744 64.5496 45.0616 64.4596 44.9492L64.348 44.8092C66.6308 41.0312 66.1844 37.2934 65.7872 33.9795C65.6236 32.6195 65.4696 31.3349 65.5088 30.1283C65.5492 28.8495 65.718 27.7525 65.8816 26.6919C66.082 25.3849 66.286 24.0325 66.23 22.4383C66.272 22.271 66.2888 22.0734 66.2668 21.8389C66.1232 20.3101 64.3812 15.7346 60.8308 11.5934C58.8884 9.32827 56.0564 6.79343 52.1892 5.08371C53.8528 4.73827 56.1272 4.41615 58.674 4.47283ZM22.5716 53.2668C20.7874 55.4164 19.5553 55.0043 19.1501 54.8691C16.5099 53.9868 13.4464 48.3951 10.7455 39.5285C8.40841 31.8564 7.04269 24.1416 6.93441 21.9783C6.59329 15.1364 8.24845 10.3683 11.8542 7.80583C17.7223 3.63615 27.3701 6.13191 31.2468 7.39767C31.1912 7.45283 31.1331 7.50431 31.0781 7.56039C24.7164 13.998 24.8673 24.9968 24.883 25.6692C24.8824 25.9286 24.9042 26.2958 24.9338 26.801C25.0433 28.651 25.2471 32.094 24.7028 35.9931C24.1971 39.6164 25.3119 43.1627 27.7605 45.7231C28.0119 45.9855 28.276 46.2351 28.552 46.4711C27.4621 47.6408 25.0932 50.2276 22.5716 53.2668ZM29.3697 44.1779C27.3961 42.1143 26.4997 39.244 26.9101 36.3022C27.4847 32.1834 27.2727 28.5962 27.1587 26.6689C27.1427 26.3992 27.1285 26.1628 27.1203 25.9764C28.0497 25.1507 32.3564 22.8386 35.4278 23.5437C36.8292 23.8652 37.6832 24.8216 38.0382 26.4664C39.8758 34.9825 38.2814 38.5319 37.0004 41.3843C36.7363 41.9719 36.4869 42.5275 36.2739 43.1019L36.1088 43.5459C35.6909 44.6691 35.302 45.7136 35.0609 46.7048C32.9628 46.6987 30.9217 45.8011 29.3697 44.1779ZM29.6918 55.6623C29.0791 55.5092 28.5281 55.2427 28.2048 55.0219C28.4749 54.8947 28.9554 54.7211 29.7889 54.5491C33.8223 53.7175 34.4452 53.1299 35.8055 51.3995C36.1173 51.0023 36.4708 50.5527 36.9605 50.0047L36.9611 50.0043C37.6902 49.1859 38.0237 49.3247 38.6286 49.5763C39.1188 49.7795 39.5963 50.3951 39.7899 51.0727C39.8815 51.3927 39.9843 52 39.6477 52.4728C36.8062 56.4595 32.6655 56.4084 29.6918 55.6623ZM50.8004 75.3447C45.866 76.4044 44.1192 73.8815 42.9676 70.9976C42.2248 69.1359 41.8592 60.7399 42.1184 51.4683C42.122 51.3447 42.1044 51.2259 42.0704 51.1135C42.04 50.8923 41.994 50.6735 41.9324 50.4587C41.5472 49.1096 40.6082 47.9811 39.4817 47.5131C39.0341 47.3275 38.2128 46.9863 37.2257 47.2395C37.4361 46.3703 37.8012 45.3887 38.197 44.326L38.3631 43.8791C38.55 43.3751 38.7846 42.8531 39.0326 42.3004C40.3733 39.3162 42.2092 35.2285 40.2166 25.9943C39.4702 22.5356 36.9777 20.8464 33.1993 21.2389C30.9341 21.4737 28.8617 22.3895 27.828 22.9146C27.6057 23.0273 27.4025 23.1364 27.2126 23.2425C27.5011 19.7577 28.591 13.245 32.6682 9.12431C35.2355 6.53039 38.6543 5.24919 42.82 5.31827C51.0276 5.45283 56.2908 9.67343 59.2612 13.1907C61.8208 16.2213 63.2068 19.2743 63.76 20.921C59.6 20.4971 56.7712 21.3198 55.3368 23.3743C52.2168 27.8434 57.044 36.5173 59.3636 40.6859C59.7892 41.4499 60.1564 42.1103 60.272 42.3911C61.0272 44.2255 62.0052 45.4503 62.7192 46.3443C62.9384 46.6183 63.1504 46.8839 63.312 47.1159C62.0524 47.4799 59.7892 48.3212 59.9956 52.5243C59.8292 54.6335 58.6464 64.5079 58.0456 67.9967C57.252 72.6059 55.5596 74.3223 50.8004 75.3447ZM71.3964 51.7283C70.108 52.3275 67.952 52.7767 65.904 52.8736C63.642 52.9795 62.4904 52.6195 62.2196 52.3979C62.0924 49.7787 63.0652 49.5047 64.0952 49.2151C64.2568 49.1699 64.4148 49.1251 64.5672 49.0719C64.6616 49.1491 64.7656 49.2259 64.8792 49.3011C66.6972 50.5035 69.9404 50.6331 74.5184 49.6859L74.5688 49.6759C73.9512 50.2547 72.8944 51.0311 71.3964 51.7283Z" fill="white"/>
</svg>
