<svg width="80" height="80" viewBox="0 0 80 80" fill="none" xmlns="http://www.w3.org/2000/svg">
<g clip-path="url(#clip0_263_1223)">
<mask id="mask0_263_1223" style="mask-type:luminance" maskUnits="userSpaceOnUse" x="0" y="0" width="80" height="80">
<path d="M79.0889 0.655762H0.400391V79.3443H79.0889V0.655762Z" fill="white"/>
</mask>
<g mask="url(#mask0_263_1223)">
<path d="M39.4079 0.677979C19.48 0.677979 20.7244 9.35377 20.7244 9.35377L20.7464 18.3422H39.7632V21.0408H13.1932C13.1932 21.0408 0.441406 19.5888 0.441406 39.7748C0.441406 59.9613 11.5715 59.2454 11.5715 59.2454H18.2139V49.878C18.2139 49.878 17.8559 38.7043 29.1665 38.7043H48.0277C48.0277 38.7043 58.6246 38.8762 58.6246 28.4227V11.1383C58.6246 11.1383 60.2339 0.677979 39.4079 0.677979ZM28.922 6.72249C29.3714 6.72209 29.8164 6.81065 30.2318 6.9831C30.647 7.15555 31.0243 7.40853 31.3421 7.72753C31.6598 8.04655 31.9118 8.42532 32.0836 8.8422C32.2554 9.25908 32.3435 9.70588 32.3431 10.157C32.3435 10.6082 32.2554 11.055 32.0836 11.4718C31.9118 11.8887 31.6598 12.2675 31.3421 12.5865C31.0243 12.9055 30.647 13.1584 30.2318 13.3309C29.8164 13.5033 29.3714 13.592 28.922 13.5916C28.4727 13.592 28.0276 13.5033 27.6124 13.3309C27.1971 13.1584 26.8198 12.9055 26.5021 12.5865C26.1843 12.2675 25.9324 11.8887 25.7606 11.4718C25.5887 11.055 25.5005 10.6082 25.5009 10.157C25.5005 9.70588 25.5887 9.25908 25.7606 8.8422C25.9324 8.42532 26.1843 8.04655 26.5021 7.72753C26.8198 7.40853 27.1971 7.15555 27.6124 6.9831C28.0276 6.81065 28.4727 6.72209 28.922 6.72249Z" fill="url(#paint0_linear_263_1223)"/>
<path d="M39.9743 79.0745C59.9021 79.0745 58.6578 70.3987 58.6578 70.3987L58.6356 61.4106H39.6186V58.7122H66.1886C66.1886 58.7122 78.9404 60.164 78.9404 39.9775C78.9404 19.7912 67.8103 20.5072 67.8103 20.5072H61.1678V29.8741C61.1678 29.8741 61.526 41.0479 50.2154 41.0479H31.3542C31.3542 41.0479 20.7573 40.8761 20.7573 51.3299V68.6146C20.7573 68.6146 19.1486 79.0745 39.9743 79.0745ZM50.4598 73.0306C50.0105 73.0311 49.5653 72.9424 49.1501 72.77C48.7348 72.5975 48.3576 72.3445 48.0398 72.0256C47.7221 71.7066 47.47 71.3278 47.2983 70.911C47.1265 70.4941 47.0383 70.0472 47.0387 69.5961C47.0383 69.1449 47.1264 68.6981 47.2982 68.2812C47.47 67.8643 47.7219 67.4855 48.0397 67.1665C48.3575 66.8474 48.7348 66.5944 49.15 66.4219C49.5653 66.2495 50.0103 66.1609 50.4598 66.1613C50.9092 66.1609 51.3542 66.2495 51.7694 66.4219C52.1848 66.5944 52.5621 66.8474 52.8797 67.1663C53.1975 67.4854 53.4495 67.8642 53.6213 68.2809C53.793 68.6979 53.8813 69.1447 53.8809 69.5958C53.8813 70.047 53.793 70.4938 53.6213 70.9106C53.4495 71.3275 53.1975 71.7063 52.8797 72.0253C52.5621 72.3443 52.1848 72.5973 51.7694 72.7697C51.3542 72.9422 50.9092 73.0311 50.4598 73.0306Z" fill="url(#paint1_linear_263_1223)"/>
</g>
</g>
<defs>
<linearGradient id="paint0_linear_263_1223" x1="754.81" y1="705.809" x2="4660.03" y2="4556.97" gradientUnits="userSpaceOnUse">
<stop stop-color="#387EB8"/>
<stop offset="1" stop-color="#366994"/>
</linearGradient>
<linearGradient id="paint1_linear_263_1223" x1="1134.21" y1="1225.83" x2="5327.21" y2="5174.12" gradientUnits="userSpaceOnUse">
<stop stop-color="#FFE052"/>
<stop offset="1" stop-color="#FFC331"/>
</linearGradient>
<clipPath id="clip0_263_1223">
<rect width="78.6885" height="80" fill="white" transform="translate(0.400391)"/>
</clipPath>
</defs>
</svg>
