<svg width="61" height="53" viewBox="0 0 61 53" fill="none" xmlns="http://www.w3.org/2000/svg">
<path d="M49.8324 17.1001C49.194 16.8836 48.55 16.683 47.9011 16.4986C48.01 16.0585 48.1106 15.6237 48.1997 15.1966C49.6617 8.18246 48.7058 2.53172 45.4413 0.671235C42.3112 -1.11235 37.192 0.747444 32.0223 5.19412C31.5127 5.63316 31.0146 6.08484 30.5281 6.54871C30.2025 6.24026 29.8711 5.93776 29.5342 5.64142C24.1159 0.886888 18.6849 -1.11698 15.4238 0.748834C12.2966 2.53798 11.3706 7.85005 12.6868 14.4975C12.8178 15.1558 12.9656 15.8108 13.1302 16.4617C12.3615 16.6776 11.6197 16.9074 10.9098 17.152C4.55727 19.341 0.500488 22.7712 0.500488 26.3294C0.500488 30.0043 4.85564 33.6901 11.472 35.9252C12.0085 36.1058 12.5493 36.2731 13.0941 36.4267C12.9172 37.1278 12.7601 37.8338 12.6231 38.5436C11.3682 45.0754 12.3481 50.2622 15.467 52.0399C18.6882 53.8759 24.0948 51.989 29.3591 47.4409C29.7859 47.0709 30.2034 46.6908 30.6111 46.3003C31.1379 46.8028 31.6788 47.2903 32.233 47.763C37.3326 52.0997 42.3689 53.8507 45.4845 52.0681C48.7027 50.2268 49.7489 44.6552 48.3908 37.8763C48.2838 37.3453 48.164 36.8168 48.0311 36.2914C48.4107 36.1803 48.7834 36.0658 49.1465 35.9469C56.025 33.6948 60.5005 30.0534 60.5005 26.3294C60.5005 22.7583 56.3127 19.3048 49.8324 17.1001ZM48.3406 33.5424C48.0125 33.6497 47.6758 33.7531 47.3329 33.854C46.5735 31.4783 45.5487 28.9519 44.2946 26.3416C45.4913 23.7937 46.4766 21.2996 47.2146 18.9393C47.8285 19.1149 48.424 19.3 48.9982 19.4952C54.5506 21.3844 57.9373 24.1773 57.9373 26.3294C57.9373 28.6216 54.2796 31.5974 48.3406 33.5424ZM45.8764 38.3682C46.4769 41.3655 46.5623 44.0758 46.1647 46.1945C45.8075 48.0985 45.0888 49.3675 44.2002 49.8758C42.3093 50.9577 38.2658 49.5515 33.9049 45.8426C33.3894 45.4034 32.886 44.95 32.396 44.483C34.0867 42.6556 35.7766 40.5313 37.4254 38.1718C40.3262 37.9176 43.0666 37.5014 45.5515 36.9338C45.6713 37.4093 45.7796 37.8878 45.8764 38.3682ZM20.9558 49.689C19.1084 50.3336 17.637 50.3522 16.7476 49.8454C14.855 48.7666 14.0682 44.6021 15.1414 39.0159C15.269 38.3558 15.4151 37.6994 15.5795 37.0474C18.0371 37.5846 20.7575 37.971 23.6649 38.2041C25.3252 40.5127 27.0636 42.6348 28.8156 44.4929C28.4432 44.8492 28.0621 45.1958 27.6725 45.5335C25.3445 47.5445 23.0117 48.9715 20.9558 49.689ZM12.3013 33.5284C9.37556 32.54 6.9594 31.2554 5.30331 29.8539C3.81502 28.5945 3.06385 27.3439 3.06385 26.3294C3.06385 24.1701 6.32096 21.4159 11.7535 19.5441C12.4128 19.3171 13.1028 19.1028 13.8188 18.9018C14.5698 21.3154 15.5546 23.8391 16.7431 26.391C15.5392 28.9806 14.5403 31.5447 13.7821 33.9868C13.2847 33.8459 12.791 33.6932 12.3013 33.5284ZM15.2023 14.0108C14.0748 8.31563 14.8236 4.01952 16.7082 2.94125C18.7154 1.79281 23.154 3.43024 27.8324 7.53573C28.1374 7.80405 28.4376 8.07781 28.7326 8.35687C26.9893 10.2069 25.2669 12.3132 23.6213 14.6082C20.7995 14.8667 18.0983 15.2818 15.6149 15.8379C15.4619 15.2325 15.3243 14.6231 15.2023 14.0108ZM41.0838 20.3273C40.4972 19.3259 39.8886 18.3371 39.2589 17.3616C41.1735 17.6009 43.0076 17.9185 44.73 18.3067C44.213 19.9448 43.5684 21.6573 42.8099 23.4131C42.2553 22.3732 41.6799 21.3444 41.0838 20.3273ZM30.5293 10.1675C31.7114 11.4334 32.8956 12.8466 34.06 14.38C31.6977 14.2698 29.3312 14.2693 26.9687 14.3786C28.1345 12.8594 29.3286 11.448 30.5293 10.1675ZM19.9072 20.3444C19.3185 21.3534 18.7538 22.3758 18.2134 23.4108C17.4671 21.6612 16.8285 19.9409 16.307 18.2796C18.0189 17.9011 19.8444 17.5916 21.7466 17.3568C21.1099 18.3382 20.4966 19.3345 19.9072 20.3444ZM21.8012 35.482C19.8359 35.2654 17.983 34.9718 16.2716 34.6034C16.8013 32.9127 17.454 31.1558 18.2164 29.3686C18.759 30.4044 19.3261 31.4274 19.9173 32.4369C20.5253 33.4747 21.1548 34.4911 21.8012 35.482ZM30.6001 42.6699C29.3851 41.3745 28.1734 39.9414 26.99 38.4002C28.1389 38.4446 29.3101 38.4672 30.5005 38.4672C31.7235 38.4672 32.9322 38.4402 34.1224 38.3878C32.954 39.9569 31.7744 41.3922 30.6001 42.6699ZM42.8341 29.2774C43.636 31.0841 44.312 32.8317 44.8486 34.4939C43.1091 34.8862 41.2309 35.2021 39.2518 35.4367C39.8858 34.4433 40.5 33.4372 41.0937 32.4195C41.6973 31.3852 42.2777 30.3374 42.8341 29.2774ZM38.8735 31.154C37.9648 32.7144 37.0046 34.245 35.995 35.7436C34.1665 35.8718 32.3339 35.9351 30.5005 35.9342C28.6332 35.9342 26.817 35.8768 25.0681 35.7647C24.0322 34.2695 23.054 32.7361 22.1354 31.1676C21.2211 29.6077 20.3674 28.0139 19.5756 26.3898C20.3654 24.7654 21.2168 23.1708 22.1279 21.6096L22.1277 21.6098C23.0385 20.0482 24.0089 18.5213 25.037 17.0325C26.8213 16.8991 28.651 16.8296 30.5002 16.8296C32.3578 16.8296 34.1904 16.8998 35.9739 17.0341C36.9919 18.5207 37.9561 20.0423 38.8651 21.5961C39.7794 23.1539 40.6418 24.7407 41.4515 26.3539C40.6502 27.9836 39.7902 29.5846 38.8735 31.154ZM44.1611 2.86574C46.17 4.01093 46.9515 8.62904 45.6893 14.6851C45.6086 15.0715 45.518 15.465 45.4196 15.8641C42.93 15.2961 40.2269 14.8739 37.3969 14.6115C35.7483 12.2912 34.0399 10.1817 32.3252 8.35547C32.7746 7.92729 33.2345 7.51022 33.705 7.10466C38.1349 3.29496 42.2749 1.79072 44.1611 2.86574ZM30.5005 21.0342C33.4595 21.0342 35.8582 23.405 35.8582 26.3294C35.8582 29.2537 33.4595 31.6244 30.5005 31.6244C27.5415 31.6244 25.1427 29.2537 25.1427 26.3294C25.1427 23.405 27.5415 21.0342 30.5005 21.0342Z" fill="#00D8FF"/>
</svg>
