<svg width="61" height="60" viewBox="0 0 61 60" fill="none" xmlns="http://www.w3.org/2000/svg">
<mask id="mask0_2401_23379" style="mask-type:luminance" maskUnits="userSpaceOnUse" x="0" y="0" width="61" height="60">
<path d="M60.4995 0H0.499512V60H60.4995V0Z" fill="white"/>
</mask>
<g mask="url(#mask0_2401_23379)">
<path d="M46.437 0H14.562C6.79551 0 0.499512 6.296 0.499512 14.0625V45.9375C0.499512 53.704 6.79551 60 14.562 60H46.437C54.2035 60 60.4995 53.704 60.4995 45.9375V14.0625C60.4995 6.296 54.2035 0 46.437 0Z" fill="#CD6799"/>
<mask id="mask1_2401_23379" style="mask-type:luminance" maskUnits="userSpaceOnUse" x="7" y="12" width="47" height="36">
<path d="M7.06201 12.4219H53.937V47.5568H7.06201V12.4219Z" fill="white"/>
</mask>
<g mask="url(#mask1_2401_23379)">
<path d="M47.4017 32.6163C45.7672 32.6247 44.3469 33.0185 43.1574 33.6002C42.721 32.7361 42.2846 31.9659 42.2075 31.4011C42.122 30.7422 42.0193 30.3401 42.122 29.5528C42.2246 28.7655 42.6868 27.6447 42.6781 27.5592C42.6697 27.4734 42.5755 27.0715 41.6342 27.0628C40.693 27.0544 39.8802 27.2426 39.786 27.4908C39.6917 27.7387 39.5122 28.3036 39.3924 28.8855C39.2298 29.7412 37.5097 32.7961 36.5258 34.3962C36.2092 33.7715 35.9354 33.2238 35.8754 32.7874C35.7899 32.1286 35.6872 31.7264 35.7899 30.9391C35.8925 30.1519 36.3547 29.0308 36.346 28.9453C36.3376 28.8597 36.2434 28.4576 35.3021 28.4491C34.3609 28.4405 33.5478 28.6287 33.4538 28.8769C33.3596 29.1251 33.257 29.707 33.0601 30.2716C32.8635 30.8365 30.5788 35.9365 29.9797 37.2541C29.7377 37.7874 29.4838 38.3152 29.2182 38.8371C29.2182 38.8371 29.2096 38.8629 29.184 38.9055C29.1005 39.0692 29.0149 39.2318 28.9271 39.3933V39.4019C28.7989 39.633 28.6618 39.8468 28.5934 39.8468C28.5421 39.8468 28.4481 39.2308 28.6105 38.3922C28.9529 36.6208 29.7657 33.8655 29.7573 33.7715C29.7573 33.7202 29.9113 33.2409 29.2267 32.9927C28.5592 32.7445 28.3196 33.1554 28.2596 33.1554C28.1999 33.1554 28.157 33.3009 28.157 33.3009C28.157 33.3009 28.9016 30.2032 26.7367 30.2032C25.3846 30.2032 23.5192 31.6835 22.5953 33.0185C21.5446 33.5902 20.4948 34.1635 19.446 34.7383C18.9413 35.0208 18.4194 35.3032 17.9314 35.5685C17.8972 35.5343 17.863 35.4914 17.8288 35.4572C15.2103 32.659 10.3672 30.6825 10.5725 26.9259C10.6496 25.5567 11.1203 21.9628 19.8739 17.5987C27.0788 14.0477 32.8121 15.0316 33.8047 17.2137C35.225 20.3285 30.7328 26.1129 23.2883 26.9515C20.4472 27.2681 18.9585 26.1729 18.5821 25.7622C18.1883 25.3343 18.1283 25.3087 17.9828 25.3943C17.7432 25.5225 17.8972 25.9076 17.9828 26.13C18.2054 26.7119 19.1209 27.7387 20.6696 28.2436C22.0389 28.6887 25.3674 28.9369 29.3978 27.3794C33.9074 25.6338 37.4328 20.7818 36.3974 16.7175C35.3621 12.593 28.5165 11.2324 22.0388 13.5342C18.1881 14.9034 14.0124 17.0597 11.0089 19.8663C7.44058 23.2038 6.87597 26.1044 7.10706 27.3194C7.93698 31.6322 13.884 34.4388 16.2629 36.5182C16.1431 36.5866 16.0318 36.6466 15.9378 36.698C14.7484 37.2883 10.2132 39.6586 9.08355 42.1659C7.80011 45.0068 9.28909 47.0433 10.273 47.317C13.3278 48.1643 16.4682 46.6411 18.1541 44.1253C19.8397 41.6095 19.6344 38.3409 18.8556 36.8435C18.8472 36.8245 18.8356 36.8072 18.8213 36.7922C19.1296 36.6124 19.446 36.4242 19.7542 36.2444C20.3204 35.9098 20.8939 35.5874 21.474 35.2774C21.1831 36.0733 20.9692 37.023 20.8665 38.3922C20.7383 40.001 21.3971 42.0888 22.2613 42.9103C22.6464 43.2696 23.0999 43.2783 23.391 43.2783C24.4006 43.2783 24.8542 42.4397 25.359 41.4471C25.9749 40.2319 26.5313 38.82 26.5313 38.82C26.5313 38.82 25.8381 42.6365 27.7206 42.6365C28.4052 42.6365 29.0982 41.7466 29.4064 41.2931V41.3015C29.4064 41.3015 29.4235 41.276 29.4578 41.216C29.5262 41.1047 29.5688 41.0362 29.5688 41.0362V41.0191C29.8428 40.5401 30.4588 39.4533 31.3745 37.6476C32.5553 35.3203 33.6934 32.411 33.6934 32.411C33.6934 32.411 33.796 33.1212 34.1469 34.3019C34.3522 34.9952 34.7802 35.7567 35.1224 36.4926C34.8486 36.8777 34.6775 37.0915 34.6775 37.0915L34.686 37.1001C34.4635 37.391 34.224 37.7076 33.9587 38.0156C33.0259 39.1282 31.9135 40.4032 31.7596 40.7712C31.5798 41.2076 31.6227 41.524 31.9649 41.7808C32.2131 41.969 32.6579 41.9946 33.1114 41.969C33.95 41.909 34.5406 41.7037 34.8315 41.5753C35.285 41.4129 35.8156 41.1647 36.3118 40.7967C37.2275 40.1208 37.7837 39.1537 37.7324 37.8787C37.7066 37.177 37.4755 36.4755 37.1933 35.8165C37.2789 35.6967 37.3557 35.5769 37.4413 35.4572C38.8876 33.3436 40.0084 31.0247 40.0084 31.0247C40.0084 31.0247 40.111 31.7348 40.4619 32.9158C40.633 33.5147 40.9839 34.1651 41.2921 34.7983C39.9315 35.9022 39.0929 37.1857 38.7934 38.0243C38.2543 39.5817 38.6736 40.2832 39.4693 40.4458C39.8288 40.5229 40.3421 40.3519 40.7188 40.1892C41.1978 40.0352 41.7627 39.7699 42.3017 39.3762C43.2172 38.7002 44.0987 37.759 44.0474 36.484C44.0216 35.9022 43.8676 35.3287 43.6536 34.7726C44.8089 34.2935 46.2978 34.0282 48.1974 34.2506C52.2706 34.7299 53.075 37.2712 52.9208 38.3409C52.7668 39.4104 51.9111 39.9923 51.6287 40.1721C51.3465 40.3519 51.2523 40.4116 51.2781 40.5401C51.3123 40.7283 51.4492 40.7196 51.6887 40.6854C52.0224 40.6256 53.8278 39.8212 53.9049 37.8532C54.0334 35.3374 51.6374 32.5905 47.4017 32.6163ZM15.9805 43.2098C14.6286 44.6815 12.7461 45.2379 11.9331 44.7672C11.0603 44.2622 11.4024 42.0888 13.0628 40.5314C14.0722 39.5817 15.373 38.7002 16.2371 38.1612C16.434 38.0414 16.7249 37.8703 17.0757 37.6563C17.1357 37.6221 17.1699 37.605 17.1699 37.605L17.3753 37.4765C17.9828 39.7015 17.4008 41.6611 15.9805 43.2098ZM25.8212 36.5182C25.3506 37.665 24.3667 40.5998 23.7676 40.4374C23.2543 40.3003 22.9377 38.0756 23.6649 35.8765C24.0329 34.7726 24.8115 33.4549 25.265 32.9414C26.001 32.1199 26.8138 31.8462 27.0106 32.1799C27.2588 32.6163 26.1123 35.7994 25.8212 36.5182ZM33.9418 40.4032C33.7449 40.5058 33.5567 40.5743 33.4712 40.5229C33.4112 40.4887 33.5567 40.3519 33.5567 40.3519C33.5567 40.3519 34.5751 39.2564 34.9773 38.7602C35.2081 38.4691 35.4821 38.1269 35.773 37.7419V37.8532C35.773 39.1624 34.5067 40.0436 33.9418 40.4032ZM40.2055 38.974C40.0599 38.8713 40.0857 38.5291 40.5735 37.4594C40.7617 37.0401 41.2067 36.3387 41.9682 35.6625C42.0538 35.9365 42.1138 36.2015 42.1051 36.4497C42.0967 38.1014 40.9156 38.7173 40.2055 38.974Z" fill="#FBFBFB"/>
</g>
</g>
</svg>
