<svg width="80" height="80" viewBox="0 0 80 80" fill="none" xmlns="http://www.w3.org/2000/svg">
<path d="M66.0032 15.4962C65.9488 15.0962 65.6024 14.8748 65.3164 14.8504C63.2052 14.69 61.0944 14.5308 58.9832 14.3729C58.9832 14.3729 54.7836 10.1551 54.3228 9.6882C53.8612 9.22164 52.9604 9.36356 52.6108 9.46768C52.5596 9.483 51.6932 9.75344 50.2608 10.2019C48.8576 6.11808 46.3816 2.3652 42.026 2.3652C41.9056 2.3652 41.782 2.37014 41.658 2.37726C40.4192 0.72 38.8848 0 37.5594 0C27.4126 0 22.565 12.8315 21.045 19.352C17.1022 20.588 14.3013 21.4666 13.9435 21.5803C11.7427 22.2786 11.6731 22.3488 11.3842 24.4466C11.1667 26.0348 5.4082 71.084 5.4082 71.084L50.2792 79.5884L74.592 74.268C74.592 74.268 66.0568 15.8962 66.0032 15.4962ZM47.7808 10.9778L43.984 12.1666C43.9852 11.8959 43.9864 11.6296 43.9864 11.3384C43.9864 8.80028 43.6384 6.75672 43.0796 5.13672C45.324 5.42164 46.8188 8.00492 47.7808 10.9778ZM40.2952 5.64C40.9192 7.22164 41.3252 9.49152 41.3252 12.5545C41.3252 12.7112 41.3236 12.8545 41.3224 12.9994C38.8532 13.7732 36.17 14.6132 33.4809 15.4559C34.9908 9.56108 37.821 6.71396 40.2952 5.64ZM37.2807 2.75315C37.7186 2.75315 38.1598 2.90356 38.582 3.19753C35.3301 4.74548 31.8445 8.64412 30.3725 16.4296L24.1742 18.3715C25.8984 12.4332 29.9926 2.75315 37.2807 2.75315Z" fill="#95BF46"/>
<path d="M65.316 14.85C63.2052 14.6896 61.094 14.5304 58.9832 14.3725C58.9832 14.3725 54.7832 10.1547 54.3224 9.6878C54.15 9.51412 53.9172 9.42508 53.674 9.38672L50.2812 79.5876L74.5917 74.2676C74.5917 74.2676 66.0568 15.8958 66.0032 15.4958C65.9488 15.0958 65.6024 14.8744 65.316 14.85Z" fill="#5E8E3E"/>
<path d="M42.0252 28.4397L39.0274 37.4605C39.0274 37.4605 36.4008 36.0425 33.1811 36.0425C28.4611 36.0425 28.2235 39.0389 28.2235 39.794C28.2235 43.9141 38.8402 45.4925 38.8402 55.1429C38.8402 62.7357 34.0798 67.6249 27.661 67.6249C19.9585 67.6249 16.0195 62.7753 16.0195 62.7753L18.0819 55.8821C18.0819 55.8821 22.1309 59.3985 25.5475 59.3985C27.7799 59.3985 28.688 57.6205 28.688 56.3213C28.688 50.9473 19.978 50.7073 19.978 41.8765C19.978 34.4438 25.2517 27.2512 35.8971 27.2512C39.9989 27.2512 42.0252 28.4397 42.0252 28.4397Z" fill="white"/>
</svg>
