<svg width="80" height="80" viewBox="0 0 80 80" fill="none" xmlns="http://www.w3.org/2000/svg">
<path d="M40 3.38672L17.4547 5.79788L0 29.4981L40 76.6132L80 29.4981L62.5456 5.79788L40 3.38672Z" fill="#FDB300"/>
<path d="M0 29.4988L40 76.6135L16.2019 29.4988H0ZM63.798 29.4988L40 76.6135L79.9996 29.4988H63.798Z" fill="#EB6C00"/>
<path d="M16.2012 29.4988L39.9992 76.6135L63.7976 29.4988H16.2012Z" fill="#FDAD00"/>
<path d="M17.454 5.79788L16.2012 29.4981L39.9992 3.38672L17.454 5.79788ZM63.7972 29.4984L62.5444 5.79788L39.9992 3.38672L63.7972 29.4984Z" fill="#FDD231"/>
<path d="M63.798 29.4987H79.9996L62.5452 5.7981L63.798 29.4987ZM0 29.4987H16.2019L17.4547 5.7981L0 29.4987Z" fill="#FDAD00"/>
<path d="M39.9992 3.38672L16.2012 29.4981H63.7976L39.9992 3.38672Z" fill="#FEEEB7"/>
</svg>
