<svg width="81" height="80" viewBox="0 0 81 80" fill="none" xmlns="http://www.w3.org/2000/svg">
<path d="M43.9072 61.9852C43.8704 61.5288 43.8484 61.2352 43.8484 61.2352C43.8484 61.2352 42.4696 51.9296 40.826 49.1516C40.5672 48.7096 40.8528 46.9052 41.5804 44.2264C42.0052 44.9572 43.7928 48.0964 44.154 49.1076C44.5592 50.2476 44.6416 50.5744 44.6416 50.5744C44.6416 50.5744 43.6604 45.5232 42.0516 42.5764C42.4424 41.2628 42.86 39.9574 43.304 38.6608C43.9124 39.7295 45.3748 42.3228 45.6964 43.2232C45.7604 43.4064 45.8164 43.5628 45.8652 43.7072C45.8796 43.6216 45.8964 43.5356 45.9116 43.4484C45.5428 41.8832 44.818 39.1608 43.8264 37.147C46.0264 25.692 53.5336 10.382 61.2264 3.55078H11.0322C7.66534 3.55078 4.91406 6.30452 4.91406 9.66892V65.0252C4.91406 68.3896 7.66782 71.1432 11.0328 71.1432H44.0936C43.8428 68.0976 43.7808 65.0392 43.908 61.9856" fill="#0B7FCC"/>
<path d="M41.5796 44.226C42.0048 44.956 43.7924 48.0936 44.1528 49.1068C44.5584 50.2468 44.6412 50.5736 44.6412 50.5736C44.6412 50.5736 43.6596 45.5224 42.0512 42.5752C42.4424 41.2608 42.86 39.9544 43.3036 38.6566C43.858 39.636 45.1296 41.8872 45.586 42.9516L45.6372 42.3512C45.2324 40.7912 44.6168 38.7472 43.826 37.146C45.8524 26.6016 52.376 12.7897 59.4048 5.33472H11.031C9.88207 5.33572 8.78043 5.79256 7.96791 6.60492C7.15543 7.41732 6.69843 8.51888 6.69727 9.66784V60.9868C17.6517 56.7796 30.8623 52.9368 42.2316 53.1028C41.8116 51.4748 41.3312 50.0028 40.8256 49.1504C40.5668 48.7084 40.8524 46.9024 41.5796 44.226Z" fill="url(#paint0_linear_263_1183)"/>
<path d="M72.9383 1.73767C69.5007 -1.32858 65.3359 -0.0954536 61.2295 3.54955C60.5955 4.11688 59.9879 4.71316 59.4083 5.33644C52.3771 12.7902 45.8559 26.6008 43.8295 37.1458C44.6183 38.7477 45.2359 40.7908 45.6383 42.3508C45.7435 42.7508 45.8383 43.1272 45.9147 43.4472C46.0927 44.2016 46.1879 44.6944 46.1879 44.6944C46.1879 44.6944 46.1247 44.4552 45.8659 43.7056C45.8171 43.562 45.7607 43.4032 45.6971 43.2228C45.6639 43.1312 45.6283 43.0408 45.5895 42.9516C45.1307 41.8872 43.8615 39.6358 43.3047 38.6596C42.8283 40.0656 42.4067 41.3844 42.0523 42.5752C43.6635 45.522 44.6451 50.5732 44.6451 50.5732C44.6451 50.5732 44.5595 50.2464 44.1567 49.1064C43.7951 48.0932 42.0059 44.9564 41.5835 44.2256C40.8559 46.9016 40.5679 48.7084 40.8291 49.1508C41.3347 50.002 41.8127 51.4772 42.2351 53.1028C43.1879 56.7696 43.8515 61.2352 43.8515 61.2352C43.8515 61.2352 43.8707 61.5284 43.9103 61.9852C43.7835 65.0384 43.8455 68.0964 44.0959 71.142C44.4107 74.9608 45.0039 78.244 45.7607 79.9996L46.2783 79.7188C45.1651 76.2596 44.7135 71.7232 44.9107 66.4964C45.2107 58.5008 47.0495 48.862 50.4459 38.8158C56.1903 23.647 64.1571 11.4796 71.4471 5.66892C64.8015 11.6702 55.8079 31.0964 53.1147 38.2908C50.1023 46.3476 47.9659 53.9056 46.6767 61.1496C48.8951 54.36 56.0807 51.4432 56.0807 51.4432C56.0807 51.4432 59.6039 47.0944 63.7227 40.8884C61.2539 41.4528 57.2039 42.4144 55.8491 42.9832C53.8491 43.8232 53.3071 44.1084 53.3071 44.1084C53.3071 44.1084 59.7891 40.1632 65.3507 38.3764C72.9971 26.3327 81.3271 9.22144 72.9391 1.7383" fill="#003956"/>
<defs>
<linearGradient id="paint0_linear_263_1183" x1="37.0879" y1="6.4686" x2="37.0879" y2="57.8892" gradientUnits="userSpaceOnUse">
<stop stop-color="#95D7F4"/>
<stop offset="0.92" stop-color="#0F7FCC"/>
<stop offset="1" stop-color="#0F7FCC"/>
</linearGradient>
</defs>
</svg>
