<svg width="80" height="80" viewBox="0 0 80 80" fill="none" xmlns="http://www.w3.org/2000/svg">
<g clip-path="url(#clip0_263_1128)">
<mask id="mask0_263_1128" style="mask-type:luminance" maskUnits="userSpaceOnUse" x="0" y="0" width="80" height="80">
<path d="M80 0H0V80H80V0Z" fill="white"/>
</mask>
<g mask="url(#mask0_263_1128)">
<path d="M13.1879 36.6484L37.209 12.5031C38.6381 11.063 40.338 9.92002 42.2112 9.14006C44.084 8.36006 46.0928 7.9585 48.1216 7.9585C50.1504 7.9585 52.1592 8.36006 54.0324 9.14006C55.9052 9.92002 57.6052 11.063 59.0344 12.5031C59.7244 13.253 60.0988 14.2405 60.0784 15.2595C60.0584 16.2785 59.6456 17.2504 58.926 17.9724C58.5688 18.3333 58.1436 18.6198 57.6748 18.8153C57.206 19.0109 56.7032 19.1115 56.1956 19.1115C55.6876 19.1115 55.1848 19.0109 54.716 18.8153C54.2476 18.6198 53.822 18.3333 53.4648 17.9724L53.1044 17.5517C51.6288 16.295 49.7332 15.6422 47.7968 15.7239C45.8604 15.8057 44.0264 16.6159 42.6624 17.9925L18.1083 42.6747C16.4935 44.1731 14.0494 44.1731 12.5468 42.6587C12.1383 42.2479 11.8267 41.7511 11.6347 41.2047C11.4426 40.6583 11.3751 40.0759 11.4369 39.4998C11.4987 38.9238 11.6884 38.3689 11.992 37.8757C12.2956 37.3823 12.7016 36.9631 13.1879 36.6484ZM67.104 37.1733C66.6968 36.7627 66.2024 36.4493 65.6572 36.2562C65.112 36.0631 64.5304 35.9955 63.9556 36.0583C63.3808 36.121 62.8276 36.3126 62.3368 36.6187C61.8464 36.9248 61.4308 37.3376 61.122 37.8264L37.209 61.8755C36.494 62.5951 35.6437 63.1663 34.7071 63.5559C33.7705 63.9459 32.7661 64.1463 31.7517 64.1463C30.7372 64.1463 29.7328 63.9459 28.7962 63.5559C27.8596 63.1663 27.0094 62.5951 26.2944 61.8755L26.1862 61.8555C25.8286 61.4959 25.4035 61.2103 24.9352 61.0155C24.4669 60.8203 23.9647 60.7203 23.4575 60.7203C22.9503 60.7203 22.448 60.8203 21.9797 61.0155C21.5115 61.2103 21.0863 61.4959 20.7288 61.8555C20.3219 62.2643 20.0109 62.7583 19.8184 63.3019C19.6259 63.8455 19.5567 64.4251 19.6158 64.9991C19.6748 65.5727 19.8607 66.1263 20.1599 66.6191C20.4591 67.1123 20.8642 67.5327 21.3459 67.8499C24.2738 70.5387 28.1292 71.9895 32.1034 71.8975C36.0776 71.8055 39.8618 70.1783 42.6624 67.3571L67.108 42.6587C67.8316 41.9291 68.2376 40.9435 68.2376 39.916C68.2376 38.8885 67.8276 37.9027 67.104 37.1733ZM29.5599 53.1047C29.073 53.4187 28.6624 53.8379 28.3584 54.3311C28.0543 54.8243 27.8644 55.3795 27.8026 55.9555C27.7407 56.5319 27.8085 57.1147 28.001 57.6611C28.1934 58.2079 28.5056 58.7043 28.9148 59.1147C30.4174 60.6255 32.8576 60.6255 34.4764 59.1307L59.0304 34.4446C59.7452 33.7251 60.5948 33.1541 61.5312 32.7645C62.4676 32.3748 63.4716 32.1742 64.4856 32.1742C65.5 32.1742 66.504 32.3748 67.44 32.7645C68.3764 33.1541 69.2264 33.7251 69.9412 34.4446C71.39 35.9025 72.2032 37.8745 72.2032 39.93C72.2032 41.9855 71.39 43.9575 69.9412 45.4155L46.6612 68.9355C47.376 69.6547 48.226 70.2251 49.1624 70.6147C50.0988 71.0039 51.1024 71.2043 52.1164 71.2043C53.1304 71.2043 54.1344 71.0039 55.0708 70.6147C56.0068 70.2251 56.8568 69.6547 57.572 68.9355L75.4024 50.9047C78.2976 47.9867 79.9224 44.0427 79.9224 39.932C79.9224 35.8213 78.2976 31.8772 75.4024 28.9592C73.9724 27.52 72.272 26.3778 70.3988 25.5984C68.5256 24.8189 66.5164 24.4177 64.4876 24.4177C62.4588 24.4177 60.45 24.8189 58.5768 25.5984C56.7036 26.3778 55.0032 27.52 53.5732 28.9592L29.5599 53.1047ZM26.2903 50.9007L50.732 26.2025C51.4568 25.4736 51.8632 24.4876 51.8632 23.4598C51.8632 22.4321 51.4568 21.4461 50.732 20.7171C50.3252 20.3066 49.8312 19.9931 49.2864 19.8001C48.7416 19.6071 48.16 19.5394 47.5856 19.6022C47.0108 19.6649 46.458 19.8565 45.9676 20.1627C45.4776 20.4688 45.0624 20.8815 44.754 21.3703L20.833 45.4235C20.1186 46.1435 19.2688 46.7147 18.3324 47.1047C17.3962 47.4947 16.3919 47.6955 15.3777 47.6955C14.3634 47.6955 13.3592 47.4947 12.4229 47.1047C11.4866 46.7147 10.6367 46.1435 9.92231 45.4235C8.47207 43.9655 7.65803 41.9923 7.65803 39.936C7.65803 37.8795 8.47207 35.9067 9.92231 34.4486L33.2062 10.9324C32.4917 10.2118 31.6416 9.63986 30.705 9.24954C29.7683 8.85922 28.7636 8.65826 27.7488 8.65826C26.7341 8.65826 25.7294 8.85922 24.7927 9.24954C23.856 9.63986 23.006 10.2118 22.2915 10.9324L4.46499 28.9633C1.57109 31.8804 -0.0527344 35.8229 -0.0527344 39.932C-0.0527348 44.0411 1.57109 47.9835 4.46499 50.9007C5.89383 52.3415 7.59379 53.4847 9.46675 54.2651C11.3397 55.0455 13.3486 55.4471 15.3777 55.4471C17.4067 55.4471 19.4156 55.0455 21.2886 54.2651C23.1615 53.4847 24.8615 52.3415 26.2903 50.9007Z" fill="white"/>
</g>
</g>
<defs>
<clipPath id="clip0_263_1128">
<rect width="80" height="80" fill="white"/>
</clipPath>
</defs>
</svg>
