<svg width="16" height="16" viewBox="0 0 16 16" fill="none" xmlns="http://www.w3.org/2000/svg">
<path d="M13.1872 11.8139C12.6782 11.9356 12.1468 12 11.6005 12C7.84497 12 4.80049 8.95552 4.80049 5.20001C4.80049 4.81323 4.83278 4.43399 4.89482 4.06484C4.86587 4.09269 4.83595 4.11834 4.80444 4.14225C4.57996 4.31267 4.30037 4.37593 3.7412 4.50245L3.23212 4.61763C1.26438 5.06285 0.280506 5.28546 0.0464259 6.03819C-0.187654 6.79096 0.48309 7.57528 1.82457 9.14392L2.17163 9.54976C2.55283 9.99552 2.74343 10.2184 2.82918 10.4942C2.91493 10.7699 2.88611 11.0673 2.82847 11.6621L2.77601 12.2035C2.57319 14.2965 2.47179 15.343 3.08461 15.8082C3.69743 16.2734 4.61863 15.8493 6.46105 15.001L6.93769 14.7814C7.46121 14.5404 7.72297 14.4199 8.00049 14.4199C8.27801 14.4199 8.53977 14.5404 9.06329 14.7814L9.53993 15.001C11.3823 15.8493 12.3035 16.2734 12.9164 15.8082C13.5292 15.343 13.4278 14.2965 13.225 12.2035L13.1872 11.8139Z" fill="#FDE047"/>
<path d="M5.72291 2.72671L5.46075 3.19699C5.1728 3.71355 5.02893 3.97183 4.80444 4.14225C4.83595 4.11834 4.86587 4.09269 4.89482 4.06484C4.83278 4.43399 4.80049 4.81323 4.80049 5.20001C4.80049 8.95552 7.84497 12 11.6005 12C12.1468 12 12.6782 11.9356 13.1872 11.8139L13.1724 11.6621C13.1147 11.0673 13.0859 10.7699 13.1717 10.4942C13.2575 10.2184 13.448 9.99552 13.8292 9.54976L14.1763 9.14392C15.5178 7.57528 16.1885 6.79088 15.9544 6.03819C15.7203 5.28546 14.7365 5.06285 12.7687 4.61763L12.2597 4.50244C11.7005 4.37592 11.4209 4.31267 11.1964 4.14225C10.9719 3.97183 10.8279 3.71355 10.54 3.19699L10.2779 2.7267C9.26449 0.908897 8.75785 0 8.00041 0C7.24289 0 6.73625 0.908905 5.72291 2.72671Z" fill="#FDE047"/>
</svg>
