<svg width="81" height="48" viewBox="0 0 81 48" fill="none" xmlns="http://www.w3.org/2000/svg">
<mask id="mask0_2401_23369" style="mask-type:luminance" maskUnits="userSpaceOnUse" x="0" y="0" width="81" height="48">
<path d="M0.5 0H80.5V48H0.5V0Z" fill="white"/>
</mask>
<g mask="url(#mask0_2401_23369)">
<path fill-rule="evenodd" clip-rule="evenodd" d="M40.5 3C31.1667 3 25.3333 7.66665 23 17C26.5 12.3333 30.5833 10.5833 35.25 11.75C37.9126 12.415 39.8155 14.3478 41.9221 16.4854C45.3535 19.9685 49.3252 24 58 24C67.3335 24 73.1665 19.3333 75.5 10C72 14.6667 67.9165 16.4167 63.25 15.25C60.5875 14.585 58.6846 12.6522 56.5779 10.5146C53.1465 7.03148 49.1747 3 40.5 3ZM23 24C13.6667 24 7.83333 28.6665 5.5 38C9 33.3335 13.0833 31.5835 17.75 32.75C20.4126 33.4164 22.3155 35.3477 24.4221 37.4855C27.8533 40.9683 31.8252 45 40.5 45C49.8335 45 55.6665 40.3335 58 31C54.5 35.6665 50.4165 37.4165 45.75 36.25C43.0876 35.585 41.1846 33.6523 39.0779 31.5145C35.6467 28.0317 31.6748 24 23 24Z" fill="#38BDF8"/>
</g>
</svg>
