<svg width="700" height="530" viewBox="0 0 700 530" fill="none" xmlns="http://www.w3.org/2000/svg">
<mask id="mask0_121_5" style="mask-type:alpha" maskUnits="userSpaceOnUse" x="0" y="0" width="700" height="530">
<ellipse cx="350" cy="265" rx="350" ry="265" fill="url(#paint0_radial_121_5)"/>
</mask>
<g mask="url(#mask0_121_5)">
<circle cx="339.5" cy="67.3001" r="240.84" stroke="url(#paint1_angular_121_5)" stroke-width="2.16"/>
<circle opacity="0.5" cx="339.5" cy="67.3001" r="241.92" fill="url(#paint2_angular_121_5)"/>
<circle cx="339.5" cy="551.14" r="240.84" stroke="url(#paint3_angular_121_5)" stroke-width="2.16"/>
<circle opacity="0.1" cx="339.92" cy="551.14" r="241.92" fill="url(#paint4_angular_121_5)"/>
<g filter="url(#filter0_bi_121_5)">
<rect x="154.699" y="350" width="100" height="100" rx="50" transform="rotate(-90 154.699 350)" fill="#F8F8F8" fill-opacity="0.01"/>
<rect x="155.779" y="348.92" width="97.84" height="97.84" rx="48.92" transform="rotate(-90 155.779 348.92)" stroke="#F8F8F8" stroke-opacity="0.1" stroke-width="2.16"/>
<g clip-path="url(#clip0_121_5)">
<path d="M188.182 299.692C188.182 297.261 188.711 294.948 189.633 292.831L197.669 314.824C194.824 313.45 192.424 311.301 190.746 308.624C189.068 305.947 188.179 302.851 188.182 299.692ZM216.35 298.849C216.35 300.28 215.781 301.946 215.076 304.278L213.39 309.884L207.313 291.851L209.234 291.655C210.155 291.537 210.038 290.204 209.136 290.263C209.136 290.263 206.412 290.479 204.648 290.479L200.218 290.263C199.316 290.204 199.218 291.596 200.1 291.655L201.884 291.851L204.51 298.986L200.825 310.022L194.69 291.851L196.63 291.655C197.532 291.537 197.414 290.204 196.513 290.263C196.513 290.263 193.788 290.479 192.024 290.479L190.946 290.459C193.965 285.892 199.12 282.873 205 282.873C209.372 282.873 213.37 284.559 216.35 287.284H216.134C214.488 287.284 213.311 288.714 213.311 290.263C213.311 291.655 214.115 292.831 214.958 294.203C215.605 295.32 216.35 296.751 216.35 298.849ZM205.294 301.162L210.469 315.314L210.587 315.549C208.842 316.177 206.961 316.51 205 316.51C203.354 316.51 201.766 316.274 200.257 315.824L205.294 301.162ZM219.76 291.616C221.116 294.091 221.824 296.869 221.819 299.692C221.819 305.886 218.447 311.315 213.449 314.216L218.584 299.378C219.545 296.986 219.878 295.065 219.878 293.36L219.76 291.616ZM205 280.09C207.574 280.09 210.123 280.597 212.502 281.582C214.88 282.567 217.041 284.011 218.861 285.831C220.681 287.651 222.125 289.812 223.11 292.19C224.095 294.568 224.602 297.117 224.602 299.692C224.602 304.89 222.537 309.876 218.861 313.552C215.185 317.228 210.199 319.293 205 319.293C202.426 319.293 199.877 318.786 197.499 317.801C195.121 316.816 192.96 315.372 191.14 313.552C187.464 309.876 185.399 304.89 185.399 299.692C185.399 294.493 187.464 289.507 191.14 285.831C194.816 282.155 199.802 280.09 205 280.09ZM205 318.391C215.311 318.391 223.7 310.002 223.7 299.692C223.7 289.381 215.311 280.991 205 280.991C194.69 280.991 186.3 289.381 186.3 299.692C186.3 310.002 194.69 318.391 205 318.391Z" fill="url(#paint5_linear_121_5)"/>
<path d="M188.182 299.692C188.182 297.261 188.711 294.948 189.633 292.831L197.669 314.824C194.824 313.45 192.424 311.301 190.746 308.624C189.068 305.947 188.179 302.851 188.182 299.692ZM216.35 298.849C216.35 300.28 215.781 301.946 215.076 304.278L213.39 309.884L207.313 291.851L209.234 291.655C210.155 291.537 210.038 290.204 209.136 290.263C209.136 290.263 206.412 290.479 204.648 290.479L200.218 290.263C199.316 290.204 199.218 291.596 200.1 291.655L201.884 291.851L204.51 298.986L200.825 310.022L194.69 291.851L196.63 291.655C197.532 291.537 197.414 290.204 196.513 290.263C196.513 290.263 193.788 290.479 192.024 290.479L190.946 290.459C193.965 285.892 199.12 282.873 205 282.873C209.372 282.873 213.37 284.559 216.35 287.284H216.134C214.488 287.284 213.311 288.714 213.311 290.263C213.311 291.655 214.115 292.831 214.958 294.203C215.605 295.32 216.35 296.751 216.35 298.849ZM205.294 301.162L210.469 315.314L210.587 315.549C208.842 316.177 206.961 316.51 205 316.51C203.354 316.51 201.766 316.274 200.257 315.824L205.294 301.162ZM219.76 291.616C221.116 294.091 221.824 296.869 221.819 299.692C221.819 305.886 218.447 311.315 213.449 314.216L218.584 299.378C219.545 296.986 219.878 295.065 219.878 293.36L219.76 291.616ZM205 280.09C207.574 280.09 210.123 280.597 212.502 281.582C214.88 282.567 217.041 284.011 218.861 285.831C220.681 287.651 222.125 289.812 223.11 292.19C224.095 294.568 224.602 297.117 224.602 299.692C224.602 304.89 222.537 309.876 218.861 313.552C215.185 317.228 210.199 319.293 205 319.293C202.426 319.293 199.877 318.786 197.499 317.801C195.121 316.816 192.96 315.372 191.14 313.552C187.464 309.876 185.399 304.89 185.399 299.692C185.399 294.493 187.464 289.507 191.14 285.831C194.816 282.155 199.802 280.09 205 280.09ZM205 318.391C215.311 318.391 223.7 310.002 223.7 299.692C223.7 289.381 215.311 280.991 205 280.991C194.69 280.991 186.3 289.381 186.3 299.692C186.3 310.002 194.69 318.391 205 318.391Z" fill="url(#paint6_linear_121_5)"/>
</g>
</g>
<g filter="url(#filter1_bi_121_5)">
<rect x="204" y="161" width="100" height="100" rx="50" transform="rotate(-30 204 161)" fill="#F8F8F8" fill-opacity="0.01"/>
<rect x="205.475" y="161.395" width="97.84" height="97.84" rx="48.92" transform="rotate(-30 205.475 161.395)" stroke="#F8F8F8" stroke-opacity="0.1" stroke-width="2.16"/>
<g clip-path="url(#clip1_121_5)">
<path d="M288.325 172.115C287.817 171.943 287.304 171.783 286.787 171.636C286.874 171.286 286.954 170.94 287.025 170.6C288.189 165.016 287.428 160.518 284.829 159.037C282.337 157.617 278.262 159.097 274.147 162.637C273.741 162.987 273.344 163.346 272.957 163.715C272.698 163.47 272.434 163.229 272.166 162.993C267.852 159.208 263.529 157.613 260.933 159.098C258.443 160.523 257.706 164.751 258.754 170.043C258.858 170.567 258.976 171.089 259.107 171.607C258.495 171.779 257.904 171.962 257.339 172.157C252.282 173.899 249.053 176.63 249.053 179.462C249.053 182.388 252.52 185.322 257.787 187.101C258.214 187.245 258.645 187.378 259.078 187.501C258.937 188.059 258.812 188.621 258.703 189.186C257.704 194.386 258.484 198.515 260.967 199.93C263.532 201.392 267.836 199.889 272.026 196.269C272.366 195.974 272.699 195.672 273.023 195.361C273.442 195.761 273.873 196.149 274.314 196.525C278.374 199.978 282.383 201.372 284.864 199.952C287.426 198.487 288.258 194.051 287.177 188.655C287.092 188.232 286.997 187.811 286.891 187.393C287.193 187.305 287.49 187.213 287.779 187.119C293.255 185.326 296.817 182.427 296.817 179.462C296.817 176.62 293.484 173.87 288.325 172.115ZM287.137 185.205C286.876 185.29 286.608 185.372 286.335 185.453C285.73 183.561 284.915 181.55 283.916 179.472C284.869 177.444 285.653 175.458 286.241 173.579C286.73 173.719 287.204 173.866 287.661 174.022C292.081 175.526 294.777 177.749 294.777 179.462C294.777 181.287 291.865 183.656 287.137 185.205ZM285.176 189.046C285.654 191.432 285.722 193.59 285.405 195.277C285.121 196.792 284.549 197.803 283.841 198.207C282.336 199.069 279.117 197.949 275.645 194.996C275.235 194.647 274.834 194.286 274.444 193.914C275.79 192.459 277.135 190.768 278.448 188.89C280.757 188.688 282.939 188.356 284.917 187.904C285.012 188.283 285.098 188.664 285.176 189.046ZM265.337 198.059C263.866 198.572 262.695 198.587 261.987 198.183C260.48 197.324 259.854 194.009 260.708 189.562C260.81 189.036 260.926 188.514 261.057 187.995C263.013 188.423 265.179 188.73 267.493 188.916C268.815 190.754 270.199 192.443 271.594 193.922C271.297 194.206 270.994 194.482 270.684 194.75C268.831 196.351 266.973 197.487 265.337 198.059ZM258.447 185.193C256.118 184.407 254.195 183.384 252.876 182.268C251.691 181.266 251.093 180.27 251.093 179.462C251.093 177.743 253.686 175.551 258.011 174.061C258.536 173.88 259.085 173.71 259.655 173.55C260.253 175.471 261.037 177.48 261.983 179.511C261.025 181.573 260.229 183.614 259.626 185.558C259.23 185.446 258.837 185.325 258.447 185.193ZM260.757 169.656C259.859 165.122 260.455 161.702 261.955 160.844C263.553 159.929 267.087 161.233 270.811 164.501C271.054 164.715 271.293 164.933 271.528 165.155C270.14 166.628 268.769 168.304 267.459 170.131C265.212 170.337 263.062 170.668 261.085 171.11C260.963 170.628 260.854 170.143 260.757 169.656ZM281.36 174.684C280.893 173.887 280.409 173.1 279.908 172.323C281.432 172.514 282.892 172.767 284.263 173.076C283.851 174.38 283.338 175.743 282.734 177.141C282.293 176.313 281.835 175.494 281.36 174.684ZM272.958 166.596C273.899 167.604 274.842 168.729 275.769 169.95C273.888 169.862 272.004 169.862 270.124 169.949C271.052 168.739 272.002 167.616 272.958 166.596ZM264.502 174.698C264.033 175.501 263.584 176.315 263.154 177.139C262.56 175.746 262.051 174.377 261.636 173.054C262.999 172.753 264.452 172.507 265.966 172.32C265.459 173.101 264.971 173.894 264.502 174.698ZM266.01 186.749C264.445 186.576 262.97 186.343 261.608 186.049C262.029 184.703 262.549 183.305 263.156 181.882C263.588 182.707 264.039 183.521 264.51 184.325C264.994 185.151 265.495 185.96 266.01 186.749ZM273.014 192.471C272.047 191.44 271.083 190.299 270.14 189.072C271.055 189.107 271.987 189.125 272.935 189.125C273.909 189.125 274.871 189.104 275.818 189.062C274.888 190.311 273.949 191.454 273.014 192.471ZM282.754 181.809C283.392 183.248 283.93 184.639 284.357 185.962C282.973 186.274 281.477 186.526 279.902 186.713C280.407 185.922 280.895 185.121 281.368 184.311C281.849 183.487 282.311 182.653 282.754 181.809ZM279.601 183.303C278.877 184.545 278.113 185.764 277.309 186.957C275.854 187.059 274.395 187.109 272.935 187.109C271.449 187.109 270.003 187.063 268.611 186.974C267.786 185.783 267.007 184.563 266.276 183.314C265.548 182.072 264.868 180.803 264.238 179.511C264.867 178.217 265.545 176.948 266.27 175.705L266.27 175.705C266.995 174.462 267.767 173.247 268.586 172.061C270.006 171.955 271.463 171.9 272.935 171.9C274.414 171.9 275.873 171.956 277.292 172.063C278.103 173.246 278.87 174.457 279.594 175.694C280.322 176.935 281.008 178.198 281.653 179.482C281.015 180.779 280.33 182.054 279.601 183.303ZM283.81 160.784C285.409 161.695 286.031 165.372 285.027 170.193C284.962 170.5 284.89 170.814 284.812 171.131C282.83 170.679 280.678 170.343 278.425 170.134C277.113 168.287 275.753 166.608 274.388 165.154C274.745 164.813 275.112 164.481 275.486 164.158C279.013 161.125 282.308 159.928 283.81 160.784ZM272.935 175.247C275.291 175.247 277.2 177.134 277.2 179.462C277.2 181.79 275.291 183.678 272.935 183.678C270.58 183.678 268.67 181.79 268.67 179.462C268.67 177.134 270.58 175.247 272.935 175.247Z" fill="url(#paint7_linear_121_5)"/>
</g>
</g>
<g filter="url(#filter2_bi_121_5)">
<rect x="389" y="111" width="100" height="100" rx="50" transform="rotate(30 389 111)" fill="#F8F8F8" fill-opacity="0.01"/>
<rect x="389.395" y="112.475" width="97.84" height="97.84" rx="48.92" transform="rotate(30 389.395 112.475)" stroke="#F8F8F8" stroke-opacity="0.1" stroke-width="2.16"/>
<g clip-path="url(#clip2_121_5)">
<mask id="mask1_121_5" style="mask-type:luminance" maskUnits="userSpaceOnUse" x="386" y="159" width="42" height="42">
<path d="M427.528 159.047L386.217 159.047L386.217 200.358L427.528 200.358L427.528 159.047Z" fill="white"/>
</mask>
<g mask="url(#mask1_121_5)">
<path d="M417.846 159.047L395.899 159.047C390.552 159.047 386.217 163.381 386.217 168.729L386.217 190.676C386.217 196.023 390.552 200.358 395.899 200.358L417.846 200.358C423.193 200.358 427.528 196.023 427.528 190.676L427.528 168.729C427.528 163.381 423.193 159.047 417.846 159.047Z" fill="url(#paint8_linear_121_5)"/>
<path d="M397.078 193.569L400.24 191.656C400.85 192.737 401.404 193.652 402.735 193.652C404.011 193.652 404.815 193.154 404.815 191.213L404.815 178.013L408.697 178.013L408.697 191.267C408.697 195.288 406.341 197.119 402.902 197.119C399.796 197.119 397.994 195.511 397.078 193.569ZM410.806 193.153L413.967 191.323C414.799 192.682 415.881 193.68 417.794 193.68C419.403 193.68 420.428 192.876 420.428 191.767C420.428 190.436 419.375 189.964 417.6 189.188L416.63 188.772C413.829 187.58 411.971 186.082 411.971 182.921C411.971 180.009 414.189 177.791 417.656 177.791C420.124 177.791 421.898 178.65 423.174 180.896L420.151 182.838C419.486 181.645 418.765 181.174 417.656 181.174C416.519 181.174 415.798 181.895 415.798 182.838C415.798 184.002 416.519 184.474 418.182 185.195L419.153 185.611C422.453 187.025 424.311 188.467 424.311 191.711C424.311 195.206 421.566 197.119 417.877 197.119C414.272 197.119 411.943 195.4 410.806 193.153Z" fill="url(#paint9_linear_121_5)"/>
</g>
</g>
</g>
<g filter="url(#filter3_bi_121_5)">
<rect x="524.699" y="250" width="100" height="100" rx="50" transform="rotate(90 524.699 250)" fill="#F8F8F8" fill-opacity="0.01"/>
<rect x="523.619" y="251.08" width="97.84" height="97.84" rx="48.92" transform="rotate(90 523.619 251.08)" stroke="#F8F8F8" stroke-opacity="0.1" stroke-width="2.16"/>
<g clip-path="url(#clip3_121_5)">
<mask id="mask2_121_5" style="mask-type:luminance" maskUnits="userSpaceOnUse" x="453" y="279" width="42" height="42">
<path d="M494.71 279.435H453.398V320.747H494.71V279.435Z" fill="white"/>
</mask>
<g mask="url(#mask2_121_5)">
<path d="M473.877 279.447C463.415 279.447 464.069 284.002 464.069 284.002L464.08 288.721H474.064V290.137H460.115C460.115 290.137 453.42 289.375 453.42 299.973C453.42 310.571 459.263 310.195 459.263 310.195H462.751V305.277C462.751 305.277 462.563 299.411 468.501 299.411H478.403C478.403 299.411 483.966 299.501 483.966 294.013V284.939C483.966 284.939 484.811 279.447 473.877 279.447ZM468.372 282.62C468.608 282.62 468.842 282.667 469.06 282.757C469.278 282.848 469.476 282.981 469.643 283.148C469.81 283.316 469.942 283.514 470.032 283.733C470.122 283.952 470.169 284.187 470.168 284.424C470.169 284.66 470.122 284.895 470.032 285.114C469.942 285.333 469.81 285.532 469.643 285.699C469.476 285.866 469.278 285.999 469.06 286.09C468.842 286.18 468.608 286.227 468.372 286.227C468.136 286.227 467.903 286.18 467.685 286.09C467.467 285.999 467.269 285.866 467.102 285.699C466.935 285.532 466.803 285.333 466.713 285.114C466.622 284.895 466.576 284.66 466.576 284.424C466.576 284.187 466.622 283.952 466.713 283.733C466.803 283.514 466.935 283.316 467.102 283.148C467.269 282.981 467.467 282.848 467.685 282.757C467.903 282.667 468.136 282.62 468.372 282.62Z" fill="url(#paint10_linear_121_5)"/>
<path d="M474.175 320.605C484.637 320.605 483.983 316.05 483.983 316.05L483.972 311.332H473.988V309.915H487.937C487.937 309.915 494.632 310.677 494.632 300.079C494.632 289.481 488.789 289.857 488.789 289.857H485.301V294.775C485.301 294.775 485.489 300.641 479.551 300.641H469.649C469.649 300.641 464.086 300.551 464.086 306.039V315.114C464.086 315.114 463.241 320.605 474.175 320.605ZM479.68 317.432C479.444 317.432 479.21 317.386 478.992 317.295C478.774 317.205 478.576 317.072 478.409 316.905C478.242 316.737 478.11 316.538 478.02 316.319C477.93 316.1 477.883 315.866 477.883 315.629C477.883 315.392 477.93 315.158 478.02 314.939C478.11 314.72 478.242 314.521 478.409 314.353C478.576 314.186 478.774 314.053 478.992 313.963C479.21 313.872 479.444 313.826 479.68 313.826C479.915 313.826 480.149 313.872 480.367 313.963C480.585 314.053 480.783 314.186 480.95 314.353C481.117 314.521 481.249 314.72 481.339 314.939C481.429 315.157 481.476 315.392 481.476 315.629C481.476 315.866 481.429 316.1 481.339 316.319C481.249 316.538 481.117 316.737 480.95 316.904C480.783 317.072 480.585 317.205 480.367 317.295C480.149 317.386 479.915 317.432 479.68 317.432Z" fill="url(#paint11_linear_121_5)"/>
</g>
</g>
</g>
<g filter="url(#filter4_bi_121_5)">
<rect x="476" y="437" width="100" height="100" rx="50" transform="rotate(150 476 437)" fill="#F8F8F8" fill-opacity="0.01"/>
<rect x="474.525" y="436.605" width="97.84" height="97.84" rx="48.92" transform="rotate(150 474.525 436.605)" stroke="#F8F8F8" stroke-opacity="0.1" stroke-width="2.16"/>
<g clip-path="url(#clip4_121_5)">
<path d="M427.612 406.83C427.627 406.885 427.635 406.943 427.635 407.001L427.635 415.987C427.635 416.222 427.51 416.439 427.306 416.556L419.764 420.898L419.764 429.506C419.764 429.621 419.733 429.734 419.676 429.834C419.618 429.933 419.536 430.016 419.436 430.074L403.692 439.138C403.656 439.158 403.616 439.171 403.577 439.185C403.562 439.19 403.548 439.199 403.533 439.203C403.423 439.232 403.307 439.232 403.197 439.203C403.179 439.198 403.162 439.188 403.145 439.182C403.109 439.168 403.072 439.157 403.037 439.138L387.296 430.074C387.196 430.016 387.113 429.934 387.055 429.834C386.997 429.734 386.967 429.621 386.967 429.506L386.967 402.546C386.967 402.487 386.975 402.43 386.99 402.374C386.995 402.355 387.006 402.338 387.013 402.319C387.025 402.285 387.037 402.25 387.054 402.218C387.067 402.196 387.085 402.179 387.099 402.159C387.118 402.133 387.136 402.106 387.158 402.083C387.176 402.064 387.201 402.051 387.222 402.034C387.246 402.014 387.267 401.993 387.294 401.978L387.295 401.978L395.166 397.446C395.266 397.389 395.379 397.358 395.494 397.358C395.609 397.358 395.722 397.389 395.821 397.446L403.692 401.978L403.694 401.978C403.72 401.994 403.742 402.014 403.766 402.033C403.787 402.05 403.811 402.064 403.83 402.083C403.853 402.106 403.869 402.133 403.889 402.159C403.903 402.179 403.922 402.196 403.933 402.218C403.952 402.25 403.962 402.285 403.976 402.319C403.982 402.338 403.994 402.355 403.999 402.375C404.014 402.431 404.021 402.488 404.022 402.546L404.022 419.384L410.58 415.608L410.58 407C410.58 406.943 410.588 406.884 410.603 406.83C410.609 406.81 410.62 406.793 410.626 406.774C410.639 406.74 410.651 406.704 410.669 406.672C410.681 406.651 410.699 406.634 410.713 406.614C410.733 406.588 410.749 406.561 410.772 406.538C410.791 406.519 410.815 406.505 410.836 406.489C410.86 406.469 410.882 406.448 410.908 406.432L410.909 406.432L418.781 401.901C418.88 401.843 418.993 401.813 419.108 401.813C419.223 401.813 419.336 401.843 419.436 401.901L427.307 406.432C427.335 406.449 427.356 406.469 427.381 406.488C427.401 406.505 427.425 406.519 427.444 406.537C427.466 406.561 427.483 406.588 427.502 406.614C427.517 406.634 427.535 406.651 427.547 406.672C427.566 406.704 427.576 406.74 427.589 406.774C427.597 406.793 427.607 406.81 427.612 406.83ZM426.323 415.608L426.323 408.135L423.569 409.721L419.763 411.912L419.763 419.385L426.324 415.608L426.323 415.608ZM418.452 429.126L418.452 421.648L414.709 423.786L404.021 429.886L404.021 437.434L418.452 429.126ZM388.279 403.68L388.279 429.126L402.709 437.434L402.709 429.887L395.17 425.621L395.168 425.619L395.165 425.618C395.139 425.603 395.118 425.581 395.094 425.563C395.074 425.547 395.05 425.534 395.032 425.516L395.03 425.513C395.009 425.493 394.994 425.468 394.976 425.445C394.96 425.422 394.94 425.404 394.927 425.381L394.926 425.378C394.912 425.354 394.903 425.324 394.892 425.296C394.881 425.272 394.867 425.249 394.861 425.223L394.861 425.222C394.853 425.191 394.851 425.158 394.848 425.126C394.845 425.102 394.838 425.077 394.838 425.052L394.838 407.457L391.033 405.265L388.279 403.681L388.279 403.68ZM395.495 398.771L388.937 402.546L395.493 406.321L402.05 402.545L395.493 398.771L395.495 398.771ZM398.905 422.33L402.709 420.14L402.709 403.68L399.955 405.266L396.15 407.457L396.15 423.916L398.905 422.33ZM419.108 403.226L412.551 407.001L419.108 410.776L425.664 407L419.108 403.226ZM418.452 411.912L414.647 409.721L411.893 408.135L411.893 415.608L415.697 417.798L418.452 419.385L418.452 411.912ZM403.364 428.752L412.982 423.261L417.79 420.517L411.237 416.745L403.693 421.088L396.817 425.047L403.364 428.752Z" fill="url(#paint12_linear_121_5)"/>
</g>
</g>
<g filter="url(#filter5_bi_121_5)">
<rect x="291" y="487" width="100" height="100" rx="50" transform="rotate(-150 291 487)" fill="#F8F8F8" fill-opacity="0.01"/>
<rect x="290.605" y="485.525" width="97.84" height="97.84" rx="48.92" transform="rotate(-150 290.605 485.525)" stroke="#F8F8F8" stroke-opacity="0.1" stroke-width="2.16"/>
<path d="M273.09 399.705L255.982 405.805L258.592 428.425L273.09 436.455L287.587 428.425L290.197 405.805L273.09 399.705Z" fill="url(#paint13_linear_121_5)"/>
<path d="M273.09 399.705L273.09 403.784L273.09 403.766L273.09 436.455L287.588 428.425L290.197 405.805L273.09 399.705Z" fill="url(#paint14_linear_121_5)"/>
<path d="M273.091 403.766L262.396 427.746L266.384 427.746L268.534 422.38L277.611 422.38L279.761 427.746L283.748 427.746L273.091 403.766ZM276.214 419.073L269.967 419.073L273.091 411.557L276.214 419.073Z" fill="black"/>
</g>
<g filter="url(#filter6_di_121_5)">
<g clip-path="url(#clip5_121_5)">
<g filter="url(#filter7_bdi_121_5)">
<rect x="294.699" y="255" width="90" height="90" rx="45" fill="#F8F8F8" fill-opacity="0.01" shape-rendering="crispEdges"/>
<rect x="294.699" y="255" width="90" height="90" rx="45" fill="#121212" fill-opacity="0.3" shape-rendering="crispEdges"/>
<rect x="295.779" y="256.08" width="87.84" height="87.84" rx="43.92" stroke="url(#paint15_linear_121_5)" stroke-opacity="0.25" stroke-width="2.16" shape-rendering="crispEdges"/>
<path d="M328.646 317.457C328.646 318.764 328.646 319.414 329.049 319.817C329.452 320.22 330.108 320.22 331.409 320.22H334.822C336.128 320.22 336.779 320.22 337.182 319.817C337.585 319.414 337.585 318.758 337.585 317.457V292.571C337.585 292.047 337.585 291.788 337.746 291.627C337.907 291.466 338.172 291.466 338.69 291.466H356.019C357.326 291.466 357.976 291.466 358.379 291.063C358.782 290.66 358.782 290.004 358.782 288.703V286.983C358.782 285.676 358.782 285.026 358.379 284.623C357.976 284.22 357.32 284.22 356.019 284.22H331.403C330.097 284.22 329.446 284.22 329.044 284.623C328.641 285.026 328.641 285.682 328.641 286.983L328.646 317.457Z" fill="#FBFBFB"/>
<path d="M342.412 299.742C342.412 299.201 342.412 298.925 342.579 298.758C342.746 298.591 343.022 298.591 343.563 298.591H351.195C352.351 298.591 352.933 298.591 353.082 298.942C353.232 299.293 352.829 299.708 352.023 300.542L344.397 308.462C343.557 309.337 343.137 309.774 342.774 309.624C342.412 309.48 342.412 308.87 342.412 307.662V299.742Z" fill="#FBFBFB"/>
</g>
</g>
<rect x="290.779" y="251.08" width="97.84" height="97.84" rx="48.92" stroke="#F8F8F8" stroke-opacity="0.4" stroke-width="2.16" shape-rendering="crispEdges"/>
</g>
</g>
<defs>
<filter id="filter0_bi_121_5" x="10.6992" y="106" width="388" height="388" filterUnits="userSpaceOnUse" color-interpolation-filters="sRGB">
<feFlood flood-opacity="0" result="BackgroundImageFix"/>
<feGaussianBlur in="BackgroundImageFix" stdDeviation="72"/>
<feComposite in2="SourceAlpha" operator="in" result="effect1_backgroundBlur_121_5"/>
<feBlend mode="normal" in="SourceGraphic" in2="effect1_backgroundBlur_121_5" result="shape"/>
<feColorMatrix in="SourceAlpha" type="matrix" values="0 0 0 0 0 0 0 0 0 0 0 0 0 0 0 0 0 0 127 0" result="hardAlpha"/>
<feOffset dx="2.88" dy="5.76"/>
<feGaussianBlur stdDeviation="11.52"/>
<feComposite in2="hardAlpha" operator="arithmetic" k2="-1" k3="1"/>
<feColorMatrix type="matrix" values="0 0 0 0 0.972549 0 0 0 0 0.972549 0 0 0 0 0.972549 0 0 0 0.06 0"/>
<feBlend mode="normal" in2="shape" result="effect2_innerShadow_121_5"/>
</filter>
<filter id="filter1_bi_121_5" x="60" y="-33" width="424.603" height="424.603" filterUnits="userSpaceOnUse" color-interpolation-filters="sRGB">
<feFlood flood-opacity="0" result="BackgroundImageFix"/>
<feGaussianBlur in="BackgroundImageFix" stdDeviation="72"/>
<feComposite in2="SourceAlpha" operator="in" result="effect1_backgroundBlur_121_5"/>
<feBlend mode="normal" in="SourceGraphic" in2="effect1_backgroundBlur_121_5" result="shape"/>
<feColorMatrix in="SourceAlpha" type="matrix" values="0 0 0 0 0 0 0 0 0 0 0 0 0 0 0 0 0 0 127 0" result="hardAlpha"/>
<feOffset dx="2.88" dy="5.76"/>
<feGaussianBlur stdDeviation="11.52"/>
<feComposite in2="hardAlpha" operator="arithmetic" k2="-1" k3="1"/>
<feColorMatrix type="matrix" values="0 0 0 0 0.972549 0 0 0 0 0.972549 0 0 0 0 0.972549 0 0 0 0.06 0"/>
<feBlend mode="normal" in2="shape" result="effect2_innerShadow_121_5"/>
</filter>
<filter id="filter2_bi_121_5" x="195" y="-33" width="424.603" height="424.603" filterUnits="userSpaceOnUse" color-interpolation-filters="sRGB">
<feFlood flood-opacity="0" result="BackgroundImageFix"/>
<feGaussianBlur in="BackgroundImageFix" stdDeviation="72"/>
<feComposite in2="SourceAlpha" operator="in" result="effect1_backgroundBlur_121_5"/>
<feBlend mode="normal" in="SourceGraphic" in2="effect1_backgroundBlur_121_5" result="shape"/>
<feColorMatrix in="SourceAlpha" type="matrix" values="0 0 0 0 0 0 0 0 0 0 0 0 0 0 0 0 0 0 127 0" result="hardAlpha"/>
<feOffset dx="2.88" dy="5.76"/>
<feGaussianBlur stdDeviation="11.52"/>
<feComposite in2="hardAlpha" operator="arithmetic" k2="-1" k3="1"/>
<feColorMatrix type="matrix" values="0 0 0 0 0.972549 0 0 0 0 0.972549 0 0 0 0 0.972549 0 0 0 0.06 0"/>
<feBlend mode="normal" in2="shape" result="effect2_innerShadow_121_5"/>
</filter>
<filter id="filter3_bi_121_5" x="280.699" y="106" width="388" height="388" filterUnits="userSpaceOnUse" color-interpolation-filters="sRGB">
<feFlood flood-opacity="0" result="BackgroundImageFix"/>
<feGaussianBlur in="BackgroundImageFix" stdDeviation="72"/>
<feComposite in2="SourceAlpha" operator="in" result="effect1_backgroundBlur_121_5"/>
<feBlend mode="normal" in="SourceGraphic" in2="effect1_backgroundBlur_121_5" result="shape"/>
<feColorMatrix in="SourceAlpha" type="matrix" values="0 0 0 0 0 0 0 0 0 0 0 0 0 0 0 0 0 0 127 0" result="hardAlpha"/>
<feOffset dx="2.88" dy="5.76"/>
<feGaussianBlur stdDeviation="11.52"/>
<feComposite in2="hardAlpha" operator="arithmetic" k2="-1" k3="1"/>
<feColorMatrix type="matrix" values="0 0 0 0 0.972549 0 0 0 0 0.972549 0 0 0 0 0.972549 0 0 0 0.06 0"/>
<feBlend mode="normal" in2="shape" result="effect2_innerShadow_121_5"/>
</filter>
<filter id="filter4_bi_121_5" x="195.397" y="206.397" width="424.603" height="424.603" filterUnits="userSpaceOnUse" color-interpolation-filters="sRGB">
<feFlood flood-opacity="0" result="BackgroundImageFix"/>
<feGaussianBlur in="BackgroundImageFix" stdDeviation="72"/>
<feComposite in2="SourceAlpha" operator="in" result="effect1_backgroundBlur_121_5"/>
<feBlend mode="normal" in="SourceGraphic" in2="effect1_backgroundBlur_121_5" result="shape"/>
<feColorMatrix in="SourceAlpha" type="matrix" values="0 0 0 0 0 0 0 0 0 0 0 0 0 0 0 0 0 0 127 0" result="hardAlpha"/>
<feOffset dx="2.88" dy="5.76"/>
<feGaussianBlur stdDeviation="11.52"/>
<feComposite in2="hardAlpha" operator="arithmetic" k2="-1" k3="1"/>
<feColorMatrix type="matrix" values="0 0 0 0 0.972549 0 0 0 0 0.972549 0 0 0 0 0.972549 0 0 0 0.06 0"/>
<feBlend mode="normal" in2="shape" result="effect2_innerShadow_121_5"/>
</filter>
<filter id="filter5_bi_121_5" x="60.3974" y="206.397" width="424.603" height="424.603" filterUnits="userSpaceOnUse" color-interpolation-filters="sRGB">
<feFlood flood-opacity="0" result="BackgroundImageFix"/>
<feGaussianBlur in="BackgroundImageFix" stdDeviation="72"/>
<feComposite in2="SourceAlpha" operator="in" result="effect1_backgroundBlur_121_5"/>
<feBlend mode="normal" in="SourceGraphic" in2="effect1_backgroundBlur_121_5" result="shape"/>
<feColorMatrix in="SourceAlpha" type="matrix" values="0 0 0 0 0 0 0 0 0 0 0 0 0 0 0 0 0 0 127 0" result="hardAlpha"/>
<feOffset dx="2.88" dy="5.76"/>
<feGaussianBlur stdDeviation="11.52"/>
<feComposite in2="hardAlpha" operator="arithmetic" k2="-1" k3="1"/>
<feColorMatrix type="matrix" values="0 0 0 0 0.972549 0 0 0 0 0.972549 0 0 0 0 0.972549 0 0 0 0.06 0"/>
<feBlend mode="normal" in2="shape" result="effect2_innerShadow_121_5"/>
</filter>
<filter id="filter6_di_121_5" x="278.179" y="250" width="123.04" height="157.6" filterUnits="userSpaceOnUse" color-interpolation-filters="sRGB">
<feFlood flood-opacity="0" result="BackgroundImageFix"/>
<feColorMatrix in="SourceAlpha" type="matrix" values="0 0 0 0 0 0 0 0 0 0 0 0 0 0 0 0 0 0 127 0" result="hardAlpha"/>
<feMorphology radius="23.04" operator="erode" in="SourceAlpha" result="effect1_dropShadow_121_5"/>
<feOffset dy="46.08"/>
<feGaussianBlur stdDeviation="17.28"/>
<feComposite in2="hardAlpha" operator="out"/>
<feColorMatrix type="matrix" values="0 0 0 0 0 0 0 0 0 0 0 0 0 0 0 0 0 0 0.4 0"/>
<feBlend mode="multiply" in2="BackgroundImageFix" result="effect1_dropShadow_121_5"/>
<feBlend mode="normal" in="SourceGraphic" in2="effect1_dropShadow_121_5" result="shape"/>
<feColorMatrix in="SourceAlpha" type="matrix" values="0 0 0 0 0 0 0 0 0 0 0 0 0 0 0 0 0 0 127 0" result="hardAlpha"/>
<feOffset/>
<feGaussianBlur stdDeviation="5.76"/>
<feComposite in2="hardAlpha" operator="arithmetic" k2="-1" k3="1"/>
<feColorMatrix type="matrix" values="0 0 0 0 0.972549 0 0 0 0 0.972549 0 0 0 0 0.972549 0 0 0 0.25 0"/>
<feBlend mode="normal" in2="shape" result="effect2_innerShadow_121_5"/>
</filter>
<filter id="filter7_bdi_121_5" x="277.419" y="237.72" width="124.56" height="164.88" filterUnits="userSpaceOnUse" color-interpolation-filters="sRGB">
<feFlood flood-opacity="0" result="BackgroundImageFix"/>
<feGaussianBlur in="BackgroundImageFix" stdDeviation="8.64"/>
<feComposite in2="SourceAlpha" operator="in" result="effect1_backgroundBlur_121_5"/>
<feColorMatrix in="SourceAlpha" type="matrix" values="0 0 0 0 0 0 0 0 0 0 0 0 0 0 0 0 0 0 127 0" result="hardAlpha"/>
<feMorphology radius="23.04" operator="erode" in="SourceAlpha" result="effect2_dropShadow_121_5"/>
<feOffset dy="46.08"/>
<feGaussianBlur stdDeviation="17.28"/>
<feComposite in2="hardAlpha" operator="out"/>
<feColorMatrix type="matrix" values="0 0 0 0 0 0 0 0 0 0 0 0 0 0 0 0 0 0 0.4 0"/>
<feBlend mode="multiply" in2="effect1_backgroundBlur_121_5" result="effect2_dropShadow_121_5"/>
<feBlend mode="normal" in="SourceGraphic" in2="effect2_dropShadow_121_5" result="shape"/>
<feColorMatrix in="SourceAlpha" type="matrix" values="0 0 0 0 0 0 0 0 0 0 0 0 0 0 0 0 0 0 127 0" result="hardAlpha"/>
<feOffset/>
<feGaussianBlur stdDeviation="5.76"/>
<feComposite in2="hardAlpha" operator="arithmetic" k2="-1" k3="1"/>
<feColorMatrix type="matrix" values="0 0 0 0 0.972549 0 0 0 0 0.972549 0 0 0 0 0.972549 0 0 0 0.25 0"/>
<feBlend mode="normal" in2="shape" result="effect3_innerShadow_121_5"/>
</filter>
<radialGradient id="paint0_radial_121_5" cx="0" cy="0" r="1" gradientUnits="userSpaceOnUse" gradientTransform="translate(350 265) rotate(90) scale(265 350)">
<stop stop-color="#D9D9D9"/>
<stop offset="1" stop-color="#737373" stop-opacity="0"/>
</radialGradient>
<radialGradient id="paint1_angular_121_5" cx="0" cy="0" r="1" gradientUnits="userSpaceOnUse" gradientTransform="translate(339.5 67.3001) rotate(90) scale(241.92)">
<stop offset="0.168962" stop-color="white" stop-opacity="0"/>
<stop offset="0.805094" stop-color="white" stop-opacity="0"/>
<stop offset="0.99975" stop-color="white" stop-opacity="0.15"/>
</radialGradient>
<radialGradient id="paint2_angular_121_5" cx="0" cy="0" r="1" gradientUnits="userSpaceOnUse" gradientTransform="translate(339.5 67.3001) rotate(90) scale(241.92)">
<stop offset="0.168962" stop-color="white" stop-opacity="0"/>
<stop offset="0.805094" stop-color="white" stop-opacity="0"/>
<stop offset="0.99975" stop-color="white" stop-opacity="0.15"/>
</radialGradient>
<radialGradient id="paint3_angular_121_5" cx="0" cy="0" r="1" gradientUnits="userSpaceOnUse" gradientTransform="translate(339.5 551.14) rotate(90) scale(241.92)">
<stop offset="0.352013" stop-color="white" stop-opacity="0"/>
<stop offset="0.49798" stop-color="white" stop-opacity="0.15"/>
<stop offset="0.648457" stop-color="white" stop-opacity="0"/>
</radialGradient>
<radialGradient id="paint4_angular_121_5" cx="0" cy="0" r="1" gradientUnits="userSpaceOnUse" gradientTransform="translate(339.92 551.14) scale(241.92)">
<stop offset="0.168962" stop-color="white" stop-opacity="0"/>
<stop offset="0.805094" stop-color="white" stop-opacity="0.5"/>
<stop offset="0.99975" stop-color="white" stop-opacity="0.15"/>
</radialGradient>
<linearGradient id="paint5_linear_121_5" x1="205" y1="280.09" x2="205" y2="319.293" gradientUnits="userSpaceOnUse">
<stop stop-color="#F8F8F8" stop-opacity="0.9"/>
<stop offset="1" stop-color="#F8F8F8" stop-opacity="0.3"/>
</linearGradient>
<linearGradient id="paint6_linear_121_5" x1="205" y1="280.09" x2="205" y2="319.293" gradientUnits="userSpaceOnUse">
<stop stop-color="#F8F8F8" stop-opacity="0.9"/>
<stop offset="1" stop-color="#F8F8F8" stop-opacity="0.3"/>
</linearGradient>
<linearGradient id="paint7_linear_121_5" x1="272.935" y1="158.502" x2="272.935" y2="200.502" gradientUnits="userSpaceOnUse">
<stop stop-color="#F8F8F8" stop-opacity="0.9"/>
<stop offset="1" stop-color="#F8F8F8" stop-opacity="0.3"/>
</linearGradient>
<linearGradient id="paint8_linear_121_5" x1="406.873" y1="159.047" x2="406.873" y2="200.358" gradientUnits="userSpaceOnUse">
<stop stop-color="#F8F8F8" stop-opacity="0.9"/>
<stop offset="1" stop-color="#F8F8F8" stop-opacity="0.3"/>
</linearGradient>
<linearGradient id="paint9_linear_121_5" x1="410.694" y1="197.119" x2="410.694" y2="177.791" gradientUnits="userSpaceOnUse">
<stop stop-color="#F8F8F8" stop-opacity="0.9"/>
<stop offset="1" stop-color="#F8F8F8" stop-opacity="0.3"/>
</linearGradient>
<linearGradient id="paint10_linear_121_5" x1="468.701" y1="279.447" x2="468.701" y2="310.197" gradientUnits="userSpaceOnUse">
<stop stop-color="#F8F8F8" stop-opacity="0.9"/>
<stop offset="1" stop-color="#F8F8F8" stop-opacity="0.3"/>
</linearGradient>
<linearGradient id="paint11_linear_121_5" x1="479.351" y1="289.856" x2="479.351" y2="320.605" gradientUnits="userSpaceOnUse">
<stop stop-color="#F8F8F8" stop-opacity="0.9"/>
<stop offset="1" stop-color="#F8F8F8" stop-opacity="0.3"/>
</linearGradient>
<linearGradient id="paint12_linear_121_5" x1="407.301" y1="397.358" x2="407.301" y2="439.225" gradientUnits="userSpaceOnUse">
<stop stop-color="#F8F8F8" stop-opacity="0.9"/>
<stop offset="1" stop-color="#F8F8F8" stop-opacity="0.3"/>
</linearGradient>
<linearGradient id="paint13_linear_121_5" x1="273.09" y1="399.705" x2="273.09" y2="436.455" gradientUnits="userSpaceOnUse">
<stop stop-color="#F8F8F8" stop-opacity="0.9"/>
<stop offset="1" stop-color="#F8F8F8" stop-opacity="0.3"/>
</linearGradient>
<linearGradient id="paint14_linear_121_5" x1="281.643" y1="399.705" x2="281.643" y2="436.455" gradientUnits="userSpaceOnUse">
<stop stop-color="#F8F8F8" stop-opacity="0.9"/>
<stop offset="1" stop-color="#F8F8F8" stop-opacity="0.3"/>
</linearGradient>
<linearGradient id="paint15_linear_121_5" x1="339.699" y1="255" x2="378.851" y2="353.831" gradientUnits="userSpaceOnUse">
<stop stop-color="white" stop-opacity="0.4"/>
<stop offset="0.4" stop-color="white" stop-opacity="0.01"/>
<stop offset="0.6" stop-color="white" stop-opacity="0.01"/>
<stop offset="1" stop-color="white" stop-opacity="0.1"/>
</linearGradient>
<clipPath id="clip0_121_5">
<rect width="42" height="42" fill="white" transform="translate(184 278.691)"/>
</clipPath>
<clipPath id="clip1_121_5">
<rect width="48.1765" height="42" fill="white" transform="translate(248.873 158.502)"/>
</clipPath>
<clipPath id="clip2_121_5">
<rect width="41.3115" height="42" fill="white" transform="translate(386.217 158.702)"/>
</clipPath>
<clipPath id="clip3_121_5">
<rect width="41.3115" height="42" fill="white" transform="translate(453.398 279.091)"/>
</clipPath>
<clipPath id="clip4_121_5">
<rect width="42.21" height="42" fill="white" transform="translate(386.125 397.28)"/>
</clipPath>
<clipPath id="clip5_121_5">
<rect x="289.699" y="250" width="100" height="100" rx="50" fill="white"/>
</clipPath>
</defs>
</svg>
