<svg width="750" height="475" viewBox="0 0 750 475" fill="none" xmlns="http://www.w3.org/2000/svg">
<mask id="mask0_2_64" style="mask-type:alpha" maskUnits="userSpaceOnUse" x="0" y="0" width="750" height="475">
<path d="M0 38.5714C0 17.269 17.269 0 38.5714 0H711.429C732.731 0 750 17.269 750 38.5714V436.429C750 457.731 732.731 475 711.429 475H38.5714C17.269 475 0 457.731 0 436.429V38.5714Z" fill="url(#paint0_radial_2_64)"/>
</mask>
<g mask="url(#mask0_2_64)">
<path d="M702.407 95.9643H59.5931C53.6638 95.9643 48.8571 101.003 48.8571 107.218V475.782C48.8571 481.997 53.6638 487.036 59.5931 487.036H702.407C708.336 487.036 713.143 481.997 713.143 475.782V107.218C713.143 101.003 708.336 95.9643 702.407 95.9643Z" fill="url(#paint1_radial_2_64)" fill-opacity="0.4"/>
<path d="M183.056 190.167H82.4066C79.442 190.167 77.0387 192.583 77.0387 195.564V470.818C77.0387 473.799 79.442 476.215 82.4066 476.215H183.056C186.021 476.215 188.424 473.799 188.424 470.818V195.564C188.424 192.583 186.021 190.167 183.056 190.167Z" fill="url(#paint2_linear_2_64)" fill-opacity="0.2"/>
<path d="M183.057 190.841H82.4073C79.8133 190.841 77.7104 192.956 77.7104 195.564V470.818C77.7104 473.426 79.8133 475.541 82.4073 475.541H183.057C185.651 475.541 187.754 473.426 187.754 470.818V195.564C187.754 192.956 185.651 190.841 183.057 190.841Z" stroke="url(#paint3_linear_2_64)" stroke-opacity="0.6" stroke-width="1.07143" stroke-dasharray="3.2 3.2"/>
<path d="M679.593 125.176H82.4066C79.442 125.176 77.0387 127.592 77.0387 130.573V162.956C77.0387 165.936 79.442 168.353 82.4066 168.353H679.593C682.557 168.353 684.961 165.936 684.961 162.956V130.573C684.961 127.592 682.557 125.176 679.593 125.176Z" fill="url(#paint4_linear_2_64)" fill-opacity="0.2"/>
<path d="M116.788 141.11C116.788 140.482 116.788 140.17 116.982 139.976C117.176 139.783 117.491 139.783 118.116 139.783H119.756C120.384 139.783 120.696 139.783 120.89 139.976C121.083 140.17 121.083 140.485 121.083 141.11V153.069C121.083 153.32 121.083 153.445 121.161 153.522C121.238 153.6 121.366 153.6 121.614 153.6H129.942C130.57 153.6 130.882 153.6 131.076 153.793C131.269 153.987 131.269 154.28 131.269 154.908V155.757C131.269 156.385 131.269 156.697 131.076 156.891C130.882 157.084 130.567 157.084 129.942 157.084H118.119C117.491 157.084 117.178 157.084 116.985 156.891C116.791 156.697 116.791 156.382 116.791 155.757V141.11H116.788Z" fill="#E2E8F0" fill-opacity="0.6"/>
<path d="M133.866 154.929C133.866 154.301 133.866 153.989 134.06 153.795C134.253 153.602 134.569 153.602 135.194 153.602H147.009C147.636 153.602 147.949 153.602 148.142 153.795C148.336 153.989 148.336 154.304 148.336 154.929V155.756C148.336 156.384 148.336 156.696 148.142 156.89C147.949 157.084 147.634 157.084 147.009 157.084H135.194C134.566 157.084 134.253 157.084 134.06 156.89C133.866 156.696 133.866 156.381 133.866 155.756V154.929Z" fill="#E2E8F0" fill-opacity="0.6"/>
<path d="M133.866 141.11C133.866 140.482 133.866 140.17 134.06 139.976C134.253 139.782 134.569 139.782 135.194 139.782H147.009C147.636 139.782 147.949 139.782 148.142 139.976C148.336 140.17 148.336 140.485 148.336 141.11V141.937C148.336 142.565 148.336 142.877 148.142 143.071C147.949 143.264 147.634 143.264 147.009 143.264H135.194C134.566 143.264 134.253 143.264 134.06 143.071C133.866 142.877 133.866 142.562 133.866 141.937V141.11Z" fill="#E2E8F0" fill-opacity="0.6"/>
<path d="M133.866 148.018C133.866 147.39 133.866 147.077 134.06 146.884C134.253 146.69 134.569 146.69 135.194 146.69H147.009C147.636 146.69 147.949 146.69 148.142 146.884C148.336 147.077 148.336 147.393 148.336 148.018V148.845C148.336 149.472 148.336 149.785 148.142 149.978C147.949 150.172 147.634 150.172 147.009 150.172H135.194C134.566 150.172 134.253 150.172 134.06 149.978C133.866 149.785 133.866 149.47 133.866 148.845V148.018Z" fill="#E2E8F0" fill-opacity="0.6"/>
<path d="M99.7109 155.758C99.7109 156.386 99.7109 156.698 99.9045 156.892C100.098 157.085 100.413 157.085 101.038 157.085H102.678C103.306 157.085 103.619 157.085 103.812 156.892C104.006 156.698 104.006 156.383 104.006 155.758V143.799C104.006 143.548 104.006 143.423 104.083 143.346C104.161 143.268 104.288 143.268 104.537 143.268H112.864C113.492 143.268 113.805 143.268 113.998 143.075C114.192 142.881 114.192 142.566 114.192 141.941V141.114C114.192 140.486 114.192 140.173 113.998 139.98C113.805 139.786 113.489 139.786 112.864 139.786H101.036C100.408 139.786 100.095 139.786 99.9018 139.98C99.7082 140.173 99.7082 140.489 99.7082 141.114L99.7109 155.758Z" fill="#E2E8F0" fill-opacity="0.6"/>
<path d="M106.325 147.245C106.325 146.985 106.325 146.853 106.405 146.772C106.486 146.692 106.618 146.692 106.878 146.692H110.546C111.102 146.692 111.381 146.692 111.453 146.861C111.525 147.03 111.331 147.229 110.944 147.63L107.279 151.435C106.876 151.856 106.674 152.066 106.499 151.994C106.325 151.925 106.325 151.632 106.325 151.051V147.245Z" fill="#E2E8F0" fill-opacity="0.6"/>
<path d="M167.358 156.244C167.629 156.614 167.764 156.8 167.692 156.943C167.618 157.09 167.388 157.09 166.929 157.09H164.05C163.721 157.09 163.555 157.09 163.414 157.018C163.273 156.946 163.173 156.813 162.98 156.548L159.431 151.714L159.384 151.653C159.362 151.628 159.343 151.614 159.324 151.614C159.299 151.614 159.279 151.633 159.249 151.669L155.665 156.551C155.468 156.816 155.371 156.949 155.228 157.021C155.087 157.093 154.921 157.093 154.592 157.093H151.715C151.256 157.093 151.027 157.093 150.952 156.946C150.877 156.802 151.013 156.617 151.287 156.246L156.79 148.752C156.901 148.599 156.959 148.525 156.959 148.436C156.959 148.356 156.906 148.281 156.812 148.149L151.289 140.632C151.016 140.261 150.88 140.076 150.955 139.929C151.029 139.783 151.259 139.783 151.718 139.783H154.594C154.923 139.783 155.089 139.783 155.23 139.854C155.371 139.926 155.471 140.059 155.667 140.325L159.257 145.212C159.285 145.245 159.301 145.261 159.326 145.261C159.351 145.261 159.368 145.245 159.395 145.212L162.985 140.325C163.179 140.056 163.278 139.924 163.419 139.854C163.561 139.783 163.726 139.783 164.056 139.783H166.935C167.394 139.783 167.623 139.783 167.698 139.929C167.773 140.076 167.637 140.258 167.363 140.632L161.857 148.124C161.746 148.276 161.691 148.351 161.691 148.439C161.691 148.525 161.746 148.602 161.857 148.752L167.358 156.244Z" fill="#E2E8F0" fill-opacity="0.6"/>
<path d="M679.593 126.076H82.4073C79.8133 126.076 77.7104 128.19 77.7104 130.798V163.181C77.7104 165.789 79.8133 167.903 82.4073 167.903H679.593C682.188 167.903 684.29 165.789 684.29 163.181V130.798C684.29 128.19 682.188 126.076 679.593 126.076Z" stroke="#E2E8F0" stroke-opacity="0.6" stroke-width="1.07143" stroke-dasharray="3.2 3.2"/>
<path d="M535.999 190.167H225.999C223.034 190.167 220.631 192.583 220.631 195.564V470.818C220.631 473.799 223.034 476.215 225.999 476.215H535.999C538.964 476.215 541.367 473.799 541.367 470.818V195.564C541.367 192.583 538.964 190.167 535.999 190.167Z" fill="url(#paint5_linear_2_64)" fill-opacity="0.2"/>
<path d="M536 190.841H226C223.406 190.841 221.303 192.956 221.303 195.564V470.818C221.303 473.426 223.406 475.541 226 475.541H536C538.594 475.541 540.697 473.426 540.697 470.818V195.564C540.697 192.956 538.594 190.841 536 190.841Z" stroke="url(#paint6_linear_2_64)" stroke-opacity="0.6" stroke-width="1.07143" stroke-dasharray="3.2 3.2"/>
<path d="M678.811 190.167H578.162C575.197 190.167 572.794 192.583 572.794 195.564V470.818C572.794 473.799 575.197 476.215 578.162 476.215H678.811C681.776 476.215 684.179 473.799 684.179 470.818V195.564C684.179 192.583 681.776 190.167 678.811 190.167Z" fill="url(#paint7_linear_2_64)" fill-opacity="0.2"/>
<path d="M678.812 190.841H578.163C575.569 190.841 573.466 192.956 573.466 195.564V470.818C573.466 473.426 575.569 475.541 578.163 475.541H678.812C681.406 475.541 683.509 473.426 683.509 470.818V195.564C683.509 192.956 681.406 190.841 678.812 190.841Z" stroke="url(#paint8_linear_2_64)" stroke-opacity="0.6" stroke-width="1.07143" stroke-dasharray="3.2 3.2"/>
<path d="M287.731 146.99H325.307M356.173 146.99H393.749M424.614 146.99H462.19" stroke="#E2E8F0" stroke-opacity="0.6" stroke-width="4.28571" stroke-linecap="round"/>
<path d="M666.215 139.24H611.193C608.97 139.24 607.168 141.053 607.168 143.288V150.035C607.168 152.27 608.97 154.082 611.193 154.082H666.215C668.439 154.082 670.241 152.27 670.241 150.035V143.288C670.241 141.053 668.439 139.24 666.215 139.24Z" fill="#E2E8F0" fill-opacity="0.6"/>
<path fill-rule="evenodd" clip-rule="evenodd" d="M101.866 217.152C100.976 217.152 100.123 217.508 99.4938 218.14C98.8646 218.773 98.5111 219.631 98.5111 220.526C98.5111 221.42 98.8646 222.278 99.4938 222.911C100.123 223.543 100.976 223.899 101.866 223.899H113.944C114.834 223.899 115.687 223.543 116.316 222.911C116.946 222.278 117.299 221.42 117.299 220.526C117.299 219.631 116.946 218.773 116.316 218.14C115.687 217.508 114.834 217.152 113.944 217.152H101.866ZM101.866 329.143C100.976 329.143 100.123 329.498 99.4938 330.131C98.8646 330.764 98.5111 331.622 98.5111 332.516C98.5111 333.411 98.8646 334.269 99.4938 334.901C100.123 335.534 100.976 335.889 101.866 335.889H113.944C114.834 335.889 115.687 335.534 116.316 334.901C116.946 334.269 117.299 333.411 117.299 332.516C117.299 331.622 116.946 330.764 116.316 330.131C115.687 329.498 114.834 329.143 113.944 329.143H101.866ZM98.5111 275.846C98.5111 273.957 99.9873 272.473 101.866 272.473H105.892C106.782 272.473 107.635 272.828 108.264 273.461C108.894 274.094 109.247 274.952 109.247 275.846C109.247 276.741 108.894 277.599 108.264 278.232C107.635 278.864 106.782 279.22 105.892 279.22H101.866C100.976 279.22 100.123 278.864 99.4938 278.232C98.8646 277.599 98.5111 276.741 98.5111 275.846ZM101.866 385.813C100.976 385.813 100.123 386.168 99.4938 386.801C98.8646 387.434 98.5111 388.292 98.5111 389.186C98.5111 390.081 98.8646 390.939 99.4938 391.571C100.123 392.204 100.976 392.559 101.866 392.559H111.26C112.15 392.559 113.003 392.204 113.632 391.571C114.262 390.939 114.615 390.081 114.615 389.186C114.615 388.292 114.262 387.434 113.632 386.801C113.003 386.168 112.15 385.813 111.26 385.813H101.866ZM98.5111 238.066C98.5111 236.177 99.9873 234.693 101.866 234.693H154.204C155.094 234.693 155.947 235.048 156.576 235.681C157.205 236.314 157.559 237.172 157.559 238.066C157.559 238.961 157.205 239.819 156.576 240.452C155.947 241.084 155.094 241.44 154.204 241.44H101.866C100.976 241.44 100.123 241.084 99.4938 240.452C98.8646 239.819 98.5111 238.961 98.5111 238.066ZM101.866 348.033C100.976 348.033 100.123 348.388 99.4938 349.021C98.8646 349.654 98.5111 350.512 98.5111 351.406C98.5111 352.301 98.8646 353.159 99.4938 353.791C100.123 354.424 100.976 354.779 101.866 354.779H154.204C155.094 354.779 155.947 354.424 156.576 353.791C157.205 353.159 157.559 352.301 157.559 351.406C157.559 350.512 157.205 349.654 156.576 349.021C155.947 348.388 155.094 348.033 154.204 348.033H101.866ZM98.5111 294.736C98.5111 292.847 99.9873 291.363 101.866 291.363H130.048C130.938 291.363 131.791 291.718 132.42 292.351C133.049 292.984 133.403 293.842 133.403 294.736C133.403 295.631 133.049 296.489 132.42 297.122C131.791 297.754 130.938 298.11 130.048 298.11H101.866C100.976 298.11 100.123 297.754 99.4938 297.122C98.8646 296.489 98.5111 295.631 98.5111 294.736ZM101.866 404.703C100.976 404.703 100.123 405.058 99.4938 405.691C98.8646 406.324 98.5111 407.182 98.5111 408.076C98.5111 408.971 98.8646 409.829 99.4938 410.461C100.123 411.094 100.976 411.449 101.866 411.449H130.048C130.938 411.449 131.791 411.094 132.42 410.461C133.049 409.829 133.403 408.971 133.403 408.076C133.403 407.182 133.049 406.324 132.42 405.691C131.791 405.058 130.938 404.703 130.048 404.703H101.866ZM98.5111 256.956C98.5111 255.067 99.9873 253.583 101.866 253.583H154.204C155.094 253.583 155.947 253.938 156.576 254.571C157.205 255.204 157.559 256.062 157.559 256.956C157.559 257.851 157.205 258.709 156.576 259.342C155.947 259.974 155.094 260.33 154.204 260.33H101.866C100.976 260.33 100.123 259.974 99.4938 259.342C98.8646 258.709 98.5111 257.851 98.5111 256.956ZM101.866 366.923C100.976 366.923 100.123 367.278 99.4938 367.911C98.8646 368.544 98.5111 369.402 98.5111 370.296C98.5111 371.191 98.8646 372.049 99.4938 372.681C100.123 373.314 100.976 373.669 101.866 373.669H154.204C155.094 373.669 155.947 373.314 156.576 372.681C157.205 372.049 157.559 371.191 157.559 370.296C157.559 369.402 157.205 368.544 156.576 367.911C155.947 367.278 155.094 366.923 154.204 366.923H101.866ZM98.5111 313.626C98.5111 311.737 99.9873 310.253 101.866 310.253H130.048C130.938 310.253 131.791 310.608 132.42 311.241C133.049 311.874 133.403 312.732 133.403 313.626C133.403 314.521 133.049 315.379 132.42 316.011C131.791 316.644 130.938 316.999 130.048 316.999H101.866C100.976 316.999 100.123 316.644 99.4938 316.011C98.8646 315.379 98.5111 314.521 98.5111 313.626ZM101.866 423.593C100.976 423.593 100.123 423.948 99.4938 424.581C98.8646 425.214 98.5111 426.072 98.5111 426.966C98.5111 427.861 98.8646 428.719 99.4938 429.351C100.123 429.984 100.976 430.339 101.866 430.339H130.048C130.938 430.339 131.791 429.984 132.42 429.351C133.049 428.719 133.403 427.861 133.403 426.966C133.403 426.072 133.049 425.214 132.42 424.581C131.791 423.948 130.938 423.593 130.048 423.593H101.866Z" fill="url(#paint9_linear_2_64)" fill-opacity="0.4"/>
<path fill-rule="evenodd" clip-rule="evenodd" d="M594.267 212.138C594.267 210.249 595.743 208.765 597.622 208.765H604.332C605.221 208.765 606.075 209.12 606.704 209.753C607.333 210.385 607.686 211.243 607.686 212.138C607.686 213.032 607.333 213.89 606.704 214.523C606.075 215.156 605.221 215.511 604.332 215.511H597.622C596.732 215.511 595.878 215.156 595.249 214.523C594.62 213.89 594.267 213.032 594.267 212.138ZM594.267 268.808C594.267 266.919 595.743 265.435 597.622 265.435H612.383C613.273 265.435 614.127 265.79 614.756 266.423C615.385 267.055 615.738 267.913 615.738 268.808C615.738 269.702 615.385 270.56 614.756 271.193C614.127 271.826 613.273 272.181 612.383 272.181H597.622C596.732 272.181 595.878 271.826 595.249 271.193C594.62 270.56 594.267 269.702 594.267 268.808ZM597.622 322.105C596.732 322.105 595.878 322.46 595.249 323.093C594.62 323.725 594.267 324.583 594.267 325.478C594.267 326.372 594.62 327.23 595.249 327.863C595.878 328.496 596.732 328.851 597.622 328.851H604.332C605.221 328.851 606.075 328.496 606.704 327.863C607.333 327.23 607.686 326.372 607.686 325.478C607.686 324.583 607.333 323.725 606.704 323.093C606.075 322.46 605.221 322.105 604.332 322.105H597.622ZM594.267 287.698C594.267 285.809 595.743 284.325 597.622 284.325H662.037C662.927 284.325 663.78 284.68 664.409 285.313C665.039 285.945 665.392 286.803 665.392 287.698C665.392 288.592 665.039 289.45 664.409 290.083C663.78 290.716 662.927 291.071 662.037 291.071H597.622C596.732 291.071 595.878 290.716 595.249 290.083C594.62 289.45 594.267 288.592 594.267 287.698ZM597.622 227.655C596.732 227.655 595.878 228.01 595.249 228.643C594.62 229.275 594.267 230.133 594.267 231.028C594.267 231.922 594.62 232.78 595.249 233.413C595.878 234.046 596.732 234.401 597.622 234.401H629.829C630.719 234.401 631.572 234.046 632.202 233.413C632.831 232.78 633.184 231.922 633.184 231.028C633.184 230.133 632.831 229.275 632.202 228.643C631.572 228.01 630.719 227.655 629.829 227.655H597.622ZM594.267 345.717C594.267 343.828 595.743 342.344 597.622 342.344H629.829C630.719 342.344 631.572 342.699 632.202 343.332C632.831 343.964 633.184 344.822 633.184 345.717C633.184 346.612 632.831 347.47 632.202 348.102C631.572 348.735 630.719 349.09 629.829 349.09H597.622C596.732 349.09 595.878 348.735 595.249 348.102C594.62 347.47 594.267 346.612 594.267 345.717ZM597.622 304.564C596.732 304.564 595.878 304.919 595.249 305.552C594.62 306.184 594.267 307.042 594.267 307.937C594.267 308.832 594.62 309.69 595.249 310.322C595.878 310.955 596.732 311.31 597.622 311.31H662.037C662.927 311.31 663.78 310.955 664.409 310.322C665.039 309.69 665.392 308.832 665.392 307.937C665.392 307.042 665.039 306.184 664.409 305.552C663.78 304.919 662.927 304.564 662.037 304.564H597.622ZM594.267 248.568C594.267 246.679 595.743 245.195 597.622 245.195H629.829C630.719 245.195 631.572 245.551 632.202 246.183C632.831 246.816 633.184 247.674 633.184 248.568C633.184 249.463 632.831 250.321 632.202 250.954C631.572 251.586 630.719 251.942 629.829 251.942H597.622C596.732 251.942 595.878 251.586 595.249 250.954C594.62 250.321 594.267 249.463 594.267 248.568ZM597.622 362.583C596.732 362.583 595.878 362.938 595.249 363.571C594.62 364.204 594.267 365.062 594.267 365.956C594.267 366.851 594.62 367.709 595.249 368.342C595.878 368.974 596.732 369.33 597.622 369.33H629.829C630.719 369.33 631.572 368.974 632.202 368.342C632.831 367.709 633.184 366.851 633.184 365.956C633.184 365.062 632.831 364.204 632.202 363.571C631.572 362.938 630.719 362.583 629.829 362.583H597.622Z" fill="url(#paint10_linear_2_64)" fill-opacity="0.4"/>
<path fill-rule="evenodd" clip-rule="evenodd" d="M244.788 221.875C244.788 219.986 246.265 218.502 248.143 218.502H280.351C281.241 218.502 282.094 218.857 282.723 219.49C283.353 220.122 283.706 220.98 283.706 221.875C283.706 222.77 283.353 223.628 282.723 224.26C282.094 224.893 281.241 225.248 280.351 225.248H248.143C247.254 225.248 246.4 224.893 245.771 224.26C245.142 223.628 244.788 222.77 244.788 221.875ZM244.788 398.631C244.788 396.742 246.265 395.258 248.143 395.258H304.507C305.397 395.258 306.25 395.614 306.879 396.246C307.508 396.879 307.862 397.737 307.862 398.631C307.862 399.526 307.508 400.384 306.879 401.017C306.25 401.649 305.397 402.005 304.507 402.005H248.143C247.254 402.005 246.4 401.649 245.771 401.017C245.142 400.384 244.788 399.526 244.788 398.631ZM248.143 242.789C247.254 242.789 246.4 243.144 245.771 243.777C245.142 244.409 244.788 245.267 244.788 246.162C244.788 247.057 245.142 247.915 245.771 248.547C246.4 249.18 247.254 249.535 248.143 249.535H509.832C510.721 249.535 511.575 249.18 512.204 248.547C512.833 247.915 513.187 247.057 513.187 246.162C513.187 245.267 512.833 244.409 512.204 243.777C511.575 243.144 510.721 242.789 509.832 242.789H248.143ZM244.788 417.521C244.788 415.632 246.265 414.148 248.143 414.148H441.39C442.28 414.148 443.133 414.504 443.762 415.136C444.392 415.769 444.745 416.627 444.745 417.521C444.745 418.416 444.392 419.274 443.762 419.907C443.133 420.539 442.28 420.895 441.39 420.895H248.143C247.254 420.895 246.4 420.539 245.771 419.907C245.142 419.274 244.788 418.416 244.788 417.521ZM248.143 261.679C247.254 261.679 246.4 262.034 245.771 262.667C245.142 263.299 244.788 264.157 244.788 265.052C244.788 265.947 245.142 266.805 245.771 267.437C246.4 268.07 247.254 268.425 248.143 268.425H509.832C510.721 268.425 511.575 268.07 512.204 267.437C512.833 266.805 513.187 265.947 513.187 265.052C513.187 264.157 512.833 263.299 512.204 262.667C511.575 262.034 510.721 261.679 509.832 261.679H248.143ZM244.788 436.411C244.788 434.522 246.265 433.038 248.143 433.038H335.373C336.263 433.038 337.116 433.394 337.745 434.026C338.374 434.659 338.728 435.517 338.728 436.411C338.728 437.306 338.374 438.164 337.745 438.797C337.116 439.429 336.263 439.785 335.373 439.785H248.143C247.254 439.785 246.4 439.429 245.771 438.797C245.142 438.164 244.788 437.306 244.788 436.411ZM247.472 287.315C246.761 287.315 246.078 287.6 245.574 288.106C245.071 288.612 244.788 289.298 244.788 290.014V372.32C244.788 373.804 245.996 375.019 247.472 375.019H510.503C511.214 375.019 511.897 374.735 512.401 374.228C512.904 373.722 513.187 373.036 513.187 372.32V290.014C513.187 289.298 512.904 288.612 512.401 288.106C511.897 287.6 511.214 287.315 510.503 287.315H247.472Z" fill="url(#paint11_linear_2_64)" fill-opacity="0.4"/>
</g>
<path d="M148.5 115.374C148.5 95.1871 164.867 78.8214 185.054 78.8214C205.24 78.8214 221.605 95.1856 221.605 115.371C221.605 135.557 205.241 151.921 185.055 151.921H148.5V115.374Z" fill="#C1CFFF"/>
<mask id="mask1_2_64" style="mask-type:alpha" maskUnits="userSpaceOnUse" x="152" y="82" width="67" height="67">
<path d="M217.571 115.372C217.571 97.4117 203.012 82.8518 185.051 82.8518C167.09 82.8518 152.53 97.4117 152.53 115.372C152.53 133.333 167.09 147.893 185.051 147.893C203.012 147.893 217.571 133.333 217.571 115.372Z" fill="#D9D9D9" stroke="#232323" stroke-width="1.0324"/>
</mask>
<g mask="url(#mask1_2_64)">
<path d="M184.751 82.0357H184.751C166.505 82.0357 151.714 96.8266 151.714 115.072C151.714 133.318 166.505 148.109 184.751 148.109H184.751C202.997 148.109 217.788 133.318 217.788 115.072C217.788 96.8266 202.997 82.0357 184.751 82.0357Z" fill="#003AFF"/>
<path d="M179.068 107.25C180.111 107.25 181.032 107.45 181.832 107.85C182.632 108.236 183.296 108.779 183.825 109.479C184.368 110.164 184.775 110.964 185.046 111.879C185.318 112.779 185.454 113.736 185.454 114.75C185.454 116.136 185.211 117.4 184.725 118.543C184.239 119.671 183.525 120.571 182.582 121.243C181.639 121.914 180.468 122.25 179.068 122.25H173.839C173.539 122.25 173.282 122.15 173.068 121.95C172.854 121.736 172.746 121.471 172.746 121.157V108.343C172.746 108.029 172.854 107.771 173.068 107.571C173.282 107.357 173.539 107.25 173.839 107.25H179.068ZM178.854 120.193C179.868 120.193 180.689 119.943 181.318 119.443C181.946 118.943 182.404 118.286 182.689 117.471C182.989 116.643 183.139 115.736 183.139 114.75C183.139 114.021 183.054 113.336 182.882 112.693C182.725 112.036 182.468 111.457 182.111 110.957C181.768 110.443 181.325 110.043 180.782 109.757C180.254 109.457 179.611 109.307 178.854 109.307H174.804L174.996 109.114V120.407L174.868 120.193H178.854ZM193.267 122.464C192.081 122.464 191.053 122.221 190.181 121.736C189.31 121.236 188.631 120.557 188.146 119.7C187.674 118.829 187.439 117.836 187.439 116.721C187.439 115.464 187.689 114.393 188.189 113.507C188.703 112.607 189.367 111.921 190.181 111.45C190.996 110.964 191.86 110.721 192.774 110.721C193.474 110.721 194.139 110.864 194.767 111.15C195.396 111.421 195.953 111.807 196.439 112.307C196.939 112.793 197.331 113.371 197.617 114.043C197.903 114.7 198.053 115.421 198.067 116.207C198.053 116.493 197.939 116.729 197.724 116.914C197.51 117.1 197.26 117.193 196.974 117.193H188.639L188.124 115.371H196.181L195.774 115.757V115.221C195.746 114.721 195.581 114.286 195.281 113.914C194.981 113.529 194.61 113.236 194.167 113.036C193.724 112.821 193.26 112.714 192.774 112.714C192.346 112.714 191.931 112.786 191.531 112.929C191.146 113.057 190.796 113.271 190.481 113.571C190.181 113.871 189.939 114.271 189.753 114.771C189.581 115.257 189.496 115.864 189.496 116.593C189.496 117.379 189.66 118.064 189.989 118.65C190.317 119.236 190.76 119.693 191.317 120.021C191.874 120.336 192.489 120.493 193.16 120.493C193.689 120.493 194.124 120.443 194.467 120.343C194.81 120.229 195.096 120.093 195.324 119.936C195.553 119.779 195.753 119.629 195.924 119.486C196.139 119.357 196.353 119.293 196.567 119.293C196.824 119.293 197.039 119.386 197.21 119.571C197.381 119.743 197.467 119.95 197.467 120.193C197.467 120.507 197.31 120.793 196.996 121.05C196.61 121.421 196.074 121.75 195.389 122.036C194.717 122.321 194.01 122.464 193.267 122.464Z" fill="#FBFBFB"/>
</g>
<path d="M209.827 130.546H209.827C204.523 130.546 200.224 134.845 200.224 140.149V140.149C200.224 145.452 204.523 149.752 209.827 149.752H209.827C215.13 149.752 219.43 145.452 219.43 140.149V140.149C219.43 134.845 215.13 130.546 209.827 130.546Z" fill="#003AFF" stroke="#FBFBFB" stroke-width="2.68754"/>
<path d="M486 292.16C486 271.971 502.367 255.607 522.554 255.607C542.74 255.607 559.105 271.971 559.105 292.157C559.105 312.342 542.741 328.706 522.556 328.706H486V292.16Z" fill="#FAE3C7"/>
<mask id="mask2_2_64" style="mask-type:alpha" maskUnits="userSpaceOnUse" x="489" y="259" width="67" height="67">
<path d="M555.071 292.156C555.071 274.196 540.512 259.636 522.551 259.636C504.59 259.636 490.03 274.196 490.03 292.156C490.03 310.117 504.59 324.677 522.551 324.677C540.512 324.677 555.071 310.117 555.071 292.156Z" fill="#D9D9D9" stroke="#232323" stroke-width="1.0324"/>
</mask>
<g mask="url(#mask2_2_64)">
<path d="M522.251 258.821H522.251C504.005 258.821 489.214 273.612 489.214 291.858C489.214 310.103 504.005 324.894 522.251 324.894H522.251C540.497 324.894 555.288 310.103 555.288 291.858C555.288 273.612 540.497 258.821 522.251 258.821Z" fill="#DD8316"/>
<path d="M522.445 284.893C522.76 285.05 522.938 285.293 522.981 285.621C523.038 285.95 522.96 286.25 522.745 286.521C522.588 286.736 522.381 286.857 522.124 286.886C521.881 286.914 521.638 286.864 521.395 286.736C520.981 286.521 520.545 286.35 520.088 286.221C519.631 286.093 519.145 286.029 518.631 286.029C517.817 286.029 517.081 286.164 516.424 286.436C515.781 286.693 515.224 287.071 514.753 287.571C514.281 288.057 513.917 288.636 513.66 289.307C513.417 289.979 513.295 290.721 513.295 291.536C513.295 292.436 513.431 293.236 513.703 293.936C513.974 294.621 514.345 295.207 514.817 295.693C515.303 296.164 515.867 296.521 516.51 296.764C517.167 296.993 517.874 297.107 518.631 297.107C519.117 297.107 519.588 297.05 520.045 296.936C520.517 296.821 520.96 296.65 521.374 296.421C521.631 296.293 521.881 296.25 522.124 296.293C522.381 296.321 522.588 296.443 522.745 296.657C522.988 296.957 523.074 297.264 523.003 297.579C522.945 297.879 522.767 298.107 522.467 298.264C522.11 298.464 521.717 298.636 521.288 298.779C520.86 298.921 520.424 299.036 519.981 299.121C519.538 299.207 519.088 299.25 518.631 299.25C517.603 299.25 516.631 299.079 515.717 298.736C514.803 298.393 513.988 297.893 513.274 297.236C512.56 296.579 511.995 295.771 511.581 294.814C511.181 293.857 510.981 292.764 510.981 291.536C510.981 290.436 511.167 289.421 511.538 288.493C511.924 287.55 512.46 286.743 513.145 286.071C513.845 285.386 514.66 284.857 515.588 284.486C516.517 284.1 517.531 283.907 518.631 283.907C519.317 283.907 519.981 283.993 520.624 284.164C521.281 284.336 521.888 284.579 522.445 284.893ZM527.497 297.943C527.497 298.257 527.39 298.521 527.176 298.736C526.976 298.936 526.726 299.036 526.426 299.036C526.126 299.036 525.868 298.936 525.654 298.736C525.454 298.521 525.354 298.257 525.354 297.943V284.271C525.354 283.957 525.461 283.7 525.676 283.5C525.89 283.286 526.147 283.179 526.447 283.179C526.761 283.179 527.011 283.286 527.197 283.5C527.397 283.7 527.497 283.957 527.497 284.271V297.943ZM532.701 297.943C532.701 298.257 532.601 298.521 532.401 298.736C532.201 298.936 531.944 299.036 531.629 299.036C531.329 299.036 531.072 298.936 530.858 298.736C530.658 298.521 530.558 298.257 530.558 297.943V288.771C530.558 288.457 530.658 288.2 530.858 288C531.072 287.786 531.329 287.679 531.629 287.679C531.944 287.679 532.201 287.786 532.401 288C532.601 288.2 532.701 288.457 532.701 288.771V297.943ZM531.608 286.264C531.194 286.264 530.894 286.193 530.708 286.05C530.522 285.893 530.429 285.636 530.429 285.279V284.936C530.429 284.579 530.529 284.329 530.729 284.186C530.929 284.043 531.229 283.971 531.629 283.971C532.058 283.971 532.365 284.05 532.551 284.207C532.736 284.35 532.829 284.593 532.829 284.936V285.279C532.829 285.65 532.729 285.907 532.529 286.05C532.344 286.193 532.036 286.264 531.608 286.264Z" fill="#FBFBFB"/>
</g>
<defs>
<radialGradient id="paint0_radial_2_64" cx="0" cy="0" r="1" gradientUnits="userSpaceOnUse" gradientTransform="translate(375 237.5) rotate(90) scale(319.494 504.464)">
<stop stop-color="#D9D9D9" stop-opacity="0.6"/>
<stop offset="0.751624" stop-color="#737373" stop-opacity="0.4"/>
</radialGradient>
<radialGradient id="paint1_radial_2_64" cx="0" cy="0" r="1" gradientUnits="userSpaceOnUse" gradientTransform="translate(381 -131.786) rotate(90) scale(597.547 821.656)">
<stop stop-color="#E2E8F0"/>
<stop offset="1" stop-color="#E2E8F0" stop-opacity="0"/>
</radialGradient>
<linearGradient id="paint2_linear_2_64" x1="132.731" y1="190.167" x2="132.731" y2="320.373" gradientUnits="userSpaceOnUse">
<stop stop-color="#E2E8F0"/>
<stop offset="1" stop-color="#E2E8F0" stop-opacity="0"/>
</linearGradient>
<linearGradient id="paint3_linear_2_64" x1="132.732" y1="190.167" x2="132.868" y2="384.599" gradientUnits="userSpaceOnUse">
<stop stop-color="#E2E8F0"/>
<stop offset="1" stop-color="#E2E8F0" stop-opacity="0"/>
</linearGradient>
<linearGradient id="paint4_linear_2_64" x1="381" y1="125.176" x2="381.271" y2="168.353" gradientUnits="userSpaceOnUse">
<stop stop-color="#E2E8F0"/>
<stop offset="1" stop-color="#E2E8F0" stop-opacity="0"/>
</linearGradient>
<linearGradient id="paint5_linear_2_64" x1="380.999" y1="190.167" x2="380.999" y2="320.373" gradientUnits="userSpaceOnUse">
<stop stop-color="#E2E8F0"/>
<stop offset="1" stop-color="#E2E8F0" stop-opacity="0"/>
</linearGradient>
<linearGradient id="paint6_linear_2_64" x1="381" y1="190.167" x2="381" y2="384.599" gradientUnits="userSpaceOnUse">
<stop stop-color="#E2E8F0"/>
<stop offset="1" stop-color="#E2E8F0" stop-opacity="0"/>
</linearGradient>
<linearGradient id="paint7_linear_2_64" x1="628.487" y1="190.167" x2="628.487" y2="320.373" gradientUnits="userSpaceOnUse">
<stop stop-color="#E2E8F0"/>
<stop offset="1" stop-color="#E2E8F0" stop-opacity="0"/>
</linearGradient>
<linearGradient id="paint8_linear_2_64" x1="628.487" y1="190.167" x2="628.623" y2="384.599" gradientUnits="userSpaceOnUse">
<stop stop-color="#E2E8F0"/>
<stop offset="1" stop-color="#E2E8F0" stop-opacity="0"/>
</linearGradient>
<linearGradient id="paint9_linear_2_64" x1="130.853" y1="217.422" x2="131.124" y2="460.429" gradientUnits="userSpaceOnUse">
<stop stop-color="#E2E8F0"/>
<stop offset="1" stop-color="#E2E8F0" stop-opacity="0"/>
</linearGradient>
<linearGradient id="paint10_linear_2_64" x1="633.184" y1="209.034" x2="633.32" y2="389.434" gradientUnits="userSpaceOnUse">
<stop stop-color="#E2E8F0"/>
<stop offset="1" stop-color="#E2E8F0" stop-opacity="0"/>
</linearGradient>
<linearGradient id="paint11_linear_2_64" x1="381.537" y1="205.549" x2="381.402" y2="494.296" gradientUnits="userSpaceOnUse">
<stop stop-color="#E2E8F0"/>
<stop offset="1" stop-color="#E2E8F0" stop-opacity="0"/>
</linearGradient>
</defs>
</svg>
