<svg width="80" height="80" viewBox="0 0 80 80" fill="none" xmlns="http://www.w3.org/2000/svg">
<g clip-path="url(#clip0_263_1155)">
<mask id="mask0_263_1155" style="mask-type:luminance" maskUnits="userSpaceOnUse" x="0" y="0" width="80" height="80">
<path d="M80 0H0V80H80V0Z" fill="white"/>
</mask>
<g mask="url(#mask0_263_1155)">
<path d="M45.7886 25.0428C44.245 25.8145 43.5762 27.255 43.5762 31.165C43.5762 31.165 44.3482 30.3932 45.583 29.9302C46.483 29.5958 47.1262 29.1585 47.5894 28.8241C48.927 27.8209 49.1326 26.6119 49.1326 24.5026C49.107 24.5026 46.9978 24.374 45.7886 25.0428Z" fill="#FBBD71"/>
<path d="M36.3473 25.9425C35.0096 27.0486 34.6752 28.9521 34.6752 28.9521L30.3537 45.5181L26.8038 31.9618C26.4694 30.5213 25.8006 28.7464 24.7974 27.5117C23.5627 25.9425 20.9904 25.8396 20.6817 25.8396C20.4502 25.8396 17.9035 25.9425 16.5659 27.5117C15.5627 28.7464 14.8939 30.5213 14.5595 31.9618L11.2154 45.5181L6.89388 28.9521C6.89388 28.9521 6.55948 27.1772 5.22188 25.9425C3.11254 24.039 0 24.502 0 24.502L8.23152 55.4989C8.23152 55.4989 10.9068 55.7305 12.2444 55.0617C14.0193 54.1613 14.9196 53.5181 15.9228 49.2737C16.926 45.4925 19.6013 34.4827 19.8071 33.711C19.91 33.3766 20.1415 32.3734 20.8103 32.3734C21.4791 32.3734 21.7106 33.2737 21.8135 33.711C22.045 34.4827 24.6945 45.4925 25.6978 49.2737C26.8038 53.4925 27.5756 54.1613 29.3762 55.0617C30.7138 55.7305 33.3891 55.4989 33.3891 55.4989L41.5692 24.502C41.5692 24.502 38.4566 24.0647 36.3473 25.9425Z" fill="white"/>
<path d="M49.1052 29.4922C49.1052 29.4922 48.5392 30.2639 47.4332 30.9327C46.6612 31.37 45.9924 31.6015 45.2208 32.0388C43.8832 32.7076 43.5488 33.3764 43.5488 34.3796V34.714V36.3861V36.7205V55.3956C43.5488 55.3956 45.658 55.6272 46.9956 54.9584C48.7708 54.058 49.1052 53.1836 49.1052 49.402V30.7269V29.4922Z" fill="white"/>
<path d="M69.5561 40.0648L80.0001 24.6049C80.0001 24.6049 75.6785 23.8331 73.4405 25.8396C72.0001 27.0743 70.5593 29.3894 70.5593 29.3894L66.7781 34.9457C66.5465 35.2801 66.3409 35.5116 66.0065 35.5116C65.6721 35.5116 65.3377 35.1772 65.2349 34.9457L61.4533 29.3894C61.4533 29.3894 59.9101 27.1772 58.5725 25.8396C56.3601 23.8331 52.0129 24.6049 52.0129 24.6049L62.1221 40.0388L51.7812 55.4732C51.7812 55.4732 56.3345 56.0388 58.5725 54.0324C60.0129 52.7976 61.3505 50.6884 61.3505 50.6884L65.1317 45.132C65.3633 44.7976 65.5693 44.5664 65.9037 44.5664C66.2381 44.5664 66.5725 44.9008 66.6753 45.132L70.4565 50.6884C70.4565 50.6884 71.8969 52.7976 73.2349 54.0324C75.4469 56.0388 79.8969 55.4732 79.8969 55.4732L69.5561 40.0648Z" fill="white"/>
</g>
</g>
<defs>
<clipPath id="clip0_263_1155">
<rect width="80" height="80" fill="white"/>
</clipPath>
</defs>
</svg>
