<svg width="80" height="80" viewBox="0 0 80 80" fill="none" xmlns="http://www.w3.org/2000/svg">
<g clip-path="url(#clip0_263_1134)">
<mask id="mask0_263_1134" style="mask-type:luminance" maskUnits="userSpaceOnUse" x="0" y="0" width="80" height="80">
<path d="M80 0H0V80H80V0Z" fill="white"/>
</mask>
<g mask="url(#mask0_263_1134)">
<path d="M72.6876 55.6876H7.31251C3.25 55.6876 0 52.4376 0 48.3752V23.375C0 19.375 3.25 16.125 7.31251 16.125H72.75C76.75 16.125 80.0624 19.375 80.0624 23.4375V48.4376C80 52.4376 76.75 55.6876 72.6876 55.6876Z" fill="#7F54B3"/>
<path d="M8.62498 47.9372C8.62498 47.9372 10.375 55.3124 13.9375 50.3748C17.5 45.4372 20.9375 37.6873 20.9375 37.6873C20.9375 37.6873 21.1875 35.7498 22.1875 39.9998C23.1875 44.25 27.5 50 27.5 50C27.5 50 31.4375 54.9372 33.0625 49.75C32.4375 42.8748 34.8125 30.3748 37.25 24.3748C38.25 19.0623 32.6875 20.5623 32.1875 21.8123C31.6875 23.0623 28.25 31.0623 28 39.4373C28 39.4373 25.0625 31.4373 24.8125 28.5623C24.5625 25.6248 21.5 24.8748 19.75 27.6873C18 30.4998 12.6875 41.3748 12.6875 41.3748L9.24998 23.6248C9.24998 23.6248 5.8125 19.0623 3.8125 24.6248C3.8125 24.6248 7.37498 46.4372 8.62498 47.9372ZM54.3752 28.5623C49.0624 19.6873 41.1876 26.4373 41.1876 26.4373C41.1876 26.4373 35.1875 33.3748 37.875 42.8124C42.1876 52.1248 48.25 48 49.8752 47.25C51.5624 46.4372 58.6876 38.3123 54.3752 28.5623ZM50.3124 36.3748C50.3124 40.0624 47.25 43.5 44.75 42.75C43.3752 41.9372 42.5 39.7498 42.5 35.9998C43.75 29.9373 46.5 29.1248 47.9376 29.2498C50.6252 30.6873 50.5 33.8748 50.3124 36.3748ZM74.3124 28.5623C69 19.6873 61.1252 26.4373 61.1252 26.4373C61.1252 26.4373 55.1252 33.3748 57.8124 42.8124C62.1252 52.1248 68.1876 48 69.8124 47.25C71.4376 46.4372 78.6252 38.3123 74.3124 28.5623ZM70.25 36.3748C70.25 40.0624 67.1876 43.5 64.6876 42.75C63.3124 41.9372 62.4376 39.7498 62.4376 35.9998C63.6876 29.9373 66.4376 29.1248 67.8752 29.2498C70.5 30.6873 70.3752 33.8748 70.25 36.3748Z" fill="white"/>
<path d="M38.3125 55.6875L52.25 63.8747L49.3124 55.6875L41.3124 53.4375L38.3125 55.6875Z" fill="#7F54B3"/>
</g>
</g>
<defs>
<clipPath id="clip0_263_1134">
<rect width="80" height="80" fill="white"/>
</clipPath>
</defs>
</svg>
