<svg width="80" height="80" viewBox="0 0 80 80" fill="none" xmlns="http://www.w3.org/2000/svg">
<g clip-path="url(#clip0_263_1145)">
<path d="M7.96584 40.0008C7.96584 35.3709 8.97396 30.9652 10.7288 26.9328L26.0368 68.8244C20.6171 66.208 16.046 62.1148 12.8492 57.0156C9.65244 51.9168 7.95976 46.0188 7.96584 40.0008ZM61.6184 38.3952C61.6184 41.1208 60.5356 44.2944 59.1916 48.7376L55.9808 59.4156L44.4064 25.066L48.0652 24.6926C49.82 24.4686 49.596 21.9298 47.8788 22.0418C47.8788 22.0418 42.6888 22.4524 39.3286 22.4524L30.8905 22.0418C29.173 21.9298 28.9864 24.5806 30.6665 24.6926L34.0641 25.066L39.0672 38.6565L32.048 59.6772L20.3616 25.066L24.0579 24.6926C25.7754 24.4686 25.5514 21.9298 23.8339 22.0418C23.8339 22.0418 18.6441 22.4524 15.2838 22.4524L13.2303 22.4151C18.9802 13.7157 28.7997 7.96584 40.0008 7.96584C48.3268 7.96584 55.9432 11.1768 61.6184 16.3666H61.208C58.0716 16.3666 55.8312 19.0922 55.8312 22.0418C55.8312 24.6926 57.362 26.9328 58.9676 29.5464C60.1996 31.6746 61.6184 34.4002 61.6184 38.3952ZM40.5608 42.8008L50.4176 69.758L50.6416 70.206C47.3188 71.4008 43.7344 72.0356 40.0008 72.0356C36.8644 72.0356 33.8401 71.5872 30.9652 70.7288L40.5608 42.8008ZM68.1152 24.618C70.6964 29.3335 72.0452 34.6248 72.0356 40.0008C72.0356 51.7992 65.6136 62.1412 56.0928 67.6672L65.8748 39.4033C67.7044 34.8482 68.3392 31.1892 68.3392 27.9409L68.1152 24.618ZM40.0008 2.66406C44.9036 2.66406 49.7588 3.6298 54.2888 5.50616C58.8188 7.38248 62.9344 10.1327 66.4016 13.5997C69.8688 17.0667 72.6188 21.1827 74.4952 25.7126C76.3716 30.2424 77.3372 35.0975 77.3372 40.0008C77.3372 49.9028 73.4036 59.3996 66.4016 66.4016C59.3996 73.4036 49.9028 77.3372 40.0008 77.3372C35.0975 77.3372 30.2424 76.3716 25.7126 74.4952C21.1827 72.6188 17.0667 69.8688 13.5997 66.4016C6.59772 59.3996 2.66406 49.9028 2.66406 40.0008C2.66406 30.0984 6.59772 20.6017 13.5997 13.5997C20.6017 6.59772 30.0984 2.66406 40.0008 2.66406ZM40.0008 75.6196C59.6396 75.6196 75.6196 59.6396 75.6196 40.0008C75.6196 20.3616 59.6396 4.38156 40.0008 4.38156C20.3616 4.38156 4.38156 20.3616 4.38156 40.0008C4.38156 59.6396 20.3616 75.6196 40.0008 75.6196Z" fill="#0073AA"/>
<path d="M7.96584 40.0008C7.96584 35.3709 8.97396 30.9652 10.7288 26.9328L26.0368 68.8244C20.6171 66.208 16.046 62.1148 12.8492 57.0156C9.65244 51.9168 7.95976 46.0188 7.96584 40.0008ZM61.6184 38.3952C61.6184 41.1208 60.5356 44.2944 59.1916 48.7376L55.9808 59.4156L44.4064 25.066L48.0652 24.6926C49.82 24.4686 49.596 21.9298 47.8788 22.0418C47.8788 22.0418 42.6888 22.4524 39.3286 22.4524L30.8905 22.0418C29.173 21.9298 28.9864 24.5806 30.6665 24.6926L34.0641 25.066L39.0672 38.6565L32.048 59.6772L20.3616 25.066L24.0579 24.6926C25.7754 24.4686 25.5514 21.9298 23.8339 22.0418C23.8339 22.0418 18.6441 22.4524 15.2838 22.4524L13.2303 22.4151C18.9802 13.7157 28.7997 7.96584 40.0008 7.96584C48.3268 7.96584 55.9432 11.1768 61.6184 16.3666H61.208C58.0716 16.3666 55.8312 19.0922 55.8312 22.0418C55.8312 24.6926 57.362 26.9328 58.9676 29.5464C60.1996 31.6746 61.6184 34.4002 61.6184 38.3952ZM40.5608 42.8008L50.4176 69.758L50.6416 70.206C47.3188 71.4008 43.7344 72.0356 40.0008 72.0356C36.8644 72.0356 33.8401 71.5872 30.9652 70.7288L40.5608 42.8008ZM68.1152 24.618C70.6964 29.3335 72.0452 34.6248 72.0356 40.0008C72.0356 51.7992 65.6136 62.1412 56.0928 67.6672L65.8748 39.4033C67.7044 34.8482 68.3392 31.1892 68.3392 27.9409L68.1152 24.618ZM40.0008 2.66406C44.9036 2.66406 49.7588 3.6298 54.2888 5.50616C58.8188 7.38248 62.9344 10.1327 66.4016 13.5997C69.8688 17.0667 72.6188 21.1827 74.4952 25.7126C76.3716 30.2424 77.3372 35.0975 77.3372 40.0008C77.3372 49.9028 73.4036 59.3996 66.4016 66.4016C59.3996 73.4036 49.9028 77.3372 40.0008 77.3372C35.0975 77.3372 30.2424 76.3716 25.7126 74.4952C21.1827 72.6188 17.0667 69.8688 13.5997 66.4016C6.59772 59.3996 2.66406 49.9028 2.66406 40.0008C2.66406 30.0984 6.59772 20.6017 13.5997 13.5997C20.6017 6.59772 30.0984 2.66406 40.0008 2.66406ZM40.0008 75.6196C59.6396 75.6196 75.6196 59.6396 75.6196 40.0008C75.6196 20.3616 59.6396 4.38156 40.0008 4.38156C20.3616 4.38156 4.38156 20.3616 4.38156 40.0008C4.38156 59.6396 20.3616 75.6196 40.0008 75.6196Z" fill="#0073AA"/>
</g>
<defs>
<clipPath id="clip0_263_1145">
<rect width="80" height="80" fill="white"/>
</clipPath>
</defs>
</svg>
